NotoSerifBengali-CondensedBlack.ufo
<glyph name="exclam" format="2">
  <advance width="366.40000000000003"/>
  <unicode hex="0021"/>
  <outline>
    <contour>
      <point x="155.5" y="233.2" type="line"/>
      <point x="217.79999999999998" y="233.2" type="line"/>
      <point x="276.4" y="714.0" type="line"/>
      <point x="96.9" y="714.0" type="line"/>
    </contour>
    <contour>
      <point x="188.0" y="-8.0" type="curve" smooth="yes"/>
      <point x="231.3" y="-8.0"/>
      <point x="268.9" y="12.0"/>
      <point x="268.9" y="73.4" type="curve" smooth="yes"/>
      <point x="268.9" y="135.4"/>
      <point x="231.3" y="155.1"/>
      <point x="188.0" y="155.1" type="curve" smooth="yes"/>
      <point x="142.4" y="155.1"/>
      <point x="107.1" y="135.4"/>
      <point x="107.1" y="73.4" type="curve" smooth="yes"/>
      <point x="107.1" y="12.0"/>
      <point x="142.4" y="-8.0"/>
    </contour>
  </outline>
</glyph>
<glyph name="quotedbl" format="2">
  <advance width="493.5"/>
  <unicode hex="0022"/>
  <outline>
    <contour>
      <point x="319.59999999999997" y="431.7" type="line"/>
      <point x="386.6" y="431.7" type="line"/>
      <point x="430.0" y="714.0" type="line"/>
      <point x="270.20000000000005" y="714.0" type="line"/>
    </contour>
    <contour>
      <point x="110.2" y="431.7" type="line"/>
      <point x="177.2" y="431.7" type="line"/>
      <point x="223.9" y="714.0" type="line"/>
      <point x="63.5" y="714.0" type="line"/>
    </contour>
  </outline>
</glyph>
<glyph name="numbersign" format="2">
  <advance width="493.90000000000003"/>
  <unicode hex="0023"/>
  <outline>
    <contour>
      <point x="61.599999999999994" y="0.0" type="line"/>
      <point x="138.5" y="0.0" type="line"/>
      <point x="176.5" y="198.6" type="line"/>
      <point x="256.5" y="198.6" type="line"/>
      <point x="220.20000000000002" y="0.0" type="line"/>
      <point x="297.09999999999997" y="0.0" type="line"/>
      <point x="333.4" y="198.6" type="line"/>
      <point x="444.4" y="198.6" type="line"/>
      <point x="444.4" y="272.5" type="line"/>
      <point x="348.8" y="272.5" type="line"/>
      <point x="381.4" y="445.8" type="line"/>
      <point x="476.4" y="445.8" type="line"/>
      <point x="476.4" y="521.4" type="line"/>
      <point x="395.09999999999997" y="521.4" type="line"/>
      <point x="432.09999999999997" y="714.0" type="line"/>
      <point x="355.2" y="714.0" type="line"/>
      <point x="318.20000000000005" y="521.4" type="line"/>
      <point x="238.20000000000002" y="521.4" type="line"/>
      <point x="273.5" y="714.0" type="line"/>
      <point x="195.60000000000002" y="714.0" type="line"/>
      <point x="161.60000000000002" y="521.4" type="line"/>
      <point x="50.199999999999996" y="521.4" type="line"/>
      <point x="50.199999999999996" y="445.8" type="line"/>
      <point x="146.9" y="445.8" type="line"/>
      <point x="113.3" y="272.5" type="line"/>
      <point x="18.200000000000003" y="272.5" type="line"/>
      <point x="18.200000000000003" y="198.6" type="line"/>
      <point x="99.9" y="198.6" type="line"/>
    </contour>
    <contour>
      <point x="190.2" y="272.5" type="line"/>
      <point x="224.5" y="445.8" type="line"/>
      <point x="305.5" y="445.8" type="line"/>
      <point x="272.2" y="272.5" type="line"/>
    </contour>
  </outline>
</glyph>
<glyph name="percent" format="2">
  <advance width="804.5"/>
  <unicode hex="0025"/>
  <outline>
    <contour>
      <point x="214.79999999999998" y="0.0" type="line"/>
      <point x="288.9" y="0.0" type="line"/>
      <point x="587.4" y="714.0" type="line"/>
      <point x="513.6" y="714.0" type="line"/>
    </contour>
    <contour>
      <point x="190.9" y="280.0" type="curve" smooth="yes"/>
      <point x="303.8" y="280.0"/>
      <point x="358.2" y="369.0"/>
      <point x="358.2" y="503.0" type="curve"/>
      <point x="358.2" y="637.0"/>
      <point x="303.8" y="724.0"/>
      <point x="191.9" y="724.0" type="curve" smooth="yes"/>
      <point x="73.7" y="724.0"/>
      <point x="24.9" y="637.0"/>
      <point x="24.9" y="503.0" type="curve" smooth="yes"/>
      <point x="24.9" y="369.0"/>
      <point x="73.69999999999999" y="280.0"/>
    </contour>
    <contour>
      <point x="191.6" y="331.7" type="curve" smooth="yes"/>
      <point x="150.6" y="331.7"/>
      <point x="135.1" y="394.0"/>
      <point x="135.1" y="503.0" type="curve"/>
      <point x="135.1" y="610.0"/>
      <point x="150.6" y="671.3000000000001"/>
      <point x="191.9" y="671.3000000000001" type="curve" smooth="yes"/>
      <point x="233.20000000000002" y="671.3000000000001"/>
      <point x="246.4" y="610.0"/>
      <point x="246.4" y="503.0" type="curve" smooth="yes"/>
      <point x="246.4" y="394.0"/>
      <point x="233.20000000000002" y="331.7"/>
    </contour>
    <contour>
      <point x="613.6" y="-10.0" type="curve" smooth="yes"/>
      <point x="725.8" y="-10.0"/>
      <point x="780.2" y="79.0"/>
      <point x="780.2" y="213.0" type="curve" smooth="yes"/>
      <point x="780.2" y="347.0"/>
      <point x="725.8" y="434.0"/>
      <point x="614.6" y="434.0" type="curve" smooth="yes"/>
      <point x="496.40000000000003" y="434.0"/>
      <point x="447.59999999999997" y="347.0"/>
      <point x="447.59999999999997" y="213.0" type="curve" smooth="yes"/>
      <point x="447.59999999999997" y="79.0"/>
      <point x="496.40000000000003" y="-10.0"/>
    </contour>
    <contour>
      <point x="613.6" y="41.699999999999996" type="curve" smooth="yes"/>
      <point x="573.3" y="41.699999999999996"/>
      <point x="557.8000000000001" y="104.0"/>
      <point x="557.8000000000001" y="213.0" type="curve" smooth="yes"/>
      <point x="557.8000000000001" y="320.0"/>
      <point x="573.3000000000001" y="381.3"/>
      <point x="614.6" y="381.3" type="curve" smooth="yes"/>
      <point x="655.1999999999999" y="381.3"/>
      <point x="669.1" y="320.0"/>
      <point x="669.1" y="213.0" type="curve" smooth="yes"/>
      <point x="669.1" y="104.0"/>
      <point x="655.1999999999999" y="41.699999999999996"/>
    </contour>
  </outline>
</glyph>
<glyph name="quotesingle" format="2">
  <advance width="287.40000000000003"/>
  <unicode hex="0027"/>
  <outline>
    <contour>
      <point x="110.2" y="431.7" type="line"/>
      <point x="177.2" y="431.7" type="line"/>
      <point x="223.9" y="714.0" type="line"/>
      <point x="63.5" y="714.0" type="line"/>
    </contour>
  </outline>
</glyph>
<glyph name="parenleft" format="2">
  <advance width="393.4"/>
  <unicode hex="0028"/>
  <outline>
    <contour>
      <point x="345.8" y="-141.1" type="curve"/>
      <point x="345.8" y="-73.6" type="line"/>
      <point x="241.4" y="7.7"/>
      <point x="214.0" y="159.0"/>
      <point x="214.0" y="318.0" type="curve" smooth="yes"/>
      <point x="214.0" y="476.0"/>
      <point x="241.4" y="625.3"/>
      <point x="345.8" y="708.3000000000001" type="curve"/>
      <point x="345.8" y="774.1" type="line"/>
      <point x="130.6" y="682.3"/>
      <point x="46.1" y="527.8"/>
      <point x="46.1" y="318.0" type="curve" smooth="yes"/>
      <point x="46.1" y="107.2"/>
      <point x="130.6" y="-48.599999999999994"/>
    </contour>
  </outline>
</glyph>
<glyph name="parenright" format="2">
  <advance width="402.1"/>
  <unicode hex="0029"/>
  <outline>
    <contour>
      <point x="56.30000000000001" y="-141.1" type="line"/>
      <point x="271.5" y="-48.599999999999994"/>
      <point x="356.0" y="107.2"/>
      <point x="356.0" y="318.0" type="curve" smooth="yes"/>
      <point x="356.0" y="527.8"/>
      <point x="271.5" y="682.3"/>
      <point x="56.30000000000001" y="774.1" type="curve"/>
      <point x="56.30000000000001" y="708.3000000000001" type="line"/>
      <point x="159.7" y="625.3"/>
      <point x="188.1" y="476.0"/>
      <point x="188.1" y="318.0" type="curve" smooth="yes"/>
      <point x="188.1" y="159.0"/>
      <point x="159.7" y="7.7"/>
      <point x="56.30000000000001" y="-73.6" type="curve"/>
    </contour>
  </outline>
</glyph>
<glyph name="asterisk" format="2">
  <advance width="444.2"/>
  <unicode hex="002A"/>
  <outline>
    <contour>
      <point x="170.1" y="364.2" type="line"/>
      <point x="278.6" y="364.2" type="line"/>
      <point x="244.0" y="526.9" type="line"/>
      <point x="374.4" y="421.2" type="line"/>
      <point x="419.0" y="524.0" type="line"/>
      <point x="287.1" y="561.6" type="line"/>
      <point x="419.0" y="600.2" type="line"/>
      <point x="374.4" y="703.0" type="line"/>
      <point x="244.0" y="596.9" type="line"/>
      <point x="279.6" y="760.0" type="line"/>
      <point x="170.1" y="760.0" type="line"/>
      <point x="202.4" y="594.9" type="line"/>
      <point x="72.3" y="705.0" type="line"/>
      <point x="28.7" y="601.2" type="line"/>
      <point x="160.6" y="561.6" type="line"/>
      <point x="28.7" y="523.0" type="line"/>
      <point x="72.3" y="419.5" type="line"/>
      <point x="201.7" y="528.6" type="line"/>
    </contour>
  </outline>
</glyph>
<glyph name="plus" format="2">
  <advance width="465.2"/>
  <unicode hex="002B"/>
  <outline>
    <contour>
      <point x="194.70000000000002" y="143.0" type="line"/>
      <point x="270.2" y="143.0" type="line"/>
      <point x="270.2" y="321.3" type="line"/>
      <point x="421.90000000000003" y="321.3" type="line"/>
      <point x="421.90000000000003" y="393.7" type="line"/>
      <point x="270.2" y="393.7" type="line"/>
      <point x="270.2" y="572.0" type="line"/>
      <point x="194.70000000000002" y="572.0" type="line"/>
      <point x="194.70000000000002" y="393.7" type="line"/>
      <point x="43.3" y="393.7" type="line"/>
      <point x="43.3" y="321.3" type="line"/>
      <point x="194.70000000000002" y="321.3" type="line"/>
    </contour>
  </outline>
</glyph>
<glyph name="comma" format="2">
  <advance width="297.59999999999997"/>
  <unicode hex="002C"/>
  <outline>
    <contour>
      <point x="65.00000000000001" y="-154.0" type="line"/>
      <point x="184.8" y="-119.7"/>
      <point x="229.60000000000002" y="-44.4"/>
      <point x="229.60000000000002" y="39.2" type="curve" smooth="yes"/>
      <point x="229.60000000000002" y="110.3"/>
      <point x="202.5" y="155.1"/>
      <point x="146.9" y="155.1" type="curve" smooth="yes"/>
      <point x="108.0" y="155.1"/>
      <point x="75.10000000000001" y="130.4"/>
      <point x="75.10000000000001" y="85.10000000000001" type="curve" smooth="yes"/>
      <point x="75.10000000000001" y="2.3"/>
      <point x="139.70000000000002" y="11.9"/>
      <point x="139.70000000000002" y="-24.700000000000003" type="curve" smooth="yes"/>
      <point x="139.70000000000002" y="-61.0"/>
      <point x="113.50000000000001" y="-80.3"/>
      <point x="65.00000000000001" y="-100.60000000000001" type="curve"/>
    </contour>
  </outline>
</glyph>
<glyph name="hyphen" format="2">
  <advance width="274.3"/>
  <unicode hex="002D"/>
  <outline>
    <contour>
      <point x="22.2" y="216.9" type="line"/>
      <point x="252.1" y="216.9" type="line"/>
      <point x="252.1" y="328.09999999999997" type="line"/>
      <point x="22.2" y="328.09999999999997" type="line"/>
    </contour>
  </outline>
</glyph>
<glyph name="period" format="2">
  <advance width="297.90000000000003"/>
  <unicode hex="002E"/>
  <outline>
    <contour>
      <point x="158.20000000000002" y="-8.0" type="curve" smooth="yes"/>
      <point x="201.5" y="-8.0"/>
      <point x="239.5" y="12.0"/>
      <point x="239.5" y="73.4" type="curve" smooth="yes"/>
      <point x="239.5" y="135.4"/>
      <point x="201.5" y="155.1"/>
      <point x="158.20000000000002" y="155.1" type="curve" smooth="yes"/>
      <point x="112.60000000000001" y="155.1"/>
      <point x="77.3" y="135.4"/>
      <point x="77.3" y="73.4" type="curve" smooth="yes"/>
      <point x="77.3" y="12.0"/>
      <point x="112.60000000000001" y="-8.0"/>
    </contour>
  </outline>
</glyph>
<glyph name="zero" format="2">
  <advance width="493.90000000000003"/>
  <unicode hex="0030"/>
  <outline>
    <contour>
      <point x="247.1" y="-10.0" type="curve" smooth="yes"/>
      <point x="408.5" y="-10.0"/>
      <point x="468.3" y="134.9"/>
      <point x="468.3" y="358.0" type="curve" smooth="yes"/>
      <point x="468.3" y="582.8"/>
      <point x="408.5" y="724.0"/>
      <point x="248.1" y="724.0" type="curve" smooth="yes"/>
      <point x="78.10000000000001" y="724.0"/>
      <point x="24.900000000000002" y="581.4"/>
      <point x="24.900000000000002" y="359.0" type="curve" smooth="yes"/>
      <point x="24.900000000000002" y="134.2"/>
      <point x="78.1" y="-10.0"/>
    </contour>
    <contour>
      <point x="247.1" y="56.400000000000006" type="curve" smooth="yes"/>
      <point x="191.3" y="56.400000000000006"/>
      <point x="184.1" y="167.70000000000002"/>
      <point x="184.1" y="358.0" type="curve" smooth="yes"/>
      <point x="184.1" y="548.3000000000001"/>
      <point x="191.3" y="657.5999999999999"/>
      <point x="248.1" y="657.5999999999999" type="curve" smooth="yes"/>
      <point x="302.20000000000005" y="657.5999999999999"/>
      <point x="309.1" y="548.3000000000001"/>
      <point x="309.1" y="358.0" type="curve" smooth="yes"/>
      <point x="309.1" y="167.70000000000002"/>
      <point x="302.20000000000005" y="56.400000000000006"/>
    </contour>
  </outline>
</glyph>
<glyph name="one" format="2">
  <advance width="493.90000000000003"/>
  <unicode hex="0031"/>
  <outline>
    <contour>
      <point x="73.89999999999999" y="0.0" type="line"/>
      <point x="458.90000000000003" y="0.0" type="line"/>
      <point x="458.90000000000003" y="55.099999999999994" type="line"/>
      <point x="397.5" y="55.099999999999994" type="line" smooth="yes"/>
      <point x="362.5" y="55.099999999999994"/>
      <point x="347.90000000000003" y="78.8"/>
      <point x="347.90000000000003" y="118.7" type="curve" smooth="yes"/>
      <point x="347.90000000000003" y="718.0" type="line"/>
      <point x="227.5" y="718.0" type="line"/>
      <point x="165.9" y="668.8000000000001" type="line" smooth="yes"/>
      <point x="106.2" y="621.1999999999999"/>
      <point x="61.7" y="603.9"/>
      <point x="26.6" y="593.9" type="curve"/>
      <point x="26.6" y="546.1"/>
      <point x="51.2" y="516.4000000000001"/>
      <point x="81.10000000000001" y="516.4000000000001" type="curve" smooth="yes"/>
      <point x="116.89999999999999" y="516.4000000000001"/>
      <point x="152.1" y="550.7"/>
      <point x="195.4" y="609.9000000000001" type="curve"/>
      <point x="195.4" y="118.7" type="line" smooth="yes"/>
      <point x="195.4" y="69.4"/>
      <point x="174.5" y="55.099999999999994"/>
      <point x="146.1" y="55.099999999999994" type="curve" smooth="yes"/>
      <point x="73.89999999999999" y="55.099999999999994" type="line"/>
    </contour>
  </outline>
</glyph>
<glyph name="two" format="2">
  <advance width="493.90000000000003"/>
  <unicode hex="0032"/>
  <outline>
    <contour>
      <point x="25.900000000000002" y="0.0" type="line"/>
      <point x="460.40000000000003" y="0.0" type="line"/>
      <point x="464.7" y="217.0" type="line"/>
      <point x="405.0" y="217.0" type="line"/>
      <point x="396.3" y="183.2" type="line" smooth="yes"/>
      <point x="385.0" y="137.1"/>
      <point x="351.5" y="115.60000000000001"/>
      <point x="323.79999999999995" y="115.60000000000001" type="curve" smooth="yes"/>
      <point x="128.6" y="115.60000000000001" type="line"/>
      <point x="237.0" y="221.8" type="line" smooth="yes"/>
      <point x="372.6" y="354.4"/>
      <point x="443.2" y="442.6"/>
      <point x="443.2" y="552.4" type="curve" smooth="yes"/>
      <point x="443.2" y="656.1"/>
      <point x="370.9" y="724.0"/>
      <point x="228.89999999999998" y="724.0" type="curve" smooth="yes"/>
      <point x="92.7" y="724.0"/>
      <point x="27.1" y="654.0"/>
      <point x="27.1" y="584.1" type="curve" smooth="yes"/>
      <point x="27.1" y="510.00000000000006"/>
      <point x="85.4" y="488.6"/>
      <point x="154.4" y="488.6" type="curve"/>
      <point x="154.4" y="608.9"/>
      <point x="179.1" y="660.9000000000001"/>
      <point x="228.89999999999998" y="660.9000000000001" type="curve" smooth="yes"/>
      <point x="262.2" y="660.9000000000001"/>
      <point x="288.0" y="630.4000000000001"/>
      <point x="288.0" y="550.2" type="curve" smooth="yes"/>
      <point x="288.0" y="448.6"/>
      <point x="257.0" y="371.59999999999997"/>
      <point x="145.9" y="242.10000000000002" type="curve" smooth="yes"/>
      <point x="25.900000000000002" y="103.0" type="line"/>
    </contour>
  </outline>
</glyph>
<glyph name="three" format="2">
  <advance width="493.90000000000003"/>
  <unicode hex="0033"/>
  <outline>
    <contour>
      <point x="214.3" y="-10.0" type="curve" smooth="yes"/>
      <point x="346.7" y="-10.0"/>
      <point x="464.0" y="43.0"/>
      <point x="464.0" y="204.6" type="curve" smooth="yes"/>
      <point x="464.0" y="315.4"/>
      <point x="383.5" y="363.9"/>
      <point x="309.8" y="380.29999999999995" type="curve"/>
      <point x="384.2" y="410.7"/>
      <point x="441.8" y="468.90000000000003"/>
      <point x="441.8" y="558.9" type="curve" smooth="yes"/>
      <point x="441.8" y="664.3"/>
      <point x="361.2" y="724.0"/>
      <point x="228.29999999999998" y="724.0" type="curve" smooth="yes"/>
      <point x="92.8" y="724.0"/>
      <point x="27.599999999999998" y="660.3"/>
      <point x="27.599999999999998" y="591.4000000000001" type="curve" smooth="yes"/>
      <point x="27.599999999999998" y="529.7"/>
      <point x="74.60000000000001" y="505.2"/>
      <point x="149.9" y="505.2" type="curve"/>
      <point x="149.9" y="583.9"/>
      <point x="166.7" y="660.9000000000001"/>
      <point x="221.9" y="660.9000000000001" type="curve" smooth="yes"/>
      <point x="260.5" y="660.9000000000001"/>
      <point x="285.3" y="616.9000000000001"/>
      <point x="285.3" y="546.3" type="curve" smooth="yes"/>
      <point x="285.3" y="459.7"/>
      <point x="261.1" y="401.4"/>
      <point x="185.6" y="401.4" type="curve"/>
      <point x="118.89999999999999" y="401.4" type="line"/>
      <point x="118.89999999999999" y="338.0" type="line"/>
      <point x="180.9" y="338.0" type="line" smooth="yes"/>
      <point x="263.4" y="338.0"/>
      <point x="306.5" y="282.29999999999995"/>
      <point x="306.5" y="205.6" type="curve" smooth="yes"/>
      <point x="306.5" y="93.4"/>
      <point x="260.4" y="62.8"/>
      <point x="208.70000000000002" y="62.8" type="curve" smooth="yes"/>
      <point x="148.3" y="62.8"/>
      <point x="102.5" y="110.0"/>
      <point x="102.5" y="197.8" type="curve"/>
      <point x="57.9" y="197.8"/>
      <point x="17.5" y="170.8"/>
      <point x="17.5" y="117.7" type="curve" smooth="yes"/>
      <point x="17.5" y="46.3"/>
      <point x="72.4" y="-10.0"/>
    </contour>
  </outline>
</glyph>
<glyph name="four" format="2">
  <advance width="493.90000000000003"/>
  <unicode hex="0034"/>
  <outline>
    <contour>
      <point x="143.6" y="0.0" type="line"/>
      <point x="475.7" y="0.0" type="line"/>
      <point x="475.7" y="55.099999999999994" type="line"/>
      <point x="464.1" y="55.099999999999994" type="line" smooth="yes"/>
      <point x="424.7" y="55.099999999999994"/>
      <point x="391.9" y="64.1"/>
      <point x="391.9" y="127.1" type="curve" smooth="yes"/>
      <point x="391.9" y="184.6" type="line"/>
      <point x="474.90000000000003" y="184.6" type="line"/>
      <point x="474.90000000000003" y="252.0" type="line"/>
      <point x="391.9" y="252.0" type="line"/>
      <point x="391.9" y="714.0" type="line"/>
      <point x="245.9" y="714.0" type="line"/>
      <point x="10.2" y="248.4" type="line"/>
      <point x="10.2" y="184.6" type="line"/>
      <point x="241.0" y="184.6" type="line"/>
      <point x="241.0" y="127.1" type="line" smooth="yes"/>
      <point x="241.0" y="64.1"/>
      <point x="208.2" y="55.099999999999994"/>
      <point x="168.79999999999998" y="55.099999999999994" type="curve" smooth="yes"/>
      <point x="143.6" y="55.099999999999994" type="line"/>
    </contour>
    <contour>
      <point x="79.5" y="252.0" type="line"/>
      <point x="182.29999999999998" y="457.5" type="line" smooth="yes"/>
      <point x="201.5" y="498.6"/>
      <point x="231.5" y="563.5"/>
      <point x="247.3" y="607.8" type="curve"/>
      <point x="242.29999999999998" y="545.8"/>
      <point x="241.0" y="490.6"/>
      <point x="241.0" y="432.6" type="curve" smooth="yes"/>
      <point x="241.0" y="252.0" type="line"/>
    </contour>
  </outline>
</glyph>
<glyph name="five" format="2">
  <advance width="493.90000000000003"/>
  <unicode hex="0035"/>
  <outline>
    <contour>
      <point x="217.0" y="-10.0" type="curve" smooth="yes"/>
      <point x="310.0" y="-10.0"/>
      <point x="455.59999999999997" y="40.0"/>
      <point x="455.59999999999997" y="220.0" type="curve" smooth="yes"/>
      <point x="455.59999999999997" y="363.7"/>
      <point x="365.1" y="435.4"/>
      <point x="217.1" y="435.4" type="curve" smooth="yes"/>
      <point x="188.7" y="435.4"/>
      <point x="142.10000000000002" y="428.4"/>
      <point x="123.2" y="419.70000000000005" type="curve"/>
      <point x="138.5" y="599.1" type="line"/>
      <point x="325.5" y="599.1" type="line" smooth="yes"/>
      <point x="349.79999999999995" y="599.1"/>
      <point x="356.40000000000003" y="585.0999999999999"/>
      <point x="362.40000000000003" y="559.6999999999999" type="curve" smooth="yes"/>
      <point x="371.8" y="526.4" type="line"/>
      <point x="428.79999999999995" y="526.4" type="line"/>
      <point x="424.5" y="714.0" type="line"/>
      <point x="82.9" y="714.0" type="line"/>
      <point x="51.6" y="370.09999999999997" type="line"/>
      <point x="92.7" y="350.0" type="line"/>
      <point x="122.0" y="358.3"/>
      <point x="148.5" y="368.0"/>
      <point x="185.5" y="368.0" type="curve" smooth="yes"/>
      <point x="258.9" y="368.0"/>
      <point x="299.1" y="319.3"/>
      <point x="299.1" y="220.0" type="curve" smooth="yes"/>
      <point x="299.1" y="97.0"/>
      <point x="250.5" y="60.699999999999996"/>
      <point x="199.2" y="60.699999999999996" type="curve" smooth="yes"/>
      <point x="127.0" y="60.699999999999996"/>
      <point x="106.7" y="129.3"/>
      <point x="106.7" y="187.0" type="curve"/>
      <point x="62.2" y="187.0"/>
      <point x="28.8" y="163.3"/>
      <point x="28.8" y="115.89999999999999" type="curve" smooth="yes"/>
      <point x="28.8" y="50.4"/>
      <point x="83.1" y="-10.0"/>
    </contour>
  </outline>
</glyph>
<glyph name="six" format="2">
  <advance width="493.90000000000003"/>
  <unicode hex="0036"/>
  <outline>
    <contour>
      <point x="258.7" y="-10.0" type="curve" smooth="yes"/>
      <point x="400.20000000000005" y="-10.0"/>
      <point x="470.09999999999997" y="88.0"/>
      <point x="470.09999999999997" y="231.0" type="curve" smooth="yes"/>
      <point x="470.09999999999997" y="361.7"/>
      <point x="400.20000000000005" y="438.7"/>
      <point x="293.2" y="438.7" type="curve" smooth="yes"/>
      <point x="232.20000000000002" y="438.7"/>
      <point x="200.39999999999998" y="419.7"/>
      <point x="177.6" y="403.09999999999997" type="curve"/>
      <point x="185.6" y="567.9"/>
      <point x="218.2" y="662.9000000000001"/>
      <point x="278.3" y="662.9000000000001" type="curve" smooth="yes"/>
      <point x="320.1" y="662.9000000000001"/>
      <point x="338.0" y="600.1999999999999"/>
      <point x="338.0" y="531.8000000000001" type="curve"/>
      <point x="423.2" y="531.8000000000001"/>
      <point x="453.09999999999997" y="568.1"/>
      <point x="453.09999999999997" y="612.6" type="curve" smooth="yes"/>
      <point x="453.09999999999997" y="671.0"/>
      <point x="406.5" y="724.0"/>
      <point x="284.5" y="724.0" type="curve" smooth="yes"/>
      <point x="116.0" y="724.0"/>
      <point x="32.4" y="573.8"/>
      <point x="32.4" y="331.4" type="curve" smooth="yes"/>
      <point x="32.4" y="97.0"/>
      <point x="121.89999999999999" y="-10.0"/>
    </contour>
    <contour>
      <point x="258.9" y="57.4" type="curve" smooth="yes"/>
      <point x="204.20000000000002" y="57.4"/>
      <point x="179.3" y="146.1"/>
      <point x="178.3" y="336.7" type="curve"/>
      <point x="193.2" y="352.7"/>
      <point x="221.6" y="373.5"/>
      <point x="253.4" y="373.5" type="curve" smooth="yes"/>
      <point x="295.0" y="373.5"/>
      <point x="323.0" y="328.3"/>
      <point x="323.0" y="221.0" type="curve" smooth="yes"/>
      <point x="323.0" y="107.4"/>
      <point x="298.0" y="57.4"/>
    </contour>
  </outline>
</glyph>
<glyph name="seven" format="2">
  <advance width="493.90000000000003"/>
  <unicode hex="0037"/>
  <outline>
    <contour>
      <point x="132.1" y="0.0" type="line"/>
      <point x="222.7" y="0.0" type="line"/>
      <point x="462.29999999999995" y="661.5" type="line"/>
      <point x="462.29999999999995" y="714.0" type="line"/>
      <point x="42.0" y="714.0" type="line"/>
      <point x="37.0" y="498.40000000000003" type="line"/>
      <point x="97.7" y="498.40000000000003" type="line"/>
      <point x="104.4" y="547.7" type="line" smooth="yes"/>
      <point x="108.4" y="582.1"/>
      <point x="123.6" y="599.4"/>
      <point x="155.4" y="599.4" type="curve" smooth="yes"/>
      <point x="373.6" y="599.4" type="line"/>
    </contour>
  </outline>
</glyph>
<glyph name="eight" format="2">
  <advance width="493.90000000000003"/>
  <unicode hex="0038"/>
  <outline>
    <contour>
      <point x="241.5" y="-10.0" type="curve" smooth="yes"/>
      <point x="389.9" y="-10.0"/>
      <point x="474.4" y="67.2"/>
      <point x="474.4" y="186.20000000000002" type="curve" smooth="yes"/>
      <point x="474.4" y="279.8"/>
      <point x="436.09999999999997" y="333.2"/>
      <point x="332.90000000000003" y="389.09999999999997" type="curve"/>
      <point x="406.09999999999997" y="427.2"/>
      <point x="450.40000000000003" y="471.09999999999997"/>
      <point x="450.40000000000003" y="556.7" type="curve" smooth="yes"/>
      <point x="450.40000000000003" y="650.7"/>
      <point x="384.70000000000005" y="724.0"/>
      <point x="252.8" y="724.0" type="curve" smooth="yes"/>
      <point x="97.6" y="724.0"/>
      <point x="39.7" y="639.9"/>
      <point x="39.7" y="542.0" type="curve" smooth="yes"/>
      <point x="39.7" y="455.6"/>
      <point x="82.3" y="404.20000000000005"/>
      <point x="152.5" y="361.0" type="curve"/>
      <point x="75.69999999999999" y="326.09999999999997"/>
      <point x="19.5" y="275.0"/>
      <point x="19.5" y="176.4" type="curve" smooth="yes"/>
      <point x="19.5" y="75.3"/>
      <point x="85.7" y="-10.0"/>
    </contour>
    <contour>
      <point x="245.8" y="50.5" type="curve" smooth="yes"/>
      <point x="194.6" y="50.5"/>
      <point x="155.20000000000002" y="95.80000000000001"/>
      <point x="155.20000000000002" y="181.5" type="curve" smooth="yes"/>
      <point x="155.20000000000002" y="248.0"/>
      <point x="177.29999999999998" y="292.70000000000005"/>
      <point x="210.39999999999998" y="323.1" type="curve"/>
      <point x="286.09999999999997" y="278.20000000000005"/>
      <point x="326.29999999999995" y="232.8"/>
      <point x="326.29999999999995" y="167.79999999999998" type="curve" smooth="yes"/>
      <point x="326.29999999999995" y="94.8"/>
      <point x="294.2" y="50.5"/>
    </contour>
    <contour>
      <point x="271.2" y="422.4" type="curve"/>
      <point x="218.0" y="452.3"/>
      <point x="184.9" y="489.2"/>
      <point x="184.9" y="558.9" type="curve" smooth="yes"/>
      <point x="184.9" y="622.2"/>
      <point x="207.20000000000002" y="663.2"/>
      <point x="248.9" y="663.2" type="curve" smooth="yes"/>
      <point x="293.8" y="663.2"/>
      <point x="319.5" y="613.6"/>
      <point x="319.5" y="554.5" type="curve" smooth="yes"/>
      <point x="319.5" y="485.7"/>
      <point x="300.6" y="447.6"/>
    </contour>
  </outline>
</glyph>
<glyph name="nine" format="2">
  <advance width="493.90000000000003"/>
  <unicode hex="0039"/>
  <outline>
    <contour>
      <point x="200.4" y="-10.0" type="curve"/>
      <point x="386.5" y="-10.0"/>
      <point x="461.5" y="161.7"/>
      <point x="461.5" y="388.0" type="curve" smooth="yes"/>
      <point x="461.5" y="630.0"/>
      <point x="364.9" y="724.0"/>
      <point x="232.5" y="724.0" type="curve" smooth="yes"/>
      <point x="102.10000000000001" y="724.0"/>
      <point x="23.800000000000004" y="627.4"/>
      <point x="23.800000000000004" y="484.09999999999997" type="curve" smooth="yes"/>
      <point x="23.800000000000004" y="349.8"/>
      <point x="95.7" y="276.4"/>
      <point x="196.0" y="276.4" type="curve" smooth="yes"/>
      <point x="255.3" y="276.4"/>
      <point x="289.1" y="300.5"/>
      <point x="317.0" y="337.40000000000003" type="curve"/>
      <point x="310.7" y="152.4"/>
      <point x="274.5" y="55.099999999999994"/>
      <point x="206.8" y="55.099999999999994" type="curve" smooth="yes"/>
      <point x="145.4" y="55.099999999999994"/>
      <point x="121.2" y="107.0"/>
      <point x="103.6" y="170.5" type="curve"/>
      <point x="62.599999999999994" y="162.79999999999998"/>
      <point x="47.599999999999994" y="133.4"/>
      <point x="47.599999999999994" y="103.7" type="curve" smooth="yes"/>
      <point x="47.599999999999994" y="43.9"/>
      <point x="89.89999999999999" y="-10.0"/>
    </contour>
    <contour>
      <point x="241.1" y="349.09999999999997" type="curve" smooth="yes"/>
      <point x="194.5" y="349.8"/>
      <point x="170.2" y="400.9"/>
      <point x="170.2" y="488.0" type="curve" smooth="yes"/>
      <point x="170.2" y="599.3"/>
      <point x="196.20000000000002" y="655.6"/>
      <point x="240.6" y="655.6" type="curve" smooth="yes"/>
      <point x="287.59999999999997" y="655.6"/>
      <point x="315.7" y="588.2"/>
      <point x="317.0" y="404.2" type="curve"/>
      <point x="298.0" y="370.5"/>
      <point x="273.1" y="349.8"/>
    </contour>
  </outline>
</glyph>
<glyph name="colon" format="2">
  <advance width="297.2"/>
  <unicode hex="003A"/>
  <outline>
    <contour>
      <point x="157.89999999999998" y="381.2" type="curve" smooth="yes"/>
      <point x="200.79999999999998" y="381.2"/>
      <point x="238.79999999999998" y="401.2"/>
      <point x="238.79999999999998" y="462.9" type="curve" smooth="yes"/>
      <point x="238.79999999999998" y="524.5999999999999"/>
      <point x="200.79999999999998" y="544.3000000000001"/>
      <point x="157.89999999999998" y="544.3000000000001" type="curve" smooth="yes"/>
      <point x="112.6" y="544.3000000000001"/>
      <point x="77.3" y="524.5999999999999"/>
      <point x="77.3" y="462.9" type="curve" smooth="yes"/>
      <point x="77.3" y="401.2"/>
      <point x="112.6" y="381.2"/>
    </contour>
    <contour>
      <point x="157.89999999999998" y="-8.0" type="curve" smooth="yes"/>
      <point x="200.79999999999998" y="-8.0"/>
      <point x="238.79999999999998" y="12.0"/>
      <point x="238.79999999999998" y="73.4" type="curve" smooth="yes"/>
      <point x="238.79999999999998" y="135.4"/>
      <point x="200.79999999999998" y="155.1"/>
      <point x="157.89999999999998" y="155.1" type="curve" smooth="yes"/>
      <point x="112.6" y="155.1"/>
      <point x="77.3" y="135.4"/>
      <point x="77.3" y="73.4" type="curve" smooth="yes"/>
      <point x="77.3" y="12.0"/>
      <point x="112.6" y="-8.0"/>
    </contour>
  </outline>
</glyph>
<glyph name="semicolon" format="2">
  <advance width="292.2"/>
  <unicode hex="003B"/>
  <outline>
    <contour>
      <point x="65.00000000000001" y="-154.0" type="line"/>
      <point x="185.2" y="-119.7"/>
      <point x="230.3" y="-44.4"/>
      <point x="230.3" y="39.2" type="curve" smooth="yes"/>
      <point x="230.3" y="110.3"/>
      <point x="202.89999999999998" y="155.1"/>
      <point x="146.9" y="155.1" type="curve" smooth="yes"/>
      <point x="108.69999999999999" y="155.1"/>
      <point x="75.8" y="130.4"/>
      <point x="75.8" y="85.10000000000001" type="curve" smooth="yes"/>
      <point x="75.8" y="2.3"/>
      <point x="140.4" y="11.9"/>
      <point x="140.4" y="-24.700000000000003" type="curve"/>
      <point x="140.4" y="-62.7"/>
      <point x="113.9" y="-80.3"/>
      <point x="65.00000000000001" y="-100.60000000000001" type="curve"/>
    </contour>
    <contour>
      <point x="153.5" y="381.2" type="curve" smooth="yes"/>
      <point x="196.79999999999998" y="381.2"/>
      <point x="234.4" y="401.2"/>
      <point x="234.4" y="462.9" type="curve" smooth="yes"/>
      <point x="234.4" y="524.5999999999999"/>
      <point x="196.79999999999998" y="544.3000000000001"/>
      <point x="153.5" y="544.3000000000001" type="curve" smooth="yes"/>
      <point x="107.9" y="544.3000000000001"/>
      <point x="72.6" y="524.5999999999999"/>
      <point x="72.6" y="462.9" type="curve" smooth="yes"/>
      <point x="72.6" y="401.2"/>
      <point x="107.9" y="381.2"/>
    </contour>
  </outline>
</glyph>
<glyph name="less" format="2">
  <advance width="465.2"/>
  <unicode hex="003C"/>
  <outline>
    <contour>
      <point x="421.90000000000003" y="103.3" type="line"/>
      <point x="421.90000000000003" y="185.1" type="line"/>
      <point x="143.3" y="357.0" type="line"/>
      <point x="421.90000000000003" y="530.9" type="line"/>
      <point x="421.90000000000003" y="612.7" type="line"/>
      <point x="43.300000000000004" y="378.7" type="line"/>
      <point x="43.300000000000004" y="336.3" type="line"/>
    </contour>
  </outline>
</glyph>
<glyph name="equal" format="2">
  <advance width="465.2"/>
  <unicode hex="003D"/>
  <outline>
    <contour>
      <point x="40.6" y="411.3" type="line"/>
      <point x="424.90000000000003" y="411.3" type="line"/>
      <point x="424.90000000000003" y="483.4" type="line"/>
      <point x="40.6" y="483.4" type="line"/>
    </contour>
    <contour>
      <point x="40.6" y="230.60000000000002" type="line"/>
      <point x="424.90000000000003" y="230.60000000000002" type="line"/>
      <point x="424.90000000000003" y="302.7" type="line"/>
      <point x="40.6" y="302.7" type="line"/>
    </contour>
  </outline>
</glyph>
<glyph name="greater" format="2">
  <advance width="465.2"/>
  <unicode hex="003E"/>
  <outline>
    <contour>
      <point x="43.300000000000004" y="103.3" type="line"/>
      <point x="421.90000000000003" y="336.3" type="line"/>
      <point x="421.90000000000003" y="378.7" type="line"/>
      <point x="43.300000000000004" y="612.7" type="line"/>
      <point x="43.300000000000004" y="530.9" type="line"/>
      <point x="321.20000000000005" y="357.0" type="line"/>
      <point x="43.300000000000004" y="185.1" type="line"/>
    </contour>
  </outline>
</glyph>
<glyph name="question" format="2">
  <advance width="503.1"/>
  <unicode hex="003F"/>
  <outline>
    <contour>
      <point x="195.4" y="233.1" type="line"/>
      <point x="265.0" y="233.1" type="line"/>
      <point x="288.0" y="323.0" type="line"/>
      <point x="410.90000000000003" y="379.6"/>
      <point x="466.0" y="433.70000000000005"/>
      <point x="466.0" y="539.4" type="curve" smooth="yes"/>
      <point x="466.0" y="655.7"/>
      <point x="375.5" y="724.0"/>
      <point x="233.0" y="724.0" type="curve" smooth="yes"/>
      <point x="91.2" y="724.0"/>
      <point x="28.3" y="661.9"/>
      <point x="28.3" y="599.1" type="curve" smooth="yes"/>
      <point x="28.3" y="537.3"/>
      <point x="80.7" y="519.3"/>
      <point x="175.1" y="519.3" type="curve"/>
      <point x="175.1" y="612.0"/>
      <point x="196.3" y="659.5"/>
      <point x="234.0" y="659.5" type="curve" smooth="yes"/>
      <point x="268.4" y="659.5"/>
      <point x="288.90000000000003" y="616.2"/>
      <point x="288.90000000000003" y="552.3000000000001" type="curve" smooth="yes"/>
      <point x="288.90000000000003" y="470.09999999999997"/>
      <point x="271.5" y="397.7"/>
      <point x="172.39999999999998" y="349.3" type="curve"/>
    </contour>
    <contour>
      <point x="227.70000000000002" y="-8.3" type="curve" smooth="yes"/>
      <point x="272.79999999999995" y="-8.3"/>
      <point x="311.9" y="12.6"/>
      <point x="311.9" y="76.7" type="curve" smooth="yes"/>
      <point x="311.9" y="141.10000000000002"/>
      <point x="272.79999999999995" y="161.7"/>
      <point x="227.70000000000002" y="161.7" type="curve" smooth="yes"/>
      <point x="180.60000000000002" y="161.7"/>
      <point x="143.8" y="141.10000000000002"/>
      <point x="143.8" y="76.7" type="curve" smooth="yes"/>
      <point x="143.8" y="12.6"/>
      <point x="180.60000000000002" y="-8.3"/>
    </contour>
  </outline>
</glyph>
<glyph name="bracketleft" format="2">
  <advance width="394.6"/>
  <unicode hex="005B"/>
  <outline>
    <contour>
      <point x="80.0" y="-128.0" type="line"/>
      <point x="349.5" y="-128.0" type="line"/>
      <point x="349.5" y="-72.89999999999999" type="line"/>
      <point x="312.1" y="-72.89999999999999" type="line" smooth="yes"/>
      <point x="272.0" y="-72.89999999999999"/>
      <point x="239.2" y="-63.9"/>
      <point x="239.2" y="-0.9000000000000004" type="curve" smooth="yes"/>
      <point x="239.2" y="632.9000000000001" type="line" smooth="yes"/>
      <point x="239.2" y="695.9"/>
      <point x="272.0" y="704.9"/>
      <point x="312.1" y="704.9" type="curve" smooth="yes"/>
      <point x="349.5" y="704.9" type="line"/>
      <point x="349.5" y="760.0" type="line"/>
      <point x="80.0" y="760.0" type="line"/>
    </contour>
  </outline>
</glyph>
<glyph name="bracketright" format="2">
  <advance width="409.0"/>
  <unicode hex="005D"/>
  <outline>
    <contour>
      <point x="59.8" y="-128.0" type="line"/>
      <point x="329.0" y="-128.0" type="line"/>
      <point x="329.0" y="760.0" type="line"/>
      <point x="59.8" y="760.0" type="line"/>
      <point x="59.8" y="704.9" type="line"/>
      <point x="97.9" y="704.9" type="line" smooth="yes"/>
      <point x="138.0" y="704.9"/>
      <point x="170.1" y="695.9"/>
      <point x="170.1" y="632.9000000000001" type="curve" smooth="yes"/>
      <point x="170.1" y="-0.9000000000000004" type="line" smooth="yes"/>
      <point x="170.1" y="-63.9"/>
      <point x="138.0" y="-72.89999999999999"/>
      <point x="97.9" y="-72.89999999999999" type="curve" smooth="yes"/>
      <point x="59.8" y="-72.89999999999999" type="line"/>
    </contour>
  </outline>
</glyph>
<glyph name="asciicircum" format="2">
  <advance width="464.5"/>
  <unicode hex="005E"/>
  <outline>
    <contour>
      <point x="24.0" y="261.3" type="line"/>
      <point x="97.4" y="261.3" type="line"/>
      <point x="231.1" y="601.2" type="line"/>
      <point x="366.1" y="261.3" type="line"/>
      <point x="439.90000000000003" y="261.3" type="line"/>
      <point x="252.39999999999998" y="714.0" type="line"/>
      <point x="210.8" y="714.0" type="line"/>
    </contour>
  </outline>
</glyph>
<glyph name="braceleft" format="2">
  <advance width="418.29999999999995"/>
  <unicode hex="007B"/>
  <outline>
    <contour>
      <point x="283.5" y="-124.3" type="curve" smooth="yes"/>
      <point x="380.5" y="-124.3" type="line"/>
      <point x="380.5" y="-68.89999999999999" type="line"/>
      <point x="341.9" y="-68.89999999999999" type="line" smooth="yes"/>
      <point x="292.90000000000003" y="-68.89999999999999"/>
      <point x="283.8" y="-34.9"/>
      <point x="283.8" y="26.7" type="curve" smooth="yes"/>
      <point x="283.8" y="197.7" type="line" smooth="yes"/>
      <point x="283.8" y="257.0"/>
      <point x="254.7" y="294.6"/>
      <point x="187.79999999999998" y="315.0" type="curve"/>
      <point x="187.79999999999998" y="324.4" type="line"/>
      <point x="257.1" y="343.1"/>
      <point x="283.8" y="380.7"/>
      <point x="283.8" y="440.0" type="curve" smooth="yes"/>
      <point x="283.8" y="610.0" type="line" smooth="yes"/>
      <point x="283.8" y="671.5999999999999"/>
      <point x="292.90000000000003" y="705.5999999999999"/>
      <point x="341.90000000000003" y="705.5999999999999" type="curve" smooth="yes"/>
      <point x="380.5" y="705.5999999999999" type="line"/>
      <point x="380.5" y="760.0" type="line"/>
      <point x="283.5" y="760.0" type="line" smooth="yes"/>
      <point x="176.1" y="760.0"/>
      <point x="120.6" y="707.0"/>
      <point x="120.6" y="613.3" type="curve" smooth="yes"/>
      <point x="120.6" y="442.0" type="line" smooth="yes"/>
      <point x="120.6" y="368.4"/>
      <point x="75.9" y="353.09999999999997"/>
      <point x="18.6" y="351.09999999999997" type="curve"/>
      <point x="18.6" y="286.6" type="line"/>
      <point x="75.9" y="283.6"/>
      <point x="120.6" y="270.0"/>
      <point x="120.6" y="194.7" type="curve" smooth="yes"/>
      <point x="120.6" y="24.4" type="line" smooth="yes"/>
      <point x="120.6" y="-67.3"/>
      <point x="176.1" y="-124.3"/>
    </contour>
  </outline>
</glyph>
<glyph name="braceright" format="2">
  <advance width="427.0"/>
  <unicode hex="007D"/>
  <outline>
    <contour>
      <point x="46.5" y="-124.3" type="line"/>
      <point x="143.20000000000002" y="-124.3" type="line" smooth="yes"/>
      <point x="251.3" y="-124.3"/>
      <point x="306.1" y="-67.3"/>
      <point x="306.1" y="24.4" type="curve" smooth="yes"/>
      <point x="306.1" y="194.7" type="line" smooth="yes"/>
      <point x="306.1" y="270.0"/>
      <point x="351.79999999999995" y="283.6"/>
      <point x="408.4" y="286.6" type="curve"/>
      <point x="408.4" y="351.09999999999997" type="line"/>
      <point x="351.79999999999995" y="353.09999999999997"/>
      <point x="306.1" y="368.4"/>
      <point x="306.1" y="442.0" type="curve" smooth="yes"/>
      <point x="306.1" y="613.3" type="line" smooth="yes"/>
      <point x="306.1" y="707.0"/>
      <point x="251.3" y="760.0"/>
      <point x="143.20000000000002" y="760.0" type="curve" smooth="yes"/>
      <point x="46.5" y="760.0" type="line"/>
      <point x="46.5" y="705.5999999999999" type="line"/>
      <point x="85.80000000000001" y="705.5999999999999" type="line" smooth="yes"/>
      <point x="134.39999999999998" y="705.5999999999999"/>
      <point x="143.20000000000002" y="671.5999999999999"/>
      <point x="143.20000000000002" y="610.0" type="curve" smooth="yes"/>
      <point x="143.20000000000002" y="440.0" type="line" smooth="yes"/>
      <point x="143.20000000000002" y="380.7"/>
      <point x="170.6" y="343.1"/>
      <point x="239.90000000000003" y="324.4" type="curve"/>
      <point x="239.90000000000003" y="315.0" type="line"/>
      <point x="172.29999999999998" y="294.6"/>
      <point x="143.20000000000002" y="257.0"/>
      <point x="143.20000000000002" y="197.7" type="curve" smooth="yes"/>
      <point x="143.20000000000002" y="26.7" type="line" smooth="yes"/>
      <point x="143.20000000000002" y="-34.9"/>
      <point x="134.39999999999998" y="-68.89999999999999"/>
      <point x="85.8" y="-68.89999999999999" type="curve" smooth="yes"/>
      <point x="46.5" y="-68.89999999999999" type="line"/>
    </contour>
  </outline>
</glyph>
<glyph name="asciitilde" format="2">
  <advance width="465.2"/>
  <unicode hex="007E"/>
  <outline>
    <contour>
      <point x="20.8" y="260.6" type="curve"/>
      <point x="93.80000000000001" y="260.6" type="line"/>
      <point x="94.7" y="344.29999999999995"/>
      <point x="111.60000000000001" y="376.59999999999997"/>
      <point x="143.10000000000002" y="376.59999999999997" type="curve" smooth="yes"/>
      <point x="164.1" y="376.59999999999997"/>
      <point x="176.6" y="363.20000000000005"/>
      <point x="211.6" y="325.59999999999997" type="curve" smooth="yes"/>
      <point x="260.3" y="273.9"/>
      <point x="287.5" y="260.6"/>
      <point x="324.5" y="260.6" type="curve" smooth="yes"/>
      <point x="417.2" y="260.6"/>
      <point x="443.29999999999995" y="346.09999999999997"/>
      <point x="444.8" y="452.4" type="curve"/>
      <point x="371.5" y="452.4" type="line"/>
      <point x="370.29999999999995" y="368.20000000000005"/>
      <point x="354.6" y="336.40000000000003"/>
      <point x="324.1" y="336.40000000000003" type="curve" smooth="yes"/>
      <point x="302.90000000000003" y="336.40000000000003"/>
      <point x="290.3" y="352.6"/>
      <point x="258.4" y="384.7" type="curve" smooth="yes"/>
      <point x="207.0" y="436.1"/>
      <point x="181.20000000000002" y="452.4"/>
      <point x="141.79999999999998" y="452.4" type="curve" smooth="yes"/>
      <point x="50.3" y="452.4"/>
      <point x="21.400000000000002" y="366.0"/>
    </contour>
  </outline>
</glyph>
<glyph name="multiply" format="2">
  <advance width="465.2"/>
  <unicode hex="00D7"/>
  <outline>
    <contour>
      <point x="103.60000000000001" y="162.1" type="line"/>
      <point x="231.39999999999998" y="305.2" type="line"/>
      <point x="358.1" y="164.20000000000002" type="line"/>
      <point x="410.90000000000003" y="212.1" type="line"/>
      <point x="279.29999999999995" y="359.4" type="line"/>
      <point x="410.90000000000003" y="505.7" type="line"/>
      <point x="357.1" y="553.5" type="line"/>
      <point x="231.39999999999998" y="413.5" type="line"/>
      <point x="104.3" y="555.3" type="line"/>
      <point x="50.199999999999996" y="507.8" type="line"/>
      <point x="183.2" y="359.7" type="line"/>
      <point x="50.199999999999996" y="210.3" type="line"/>
    </contour>
  </outline>
</glyph>
<glyph name="divide" format="2">
  <advance width="465.2"/>
  <unicode hex="00F7"/>
  <outline>
    <contour>
      <point x="43.300000000000004" y="321.3" type="line"/>
      <point x="421.90000000000003" y="321.3" type="line"/>
      <point x="421.90000000000003" y="393.7" type="line"/>
      <point x="43.300000000000004" y="393.7" type="line"/>
    </contour>
    <contour>
      <point x="233.1" y="106.3" type="curve" smooth="yes"/>
      <point x="262.0" y="106.3"/>
      <point x="285.59999999999997" y="122.3"/>
      <point x="285.59999999999997" y="168.0" type="curve" smooth="yes"/>
      <point x="285.59999999999997" y="214.7"/>
      <point x="262.0" y="229.7"/>
      <point x="233.1" y="229.7" type="curve" smooth="yes"/>
      <point x="201.8" y="229.7"/>
      <point x="179.9" y="214.7"/>
      <point x="179.9" y="168.0" type="curve" smooth="yes"/>
      <point x="179.9" y="122.3"/>
      <point x="201.8" y="106.3"/>
    </contour>
    <contour>
      <point x="233.1" y="485.3" type="curve" smooth="yes"/>
      <point x="262.0" y="485.3"/>
      <point x="285.59999999999997" y="501.29999999999995"/>
      <point x="285.59999999999997" y="547.0" type="curve" smooth="yes"/>
      <point x="285.59999999999997" y="593.6999999999999"/>
      <point x="262.0" y="608.6999999999999"/>
      <point x="233.1" y="608.6999999999999" type="curve" smooth="yes"/>
      <point x="201.8" y="608.6999999999999"/>
      <point x="179.9" y="593.6999999999999"/>
      <point x="179.9" y="547.0" type="curve" smooth="yes"/>
      <point x="179.9" y="501.29999999999995"/>
      <point x="201.8" y="485.3"/>
    </contour>
  </outline>
</glyph>
<glyph name="udatta-deva" format="2">
  <unicode hex="0951"/>
  <anchor x="-299.0" y="-280.0" name="_vedic"/>
  <outline>
    <contour>
      <point x="-354.6" y="706.0" type="line"/>
      <point x="-243.39999999999998" y="706.0" type="line"/>
      <point x="-243.39999999999998" y="922.3" type="line"/>
      <point x="-354.6" y="922.3" type="line"/>
    </contour>
  </outline>
</glyph>
<glyph name="anudatta-deva" format="2">
  <unicode hex="0952"/>
  <anchor x="-299.0" y="447.0" name="_vedic"/>
  <outline>
    <contour>
      <point x="-514.3000000000001" y="-165.0" type="line"/>
      <point x="-82.7" y="-165.0" type="line"/>
      <point x="-82.7" y="-79.0" type="line"/>
      <point x="-514.3000000000001" y="-79.0" type="line"/>
    </contour>
  </outline>
</glyph>
<glyph name="danda-deva" format="2">
  <advance width="397.5"/>
  <unicode hex="0964"/>
  <outline>
    <contour>
      <point x="337.5" y="-43.0" type="line"/>
      <point x="348.5" y="-40.0" type="line"/>
      <point x="348.5" y="591.0" type="line"/>
      <point x="236.5" y="628.0" type="line"/>
      <point x="233.5" y="628.0" type="line"/>
      <point x="233.5" y="-1.0" type="line"/>
    </contour>
  </outline>
</glyph>
<glyph name="dbldanda-deva" format="2">
  <advance width="576.7"/>
  <unicode hex="0965"/>
  <outline>
    <contour>
      <point x="516.7" y="-43.0" type="line"/>
      <point x="527.7" y="-40.0" type="line"/>
      <point x="527.7" y="591.0" type="line"/>
      <point x="415.7" y="628.0" type="line"/>
      <point x="412.7" y="628.0" type="line"/>
      <point x="412.7" y="-1.0" type="line"/>
    </contour>
    <contour>
      <point x="337.5" y="-43.0" type="line"/>
      <point x="348.5" y="-40.0" type="line"/>
      <point x="348.5" y="591.0" type="line"/>
      <point x="236.5" y="628.0" type="line"/>
      <point x="233.5" y="628.0" type="line"/>
      <point x="233.5" y="-1.0" type="line"/>
    </contour>
  </outline>
</glyph>
<glyph name="anji-beng" format="2">
  <advance width="567.5"/>
  <unicode hex="0980"/>
  <anchor x="298.29999999999995" y="592.0" name="top"/>
  <outline>
    <contour>
      <point x="471.0" y="-57.9" type="curve" smooth="yes"/>
      <point x="530.5" y="-57.9"/>
      <point x="565.1999999999999" y="-21.900000000000002"/>
      <point x="565.1999999999999" y="34.400000000000006" type="curve" smooth="yes"/>
      <point x="565.1999999999999" y="90.0"/>
      <point x="528.3000000000001" y="124.0"/>
      <point x="485.0" y="124.0" type="curve" smooth="yes"/>
      <point x="433.5" y="124.0"/>
      <point x="415.9" y="81.0"/>
      <point x="415.9" y="50.699999999999996" type="curve"/>
      <point x="466.20000000000005" y="42.4" type="line"/>
      <point x="466.20000000000005" y="461.7" type="line" smooth="yes"/>
      <point x="466.20000000000005" y="566.0"/>
      <point x="386.0" y="637.3"/>
      <point x="271.5" y="637.3" type="curve" smooth="yes"/>
      <point x="144.1" y="637.3"/>
      <point x="35.900000000000006" y="541.1"/>
      <point x="35.900000000000006" y="392.70000000000005" type="curve" smooth="yes"/>
      <point x="35.900000000000006" y="255.60000000000002"/>
      <point x="114.8" y="172.5"/>
      <point x="221.6" y="172.5" type="curve" smooth="yes"/>
      <point x="289.40000000000003" y="172.5"/>
      <point x="330.2" y="217.1"/>
      <point x="330.2" y="282.0" type="curve" smooth="yes"/>
      <point x="330.2" y="340.6"/>
      <point x="298.09999999999997" y="380.8"/>
      <point x="245.5" y="380.8" type="curve" smooth="yes"/>
      <point x="197.10000000000002" y="380.8"/>
      <point x="165.0" y="344.6"/>
      <point x="165.0" y="294.0" type="curve" smooth="yes"/>
      <point x="165.0" y="271.3"/>
      <point x="168.29999999999998" y="251.70000000000002"/>
      <point x="173.20000000000002" y="240.39999999999998" type="curve"/>
      <point x="225.29999999999998" y="265.7" type="line"/>
      <point x="212.7" y="262.7"/>
      <point x="199.1" y="261.7"/>
      <point x="187.5" y="261.7" type="curve" smooth="yes"/>
      <point x="158.60000000000002" y="261.7"/>
      <point x="140.60000000000002" y="290.0"/>
      <point x="140.60000000000002" y="349.9" type="curve" smooth="yes"/>
      <point x="140.60000000000002" y="453.8"/>
      <point x="243.9" y="521.6999999999999"/>
      <point x="305.6" y="521.6999999999999" type="curve" smooth="yes"/>
      <point x="341.3" y="521.6999999999999"/>
      <point x="354.0" y="503.40000000000003"/>
      <point x="354.0" y="464.6" type="curve" smooth="yes"/>
      <point x="354.0" y="84.6" type="line" smooth="yes"/>
      <point x="354.0" y="3.3"/>
      <point x="396.3" y="-57.9"/>
    </contour>
  </outline>
</glyph>
<glyph name="anusvara-beng" format="2">
  <advance width="362.0"/>
  <unicode hex="0982"/>
  <anchor x="-233.29999999999998" y="0.0" name="vedic"/>
  <outline>
    <contour>
      <point x="180.1" y="313.7" type="curve" smooth="yes"/>
      <point x="264.0" y="313.7"/>
      <point x="325.4" y="378.0"/>
      <point x="325.4" y="470.0" type="curve" smooth="yes"/>
      <point x="325.4" y="554.0"/>
      <point x="269.8" y="621.0"/>
      <point x="187.6" y="621.0" type="curve" smooth="yes"/>
      <point x="103.3" y="621.0"/>
      <point x="41.5" y="554.3"/>
      <point x="41.5" y="464.3" type="curve" smooth="yes"/>
      <point x="41.5" y="383.29999999999995"/>
      <point x="96.89999999999999" y="313.7"/>
    </contour>
    <contour>
      <point x="151.7" y="402.0" type="curve" smooth="yes"/>
      <point x="138.6" y="402.0"/>
      <point x="128.4" y="411.0"/>
      <point x="128.4" y="431.2" type="curve" smooth="yes"/>
      <point x="128.4" y="474.0"/>
      <point x="186.6" y="533.0"/>
      <point x="217.2" y="533.0" type="curve" smooth="yes"/>
      <point x="233.3" y="533.0"/>
      <point x="240.5" y="523.0"/>
      <point x="240.5" y="507.0" type="curve" smooth="yes"/>
      <point x="240.5" y="467.7"/>
      <point x="186.7" y="402.0"/>
    </contour>
    <contour>
      <point x="297.6" y="-88.0" type="curve"/>
      <point x="359.59999999999997" y="-67.0" type="line"/>
      <point x="292.5" y="96.0"/>
      <point x="208.6" y="226.0"/>
      <point x="111.4" y="285.0" type="curve"/>
      <point x="41.2" y="142.0" type="line"/>
      <point x="131.7" y="102.0"/>
      <point x="194.9" y="67.0"/>
    </contour>
  </outline>
</glyph>
<glyph name="visarga-beng" format="2">
  <advance width="374.70000000000005"/>
  <unicode hex="0983"/>
  <anchor x="-233.29999999999998" y="0.0" name="vedic"/>
  <outline>
    <contour>
      <point x="183.7" y="312.8" type="curve" smooth="yes"/>
      <point x="270.0" y="312.8"/>
      <point x="333.2" y="377.4"/>
      <point x="333.2" y="470.0" type="curve" smooth="yes"/>
      <point x="333.2" y="554.6"/>
      <point x="276.1" y="621.9"/>
      <point x="191.5" y="621.9" type="curve" smooth="yes"/>
      <point x="105.1" y="621.9"/>
      <point x="41.5" y="554.9"/>
      <point x="41.5" y="464.3" type="curve" smooth="yes"/>
      <point x="41.5" y="382.7"/>
      <point x="98.39999999999999" y="312.8"/>
    </contour>
    <contour>
      <point x="155.9" y="400.8" type="curve" smooth="yes"/>
      <point x="142.5" y="400.8"/>
      <point x="132.0" y="409.8"/>
      <point x="132.0" y="430.0" type="curve" smooth="yes"/>
      <point x="132.0" y="473.1"/>
      <point x="189.3" y="534.2"/>
      <point x="220.8" y="534.2" type="curve" smooth="yes"/>
      <point x="237.5" y="534.2"/>
      <point x="244.7" y="524.1999999999999"/>
      <point x="244.7" y="508.2" type="curve" smooth="yes"/>
      <point x="244.7" y="468.59999999999997"/>
      <point x="192.1" y="400.8"/>
    </contour>
    <contour>
      <point x="184.0" y="-37.800000000000004" type="curve" smooth="yes"/>
      <point x="269.40000000000003" y="-37.800000000000004"/>
      <point x="332.0" y="26.5"/>
      <point x="332.0" y="118.5" type="curve" smooth="yes"/>
      <point x="332.0" y="202.5"/>
      <point x="275.5" y="269.5"/>
      <point x="191.5" y="269.5" type="curve" smooth="yes"/>
      <point x="105.69999999999999" y="269.5"/>
      <point x="42.7" y="202.8"/>
      <point x="42.7" y="112.8" type="curve" smooth="yes"/>
      <point x="42.7" y="31.799999999999997"/>
      <point x="99.0" y="-37.800000000000004"/>
    </contour>
    <contour>
      <point x="156.2" y="49.6" type="curve" smooth="yes"/>
      <point x="142.8" y="49.6"/>
      <point x="132.3" y="58.6"/>
      <point x="132.3" y="78.8" type="curve" smooth="yes"/>
      <point x="132.3" y="121.6"/>
      <point x="189.3" y="182.4"/>
      <point x="220.5" y="182.4" type="curve" smooth="yes"/>
      <point x="236.9" y="182.4"/>
      <point x="244.4" y="172.4"/>
      <point x="244.4" y="156.4" type="curve" smooth="yes"/>
      <point x="244.4" y="117.1"/>
      <point x="192.1" y="49.6"/>
    </contour>
  </outline>
</glyph>
<glyph name="aa-beng" format="2">
  <advance width="1010.4000000000001"/>
  <unicode hex="0986"/>
  <anchor x="709.9" y="0.0" name="bottom"/>
  <anchor x="709.2" y="100.0" name="bottom.rakaar"/>
  <anchor x="709.2" y="11.0" name="bottom.rvocalic"/>
  <anchor x="690.6" y="20.0" name="bottom.virama"/>
  <anchor x="956.3" y="536.0" name="top"/>
  <anchor x="956.3" y="523.0" name="topright"/>
  <anchor x="504.7" y="0.0" name="vedic"/>
  <outline>
    <contour>
      <point x="699.6" y="-32.0" type="line"/>
      <point x="710.6" y="-29.0" type="line"/>
      <point x="710.6" y="536.0" type="line"/>
      <point x="785.9" y="536.0" type="line"/>
      <point x="739.5999999999999" y="622.0" type="line"/>
      <point x="-36.2" y="622.0" type="line"/>
      <point x="9.399999999999999" y="536.0" type="line"/>
      <point x="598.4000000000001" y="536.0" type="line"/>
      <point x="598.4000000000001" y="99.60000000000001" type="line"/>
      <point x="618.8" y="104.7" type="line"/>
      <point x="591.6999999999999" y="170.0"/>
      <point x="554.9" y="212.8"/>
      <point x="518.2" y="239.5" type="curve"/>
      <point x="477.29999999999995" y="138.5" type="line"/>
      <point x="533.8" y="110.19999999999999"/>
      <point x="582.0" y="70.5"/>
      <point x="621.3" y="12.600000000000001" type="curve"/>
    </contour>
    <contour>
      <point x="345.1" y="17.6" type="curve" smooth="yes"/>
      <point x="442.5" y="17.6"/>
      <point x="552.0" y="80.0"/>
      <point x="552.0" y="258.0" type="curve" smooth="yes"/>
      <point x="552.0" y="391.0"/>
      <point x="475.0" y="493.0"/>
      <point x="330.2" y="493.0" type="curve" smooth="yes"/>
      <point x="238.5" y="493.0"/>
      <point x="187.4" y="438.0"/>
      <point x="187.4" y="360.0" type="curve" smooth="yes"/>
      <point x="187.4" y="292.0"/>
      <point x="232.60000000000002" y="237.0"/>
      <point x="306.4" y="237.0" type="curve" smooth="yes"/>
      <point x="376.5" y="237.0"/>
      <point x="413.4" y="287.0"/>
      <point x="413.4" y="354.0" type="curve" smooth="yes"/>
      <point x="413.4" y="451.3"/>
      <point x="340.9" y="521.0"/>
      <point x="297.4" y="553.0" type="curve"/>
      <point x="100.5" y="552.0" type="line"/>
      <point x="260.59999999999997" y="521.0"/>
      <point x="319.5" y="434.0"/>
      <point x="330.5" y="344.0" type="curve"/>
      <point x="339.4" y="351.0"/>
      <point x="363.40000000000003" y="364.0"/>
      <point x="388.7" y="364.0" type="curve" smooth="yes"/>
      <point x="429.4" y="364.0"/>
      <point x="471.09999999999997" y="340.0"/>
      <point x="471.09999999999997" y="278.0" type="curve" smooth="yes"/>
      <point x="471.09999999999997" y="205.0"/>
      <point x="412.0" y="174.6"/>
      <point x="340.20000000000005" y="174.6" type="curve" smooth="yes"/>
      <point x="231.6" y="174.6"/>
      <point x="137.3" y="244.0"/>
      <point x="72.7" y="470.0" type="curve"/>
      <point x="6.6" y="455.0" type="line"/>
      <point x="73.1" y="163.0"/>
      <point x="170.4" y="17.6"/>
    </contour>
    <contour>
      <point x="943.2" y="-43.0" type="line"/>
      <point x="954.1999999999999" y="-40.0" type="line"/>
      <point x="954.1999999999999" y="536.0" type="line"/>
      <point x="1046.6" y="536.0" type="line"/>
      <point x="1000.0" y="622.0" type="line"/>
      <point x="941.5" y="622.0" type="line"/>
      <point x="931.5" y="686.0" type="line"/>
      <point x="853.8" y="724.0" type="line"/>
      <point x="844.8" y="720.0" type="line"/>
      <point x="844.8" y="637.8" type="line" smooth="yes"/>
      <point x="844.8" y="600.7"/>
      <point x="848.2" y="556.6"/>
      <point x="852.0999999999999" y="525.0" type="curve"/>
      <point x="861.6" y="526.6" type="line"/>
      <point x="845.7" y="595.8"/>
      <point x="828.0" y="622.0"/>
      <point x="779.4" y="622.0" type="curve" smooth="yes"/>
      <point x="722.9" y="622.0" type="line"/>
      <point x="770.1999999999999" y="536.0" type="line"/>
      <point x="804.4" y="536.0" type="line" smooth="yes"/>
      <point x="825.8" y="536.0"/>
      <point x="836.6999999999999" y="510.7"/>
      <point x="842.0" y="480.5" type="curve"/>
      <point x="842.0" y="-1.0" type="line"/>
    </contour>
  </outline>
</glyph>
<glyph name="i-beng" format="2">
  <advance width="489.7"/>
  <unicode hex="0987"/>
  <anchor x="330.0" y="25.0" name="bottom"/>
  <anchor x="463.0" y="-100.0" name="bottom.rakaar"/>
  <anchor x="423.0" y="18.0" name="bottom.rvocalic"/>
  <anchor x="323.0" y="30.0" name="bottom.virama"/>
  <anchor x="367.0" y="605.0" name="top"/>
  <anchor x="315.0" y="604.0" name="topright"/>
  <anchor x="244.5" y="0.0" name="vedic"/>
  <outline>
    <contour>
      <point x="380.09999999999997" y="588.0" type="curve"/>
      <point x="447.20000000000005" y="588.0" type="line"/>
      <point x="442.09999999999997" y="749.5999999999999"/>
      <point x="383.3" y="825.4"/>
      <point x="284.3" y="825.4" type="curve" smooth="yes"/>
      <point x="228.70000000000002" y="825.4"/>
      <point x="192.10000000000002" y="815.0"/>
      <point x="138.70000000000002" y="815.0" type="curve" smooth="yes"/>
      <point x="68.7" y="815.0"/>
      <point x="43.3" y="842.8"/>
      <point x="43.3" y="895.6" type="curve" smooth="yes"/>
      <point x="43.3" y="907.9"/>
      <point x="44.3" y="923.1999999999999"/>
      <point x="46.3" y="936.5999999999999" type="curve"/>
      <point x="-8.9" y="943.5999999999999" type="line"/>
      <point x="-14.9" y="917.6"/>
      <point x="-18.199999999999996" y="886.5999999999999"/>
      <point x="-18.199999999999996" y="855.9" type="curve" smooth="yes"/>
      <point x="-18.199999999999996" y="753.6"/>
      <point x="37.8" y="683.4"/>
      <point x="147.8" y="683.4" type="curve" smooth="yes"/>
      <point x="213.5" y="683.4"/>
      <point x="254.9" y="694.6999999999999"/>
      <point x="295.3" y="694.6999999999999" type="curve" smooth="yes"/>
      <point x="343.5" y="694.6999999999999"/>
      <point x="376.20000000000005" y="676.7"/>
    </contour>
    <component base="ha-beng"/>
  </outline>
</glyph>
<glyph name="ii-beng" format="2">
  <advance width="673.9"/>
  <unicode hex="0988"/>
  <anchor x="601.6" y="-30.0" name="bottom"/>
  <anchor x="605.6" y="30.0" name="bottom.rakaar"/>
  <anchor x="598.4" y="-57.0" name="bottom.rvocalic"/>
  <anchor x="592.0" y="-65.0" name="bottom.virama"/>
  <anchor x="420.1" y="605.0" name="top"/>
  <anchor x="373.0" y="604.0" name="topright"/>
  <anchor x="336.6" y="0.0" name="vedic"/>
  <outline>
    <contour>
      <point x="556.9" y="-108.39999999999999" type="curve"/>
      <point x="613.6" y="-85.7" type="line"/>
      <point x="591.2" y="-9.200000000000003"/>
      <point x="585.3" y="34.4"/>
      <point x="585.3" y="97.8" type="curve" smooth="yes"/>
      <point x="585.3" y="193.9"/>
      <point x="612.6" y="293.1"/>
      <point x="655.2" y="372.0" type="curve"/>
      <point x="516.0" y="486.0" type="line"/>
      <point x="436.6" y="432.7"/>
      <point x="389.5" y="351.0"/>
      <point x="349.0" y="274.0" type="curve"/>
      <point x="378.70000000000005" y="209.0" type="line"/>
      <point x="385.7" y="234.29999999999998"/>
      <point x="387.7" y="260.59999999999997"/>
      <point x="387.7" y="288.0" type="curve" smooth="yes"/>
      <point x="387.7" y="396.0"/>
      <point x="342.5" y="490.0"/>
      <point x="185.9" y="490.0" type="curve" smooth="yes"/>
      <point x="97.9" y="490.0"/>
      <point x="44.7" y="445.0"/>
      <point x="44.7" y="372.0" type="curve" smooth="yes"/>
      <point x="44.7" y="296.7"/>
      <point x="98.0" y="259.0"/>
      <point x="157.5" y="259.0" type="curve" smooth="yes"/>
      <point x="219.6" y="259.0"/>
      <point x="265.6" y="301.90000000000003"/>
      <point x="264.2" y="382.0" type="curve" smooth="yes"/>
      <point x="262.8" y="462.70000000000005"/>
      <point x="211.3" y="529.0"/>
      <point x="183.9" y="543.0" type="curve"/>
      <point x="31.0" y="543.0" type="line"/>
      <point x="76.1" y="529.0"/>
      <point x="132.29999999999998" y="501.3"/>
      <point x="182.0" y="455.0" type="curve"/>
      <point x="168.89999999999998" y="357.0" type="line"/>
      <point x="179.7" y="376.0"/>
      <point x="216.0" y="390.0"/>
      <point x="237.8" y="390.0" type="curve" smooth="yes"/>
      <point x="286.1" y="390.0"/>
      <point x="314.3" y="360.90000000000003"/>
      <point x="314.3" y="306.9" type="curve" smooth="yes"/>
      <point x="314.3" y="268.2"/>
      <point x="304.20000000000005" y="230.8"/>
      <point x="285.6" y="199.0" type="curve" smooth="yes"/>
      <point x="266.1" y="165.0"/>
      <point x="237.9" y="142.20000000000002"/>
      <point x="201.60000000000002" y="142.20000000000002" type="curve" smooth="yes"/>
      <point x="160.20000000000002" y="142.20000000000002"/>
      <point x="133.0" y="173.5"/>
      <point x="106.39999999999999" y="222.60000000000002" type="curve"/>
      <point x="45.800000000000004" y="192.6" type="line"/>
      <point x="87.3" y="86.6"/>
      <point x="149.4" y="-6.399999999999999"/>
      <point x="248.6" y="-6.399999999999999" type="curve" smooth="yes"/>
      <point x="332.4" y="-6.399999999999999"/>
      <point x="387.59999999999997" y="92.3"/>
      <point x="446.90000000000003" y="189.9" type="curve" smooth="yes"/>
      <point x="485.2" y="252.0"/>
      <point x="527.2" y="324.59999999999997"/>
      <point x="575.1" y="359.0" type="curve"/>
      <point x="534.0" y="376.8" type="line"/>
      <point x="503.40000000000003" y="299.7"/>
      <point x="487.79999999999995" y="234.0"/>
      <point x="487.79999999999995" y="148.7" type="curve" smooth="yes"/>
      <point x="487.79999999999995" y="43.2"/>
      <point x="522.0" y="-41.7"/>
    </contour>
    <contour>
      <point x="9.399999999999999" y="536.0" type="line"/>
      <point x="710.1" y="536.0" type="line"/>
      <point x="665.5" y="622.0" type="line"/>
      <point x="-36.2" y="622.0" type="line"/>
    </contour>
    <contour>
      <point x="512.9" y="588.0" type="curve"/>
      <point x="582.8000000000001" y="588.0" type="line"/>
      <point x="572.4000000000001" y="737.0"/>
      <point x="520.7" y="831.7"/>
      <point x="387.2" y="831.7" type="curve" smooth="yes"/>
      <point x="309.8" y="831.7"/>
      <point x="287.5" y="815.0"/>
      <point x="194.0" y="815.0" type="curve" smooth="yes"/>
      <point x="122.5" y="815.0"/>
      <point x="96.10000000000001" y="842.8"/>
      <point x="96.10000000000001" y="895.6" type="curve" smooth="yes"/>
      <point x="96.10000000000001" y="907.9"/>
      <point x="97.10000000000001" y="923.2"/>
      <point x="99.10000000000001" y="936.6" type="curve"/>
      <point x="43.2" y="943.6" type="line"/>
      <point x="37.2" y="917.6"/>
      <point x="33.2" y="886.6"/>
      <point x="33.2" y="858.3" type="curve" smooth="yes"/>
      <point x="33.2" y="756.0"/>
      <point x="89.60000000000001" y="683.4"/>
      <point x="217.7" y="683.4" type="curve" smooth="yes"/>
      <point x="300.7" y="683.4"/>
      <point x="342.3" y="703.1"/>
      <point x="408.90000000000003" y="703.1" type="curve" smooth="yes"/>
      <point x="478.1" y="703.1"/>
      <point x="505.8" y="676.0"/>
    </contour>
  </outline>
</glyph>
<glyph name="u-beng" format="2">
  <advance width="583.4000000000001"/>
  <unicode hex="0989"/>
  <anchor x="464.59999999999997" y="-23.9" name="bottom"/>
  <anchor x="526.7" y="-11.0" name="bottom.rakaar"/>
  <anchor x="455.79999999999995" y="4.1" name="bottom.rvocalic"/>
  <anchor x="395.0" y="-10.3" name="bottom.virama"/>
  <anchor x="389.9" y="597.7" name="top"/>
  <anchor x="322.8" y="604.7" name="topright"/>
  <anchor x="291.7" y="0.0" name="vedic"/>
  <anchor x="316.1" y="-142.0" name="nukta"/>
  <outline>
    <contour>
      <point x="460.40000000000003" y="587.7" type="curve"/>
      <point x="528.9" y="587.7" type="line"/>
      <point x="520.1" y="749.3000000000001"/>
      <point x="461.3" y="825.8000000000001"/>
      <point x="350.6" y="825.8000000000001" type="curve" smooth="yes"/>
      <point x="290.7" y="825.8000000000001"/>
      <point x="257.5" y="814.7"/>
      <point x="202.0" y="814.7" type="curve" smooth="yes"/>
      <point x="126.6" y="814.7"/>
      <point x="100.2" y="842.5"/>
      <point x="100.2" y="895.3" type="curve" smooth="yes"/>
      <point x="100.2" y="907.6"/>
      <point x="101.2" y="922.9"/>
      <point x="103.2" y="936.3" type="curve"/>
      <point x="47.3" y="943.3" type="line"/>
      <point x="41.3" y="917.3000000000001"/>
      <point x="37.3" y="886.3"/>
      <point x="37.3" y="858.0" type="curve" smooth="yes"/>
      <point x="37.3" y="755.7"/>
      <point x="93.4" y="683.1"/>
      <point x="216.9" y="683.1" type="curve" smooth="yes"/>
      <point x="282.29999999999995" y="683.1"/>
      <point x="323.90000000000003" y="695.1"/>
      <point x="361.5" y="695.1" type="curve" smooth="yes"/>
      <point x="419.90000000000003" y="695.1"/>
      <point x="453.5" y="677.8"/>
    </contour>
    <component base="dda-beng"/>
  </outline>
</glyph>
<glyph name="uu-beng" format="2">
  <advance width="691.9"/>
  <unicode hex="098A"/>
  <anchor x="557.7" y="-36.0" name="bottom"/>
  <anchor x="621.1999999999999" y="-21.0" name="bottom.rakaar"/>
  <anchor x="548.9" y="-8.0" name="bottom.rvocalic"/>
  <anchor x="488.1" y="-21.0" name="bottom.virama"/>
  <anchor x="455.7" y="602.0" name="top"/>
  <anchor x="434.2" y="604.0" name="topright"/>
  <anchor x="345.8" y="0.0" name="vedic"/>
  <outline>
    <contour>
      <point x="423.59999999999997" y="-29.4" type="curve" smooth="yes"/>
      <point x="602.1" y="-29.4"/>
      <point x="679.2" y="76.5"/>
      <point x="679.2" y="229.8" type="curve" smooth="yes"/>
      <point x="679.2" y="343.5"/>
      <point x="634.7" y="425.3"/>
      <point x="579.5999999999999" y="478.29999999999995" type="curve"/>
      <point x="525.3" y="390.70000000000005"/>
      <point x="480.09999999999997" y="354.3"/>
      <point x="450.09999999999997" y="354.3" type="curve" smooth="yes"/>
      <point x="436.6" y="354.3"/>
      <point x="419.3" y="360.3"/>
      <point x="419.3" y="386.3" type="curve" smooth="yes"/>
      <point x="419.3" y="536.0" type="line"/>
      <point x="728.1" y="536.0" type="line"/>
      <point x="680.5" y="622.0" type="line"/>
      <point x="-36.2" y="622.0" type="line"/>
      <point x="11.399999999999999" y="536.0" type="line"/>
      <point x="307.1" y="536.0" type="line"/>
      <point x="307.1" y="372.8" type="line" smooth="yes"/>
      <point x="307.1" y="317.5"/>
      <point x="322.5" y="280.7"/>
      <point x="350.5" y="251.3" type="curve" smooth="yes"/>
      <point x="379.79999999999995" y="220.6"/>
      <point x="412.9" y="205.3"/>
      <point x="459.59999999999997" y="205.3" type="curve" smooth="yes"/>
      <point x="520.9" y="205.3"/>
      <point x="591.0" y="254.20000000000002"/>
      <point x="630.4" y="331.90000000000003" type="curve"/>
      <point x="570.8" y="334.3" type="line"/>
      <point x="589.3000000000001" y="310.9"/>
      <point x="602.4000000000001" y="281.90000000000003"/>
      <point x="602.4000000000001" y="249.89999999999998" type="curve" smooth="yes"/>
      <point x="602.4000000000001" y="172.20000000000002"/>
      <point x="541.6" y="124.60000000000001"/>
      <point x="449.5" y="124.6" type="curve" smooth="yes"/>
      <point x="283.8" y="124.6"/>
      <point x="239.79999999999998" y="268.6"/>
      <point x="184.70000000000002" y="486.6" type="curve"/>
      <point x="122.8" y="470.6" type="line"/>
      <point x="145.9" y="307.6"/>
      <point x="182.7" y="195.6"/>
      <point x="226.1" y="107.6" type="curve"/>
      <point x="272.4" y="118.6" type="line"/>
      <point x="177.7" y="152.6"/>
      <point x="119.2" y="271.0"/>
      <point x="57.8" y="476.6" type="curve"/>
      <point x="-3.0999999999999996" y="460.6" type="line"/>
      <point x="54.2" y="141.6"/>
      <point x="188.0" y="-29.4"/>
    </contour>
    <contour>
      <point x="568.8" y="588.0" type="curve"/>
      <point x="638.6999999999999" y="588.0" type="line"/>
      <point x="627.0999999999999" y="737.0"/>
      <point x="559.0" y="830.8"/>
      <point x="422.20000000000005" y="830.8" type="curve" smooth="yes"/>
      <point x="340.0" y="830.8"/>
      <point x="300.59999999999997" y="813.8"/>
      <point x="197.2" y="813.8" type="curve" smooth="yes"/>
      <point x="122.7" y="813.8"/>
      <point x="97.5" y="842.8"/>
      <point x="97.5" y="895.6" type="curve" smooth="yes"/>
      <point x="97.5" y="907.9"/>
      <point x="98.5" y="923.1999999999999"/>
      <point x="100.5" y="936.5999999999999" type="curve"/>
      <point x="44.6" y="943.5999999999999" type="line"/>
      <point x="38.6" y="917.6"/>
      <point x="34.6" y="886.6"/>
      <point x="34.6" y="858.3" type="curve" smooth="yes"/>
      <point x="34.6" y="756.0"/>
      <point x="88.89999999999999" y="682.8000000000001"/>
      <point x="223.6" y="682.8000000000001" type="curve" smooth="yes"/>
      <point x="310.2" y="682.8000000000001"/>
      <point x="373.4" y="702.8000000000001"/>
      <point x="442.7" y="702.8000000000001" type="curve" smooth="yes"/>
      <point x="514.3" y="702.8000000000001"/>
      <point x="560.5" y="676.0"/>
    </contour>
  </outline>
</glyph>
<glyph name="rVocalic-beng" format="2">
  <advance width="741.7"/>
  <unicode hex="098B"/>
  <anchor x="513.3" y="0.0" name="bottom"/>
  <anchor x="513.3" y="100.0" name="bottom.rakaar"/>
  <anchor x="452.40000000000003" y="101.3" name="bottom.rvocalic"/>
  <anchor x="494.7" y="20.0" name="bottom.virama"/>
  <anchor x="513.3" y="536.0" name="top"/>
  <anchor x="516.3" y="536.0" name="topright"/>
  <anchor x="370.5" y="0.0" name="vedic"/>
  <outline>
    <contour>
      <point x="502.3" y="-35.9" type="line"/>
      <point x="513.3" y="-32.9" type="line"/>
      <point x="513.3" y="636.0" type="line"/>
      <point x="409.4" y="694.0" type="line"/>
      <point x="401.1" y="690.0" type="line"/>
      <point x="401.1" y="424.2" type="line"/>
      <point x="412.0" y="489.09999999999997" type="line"/>
      <point x="294.2" y="450.5"/>
      <point x="151.0" y="381.79999999999995"/>
      <point x="63.8" y="325.5" type="curve"/>
      <point x="137.6" y="169.0" type="line"/>
      <point x="247.5" y="154.0"/>
      <point x="357.9" y="107.1"/>
      <point x="424.0" y="8.7" type="curve"/>
    </contour>
    <contour>
      <point x="401.1" y="95.7" type="line"/>
      <point x="421.5" y="100.80000000000001" type="line"/>
      <point x="376.1" y="210.3"/>
      <point x="286.09999999999997" y="255.70000000000002"/>
      <point x="212.7" y="276.0" type="curve"/>
      <point x="226.6" y="229.9" type="line"/>
      <point x="276.2" y="268.1"/>
      <point x="361.29999999999995" y="309.0"/>
      <point x="421.1" y="327.5" type="curve"/>
      <point x="401.1" y="376.40000000000003" type="line"/>
    </contour>
    <contour>
      <point x="128.0" y="413.4" type="curve" smooth="yes"/>
      <point x="186.5" y="413.4"/>
      <point x="277.5" y="444.5"/>
      <point x="325.90000000000003" y="527.0" type="curve"/>
      <point x="288.0" y="527.0" type="line"/>
      <point x="305.1" y="507.7"/>
      <point x="331.0" y="478.4"/>
      <point x="345.4" y="441.0" type="curve"/>
      <point x="402.0" y="455.0" type="line"/>
      <point x="383.0" y="523.0"/>
      <point x="338.8" y="603.0"/>
      <point x="280.0" y="639.0" type="curve"/>
      <point x="244.2" y="575.9"/>
      <point x="185.70000000000002" y="524.2"/>
      <point x="116.3" y="524.2" type="curve" smooth="yes"/>
      <point x="105.2" y="524.2"/>
      <point x="91.9" y="526.1"/>
      <point x="82.4" y="530.0" type="curve"/>
      <point x="137.5" y="482.7" type="line"/>
      <point x="157.1" y="500.7"/>
      <point x="164.1" y="517.7"/>
      <point x="164.1" y="547.7" type="curve" smooth="yes"/>
      <point x="164.1" y="584.7"/>
      <point x="141.2" y="621.7"/>
      <point x="87.39999999999999" y="621.7" type="curve" smooth="yes"/>
      <point x="35.4" y="621.7"/>
      <point x="1.799999999999999" y="585.7"/>
      <point x="1.799999999999999" y="532.6999999999999" type="curve" smooth="yes"/>
      <point x="1.799999999999999" y="455.4"/>
      <point x="53.0" y="413.4"/>
    </contour>
    <contour>
      <point x="674.5" y="38.7" type="line"/>
      <point x="685.5" y="41.7" type="line"/>
      <point x="685.5" y="536.0" type="line"/>
      <point x="777.9000000000001" y="536.0" type="line"/>
      <point x="731.3000000000001" y="622.0" type="line"/>
      <point x="672.8" y="622.0" type="line"/>
      <point x="662.8" y="686.0" type="line"/>
      <point x="585.1" y="724.0" type="line"/>
      <point x="576.1" y="720.0" type="line"/>
      <point x="576.1" y="172.4" type="line"/>
      <point x="596.5" y="177.8" type="line"/>
      <point x="567.4" y="254.2"/>
      <point x="526.6" y="295.1"/>
      <point x="475.5" y="326.7" type="curve"/>
      <point x="461.7" y="207.79999999999998" type="line"/>
      <point x="518.0" y="179.6"/>
      <point x="562.5" y="144.0"/>
      <point x="599.0" y="83.60000000000001" type="curve"/>
    </contour>
  </outline>
</glyph>
<glyph name="lVocalic-beng" format="2">
  <advance width="519.9"/>
  <unicode hex="098C"/>
  <anchor x="421.09999999999997" y="536.0" name="top"/>
  <anchor x="259.8" y="0.0" name="vedic"/>
  <outline>
    <contour>
      <point x="291.1" y="-29.0" type="line"/>
      <point x="385.0" y="-18.0"/>
      <point x="509.8" y="50.300000000000004"/>
      <point x="509.8" y="259.6" type="curve" smooth="yes"/>
      <point x="509.8" y="401.6"/>
      <point x="438.3" y="469.9"/>
      <point x="291.3" y="504.2" type="curve" smooth="yes"/>
      <point x="199.5" y="526.1999999999999"/>
      <point x="144.5" y="538.6999999999999"/>
      <point x="144.5" y="616.0" type="curve" smooth="yes"/>
      <point x="144.5" y="648.0"/>
      <point x="149.79999999999998" y="670.0"/>
      <point x="161.79999999999998" y="699.0" type="curve"/>
      <point x="102.39999999999999" y="718.0" type="line"/>
      <point x="84.5" y="684.8000000000001"/>
      <point x="57.900000000000006" y="629.4"/>
      <point x="57.900000000000006" y="556.4" type="curve" smooth="yes"/>
      <point x="57.900000000000006" y="437.0"/>
      <point x="130.9" y="395.0"/>
      <point x="248.7" y="367.0" type="curve" smooth="yes"/>
      <point x="360.9" y="340.0"/>
      <point x="428.20000000000005" y="331.0"/>
      <point x="428.20000000000005" y="225.0" type="curve" smooth="yes"/>
      <point x="428.20000000000005" y="146.7"/>
      <point x="392.5" y="106.0"/>
      <point x="337.1" y="104.0" type="curve"/>
      <point x="399.09999999999997" y="69.0" type="line"/>
      <point x="399.4" y="218.0"/>
      <point x="324.5" y="333.0"/>
      <point x="196.2" y="333.0" type="curve" smooth="yes"/>
      <point x="75.1" y="333.0"/>
      <point x="25.9" y="241.1"/>
      <point x="25.9" y="148.5" type="curve" smooth="yes"/>
      <point x="25.9" y="39.4"/>
      <point x="80.0" y="-15.0"/>
      <point x="150.7" y="-15.0" type="curve" smooth="yes"/>
      <point x="210.29999999999998" y="-15.0"/>
      <point x="236.9" y="23.5"/>
      <point x="236.9" y="77.7" type="curve" smooth="yes"/>
      <point x="236.9" y="130.7"/>
      <point x="205.4" y="164.0"/>
      <point x="157.89999999999998" y="164.0" type="curve" smooth="yes"/>
      <point x="116.0" y="164.0"/>
      <point x="83.4" y="134.0"/>
      <point x="84.4" y="94.0" type="curve"/>
      <point x="147.2" y="86.0" type="line"/>
      <point x="128.6" y="92.0"/>
      <point x="115.69999999999999" y="109.7"/>
      <point x="115.69999999999999" y="141.0" type="curve" smooth="yes"/>
      <point x="115.69999999999999" y="177.0"/>
      <point x="139.5" y="204.0"/>
      <point x="179.89999999999998" y="204.0" type="curve" smooth="yes"/>
      <point x="261.2" y="204.0"/>
      <point x="288.09999999999997" y="99.3"/>
      <point x="288.09999999999997" y="19.0" type="curve" smooth="yes"/>
      <point x="288.09999999999997" y="5.7"/>
      <point x="287.1" y="-7.3"/>
      <point x="284.1" y="-22.0" type="curve"/>
    </contour>
  </outline>
</glyph>
<glyph name="e-beng" format="2">
  <advance width="625.9000000000001"/>
  <unicode hex="098F"/>
  <anchor x="574.2" y="0.0" name="bottom"/>
  <anchor x="574.2" y="-10.0" name="bottom.rvocalic"/>
  <anchor x="555.6" y="10.0" name="bottom.virama"/>
  <anchor x="492.0" y="536.0" name="top"/>
  <anchor x="495.0" y="536.0" name="topright"/>
  <anchor x="312.59999999999997" y="0.0" name="vedic"/>
  <outline>
    <contour>
      <point x="563.9" y="-41.0" type="line"/>
      <point x="574.9000000000001" y="-38.0" type="line"/>
      <point x="574.9000000000001" y="475.0" type="line" smooth="yes"/>
      <point x="574.9000000000001" y="568.0"/>
      <point x="514.6" y="633.0"/>
      <point x="413.5" y="633.0" type="curve" smooth="yes"/>
      <point x="290.8" y="633.0"/>
      <point x="171.7" y="525.0"/>
      <point x="171.7" y="385.0" type="curve" smooth="yes"/>
      <point x="171.7" y="298.0"/>
      <point x="231.6" y="249.0"/>
      <point x="302.4" y="249.0" type="curve" smooth="yes"/>
      <point x="370.1" y="249.0"/>
      <point x="410.7" y="298.0"/>
      <point x="410.7" y="357.0" type="curve" smooth="yes"/>
      <point x="410.7" y="411.0"/>
      <point x="376.8" y="446.0"/>
      <point x="333.4" y="446.0" type="curve" smooth="yes"/>
      <point x="310.5" y="446.0"/>
      <point x="290.29999999999995" y="434.0"/>
      <point x="278.0" y="415.0" type="curve"/>
      <point x="346.5" y="407.0" type="line"/>
      <point x="348.90000000000003" y="485.0"/>
      <point x="393.5" y="537.0"/>
      <point x="433.7" y="537.0" type="curve" smooth="yes"/>
      <point x="451.4" y="537.0"/>
      <point x="462.7" y="523.0"/>
      <point x="462.7" y="500.0" type="curve" smooth="yes"/>
      <point x="462.7" y="271.0" type="line" smooth="yes"/>
      <point x="462.7" y="215.39999999999998"/>
      <point x="468.7" y="136.0"/>
      <point x="477.7" y="98.0" type="curve"/>
      <point x="433.9" y="187.20000000000002"/>
      <point x="385.5" y="203.3"/>
      <point x="328.70000000000005" y="203.3" type="curve" smooth="yes"/>
      <point x="289.40000000000003" y="203.3"/>
      <point x="250.1" y="194.3"/>
      <point x="203.2" y="194.3" type="curve" smooth="yes"/>
      <point x="137.3" y="194.3"/>
      <point x="95.30000000000001" y="232.4"/>
      <point x="95.30000000000001" y="316.0" type="curve" smooth="yes"/>
      <point x="95.30000000000001" y="341.3"/>
      <point x="98.39999999999999" y="371.1"/>
      <point x="107.4" y="405.1" type="curve"/>
      <point x="45.0" y="415.1" type="line"/>
      <point x="30.7" y="366.4"/>
      <point x="23.0" y="310.5"/>
      <point x="23.0" y="258.0" type="curve" smooth="yes"/>
      <point x="23.0" y="95.39999999999999"/>
      <point x="112.9" y="34.099999999999994"/>
      <point x="214.20000000000002" y="34.099999999999994" type="curve" smooth="yes"/>
      <point x="283.7" y="34.099999999999994"/>
      <point x="339.0" y="56.099999999999994"/>
      <point x="390.29999999999995" y="56.099999999999994" type="curve" smooth="yes"/>
      <point x="425.9" y="56.099999999999994"/>
      <point x="463.1" y="42.0"/>
      <point x="495.6" y="-4.0" type="curve"/>
    </contour>
  </outline>
</glyph>
<glyph name="ai-beng" format="2">
  <advance width="719.3"/>
  <unicode hex="0990"/>
  <anchor x="525.6" y="606.0" name="top"/>
  <anchor x="476.1" y="596.0" name="topright"/>
  <anchor x="359.5" y="0.0" name="vedic"/>
  <anchor x="574.2" y="0.0" name="bottom"/>
  <anchor x="574.2" y="-10.0" name="bottom.rvocalic"/>
  <anchor x="555.6" y="10.0" name="bottom.virama"/>
  <outline>
    <contour>
      <point x="548.0" y="287.0" type="line"/>
      <point x="621.9" y="359.5"/>
      <point x="674.8" y="441.70000000000005"/>
      <point x="674.8" y="563.1" type="curve" smooth="yes"/>
      <point x="674.8" y="744.9"/>
      <point x="533.1" y="778.0999999999999"/>
      <point x="410.40000000000003" y="801.6" type="curve" smooth="yes"/>
      <point x="312.8" y="820.4"/>
      <point x="220.5" y="838.6"/>
      <point x="220.5" y="927.4" type="curve" smooth="yes"/>
      <point x="220.5" y="957.1"/>
      <point x="227.79999999999998" y="990.1"/>
      <point x="240.7" y="1018.0" type="curve"/>
      <point x="177.7" y="1037.9" type="line"/>
      <point x="156.5" y="989.5"/>
      <point x="142.9" y="945.2"/>
      <point x="142.9" y="889.1" type="curve" smooth="yes"/>
      <point x="142.9" y="742.0999999999999"/>
      <point x="260.0" y="703.5"/>
      <point x="393.7" y="679.5" type="curve" smooth="yes"/>
      <point x="508.6" y="658.9"/>
      <point x="603.4" y="649.6999999999999"/>
      <point x="603.4" y="550.4" type="curve" smooth="yes"/>
      <point x="603.4" y="488.8"/>
      <point x="583.5" y="443.8"/>
      <point x="523.8000000000001" y="395.5" type="curve"/>
    </contour>
    <component base="e-beng"/>
  </outline>
</glyph>
<glyph name="o-beng" format="2">
  <advance width="665.8"/>
  <unicode hex="0993"/>
  <anchor x="527.5" y="-18.2" name="bottom"/>
  <anchor x="586.9" y="0.0" name="bottom.rakaar"/>
  <anchor x="521.0" y="7.1" name="bottom.rvocalic"/>
  <anchor x="463.90000000000003" y="-3.3" name="bottom.virama"/>
  <anchor x="453.9" y="496.5" name="top"/>
  <anchor x="456.9" y="496.5" name="topright"/>
  <anchor x="332.9" y="0.0" name="vedic"/>
  <outline>
    <contour>
      <point x="412.2" y="13.3" type="curve" smooth="yes"/>
      <point x="541.8" y="13.3"/>
      <point x="637.8000000000001" y="93.10000000000001"/>
      <point x="637.8000000000001" y="215.7" type="curve" smooth="yes"/>
      <point x="637.8000000000001" y="349.3"/>
      <point x="503.9" y="428.3"/>
      <point x="448.6" y="428.3" type="curve" smooth="yes"/>
      <point x="406.4" y="428.3"/>
      <point x="364.2" y="403.3"/>
      <point x="364.2" y="340.4" type="curve" smooth="yes"/>
      <point x="364.2" y="284.0"/>
      <point x="400.8" y="246.7"/>
      <point x="454.6" y="246.7" type="curve" smooth="yes"/>
      <point x="538.6" y="246.7"/>
      <point x="608.9" y="345.09999999999997"/>
      <point x="608.9" y="456.4" type="curve" smooth="yes"/>
      <point x="608.9" y="554.7"/>
      <point x="539.1999999999999" y="629.0"/>
      <point x="415.7" y="629.0" type="curve" smooth="yes"/>
      <point x="269.20000000000005" y="629.0"/>
      <point x="158.4" y="530.7"/>
      <point x="158.4" y="419.1" type="curve" smooth="yes"/>
      <point x="158.4" y="342.7"/>
      <point x="202.9" y="300.7"/>
      <point x="261.3" y="300.7" type="curve" smooth="yes"/>
      <point x="323.0" y="300.7"/>
      <point x="355.8" y="342.0"/>
      <point x="355.8" y="396.9" type="curve" smooth="yes"/>
      <point x="355.8" y="440.4"/>
      <point x="327.90000000000003" y="473.2"/>
      <point x="292.9" y="473.2" type="curve" smooth="yes"/>
      <point x="259.7" y="473.2"/>
      <point x="242.5" y="453.9"/>
      <point x="239.6" y="438.6" type="curve"/>
      <point x="311.6" y="403.9" type="line"/>
      <point x="320.2" y="491.1"/>
      <point x="396.5" y="540.5999999999999"/>
      <point x="453.7" y="540.5999999999999" type="curve" smooth="yes"/>
      <point x="487.4" y="540.5999999999999"/>
      <point x="503.20000000000005" y="525.7"/>
      <point x="503.20000000000005" y="499.8" type="curve" smooth="yes"/>
      <point x="503.20000000000005" y="465.1"/>
      <point x="478.59999999999997" y="416.0"/>
      <point x="433.5" y="403.3" type="curve"/>
      <point x="453.7" y="335.0" type="line"/>
      <point x="496.5" y="337.0"/>
      <point x="550.3" y="312.3"/>
      <point x="550.3" y="259.3" type="curve" smooth="yes"/>
      <point x="550.3" y="192.0"/>
      <point x="488.59999999999997" y="162.0"/>
      <point x="406.5" y="162.0" type="curve" smooth="yes"/>
      <point x="264.5" y="162.0"/>
      <point x="150.2" y="235.7"/>
      <point x="76.6" y="542.4" type="curve"/>
      <point x="10.9" y="526.4" type="line"/>
      <point x="74.89999999999999" y="175.7"/>
      <point x="205.6" y="13.3"/>
    </contour>
  </outline>
</glyph>
<glyph name="au-beng" format="2">
  <advance width="744.8"/>
  <unicode hex="0994"/>
  <anchor x="612.0" y="-16.0" name="bottom"/>
  <anchor x="679.0" y="-1.0" name="bottom.rakaar"/>
  <anchor x="599.0" y="12.0" name="bottom.rvocalic"/>
  <anchor x="534.0" y="-1.0" name="bottom.virama"/>
  <anchor x="643.0" y="606.0" name="top"/>
  <anchor x="580.0" y="596.0" name="topright"/>
  <anchor x="372.4" y="0.0" name="vedic"/>
  <outline>
    <contour>
      <point x="573.5" y="293.0" type="line"/>
      <point x="647.4" y="365.5"/>
      <point x="700.3" y="444.70000000000005"/>
      <point x="700.3" y="563.0999999999999" type="curve" smooth="yes"/>
      <point x="700.3" y="744.9000000000001"/>
      <point x="558.5999999999999" y="778.1"/>
      <point x="435.90000000000003" y="801.6" type="curve" smooth="yes"/>
      <point x="338.3" y="820.4"/>
      <point x="246.0" y="838.6"/>
      <point x="246.0" y="927.4" type="curve" smooth="yes"/>
      <point x="246.0" y="957.1"/>
      <point x="253.29999999999998" y="990.1"/>
      <point x="266.2" y="1018.0" type="curve"/>
      <point x="203.2" y="1037.9" type="line"/>
      <point x="182.0" y="989.5"/>
      <point x="168.39999999999998" y="945.2"/>
      <point x="168.39999999999998" y="889.1" type="curve" smooth="yes"/>
      <point x="168.39999999999998" y="742.0999999999999"/>
      <point x="285.5" y="703.5"/>
      <point x="419.20000000000005" y="679.5" type="curve" smooth="yes"/>
      <point x="534.1" y="658.9"/>
      <point x="629.1999999999999" y="648.5"/>
      <point x="629.1999999999999" y="549.2" type="curve" smooth="yes"/>
      <point x="629.1999999999999" y="487.59999999999997"/>
      <point x="609.0" y="443.8"/>
      <point x="549.3" y="395.5" type="curve"/>
    </contour>
    <component base="o-beng"/>
  </outline>
</glyph>
<glyph name="ka-beng" format="2">
  <advance width="695.3"/>
  <unicode hex="0995"/>
  <anchor x="442.5" y="37.0" name="bottom"/>
  <anchor x="448.29999999999995" y="56.19999999999999" name="bottom.rakaar"/>
  <anchor x="448.3" y="11.0" name="bottom.rvocalic"/>
  <anchor x="433.6" y="-10.200000000000003" name="bottom.virama"/>
  <anchor x="203.2" y="23.0" name="nukta"/>
  <anchor x="409.1" y="592.0" name="top"/>
  <anchor x="410.09999999999997" y="572.0" name="topright"/>
  <anchor x="347.5" y="0.0" name="vedic"/>
  <outline>
    <contour>
      <point x="437.29999999999995" y="-32.0" type="line"/>
      <point x="448.3" y="-29.0" type="line"/>
      <point x="448.3" y="379.0" type="line"/>
      <point x="431.0" y="353.0" type="line"/>
      <point x="437.3" y="355.0"/>
      <point x="444.3" y="356.0"/>
      <point x="450.6" y="356.0" type="curve" smooth="yes"/>
      <point x="540.5" y="356.0"/>
      <point x="617.6999999999999" y="314.8"/>
      <point x="617.6999999999999" y="251.5" type="curve" smooth="yes"/>
      <point x="617.6999999999999" y="236.5"/>
      <point x="615.4" y="224.5"/>
      <point x="607.1" y="211.5" type="curve"/>
      <point x="627.9" y="209.0" type="line"/>
      <point x="626.3" y="257.0"/>
      <point x="597.7" y="283.0"/>
      <point x="549.5" y="283.0" type="curve" smooth="yes"/>
      <point x="505.1" y="283.0"/>
      <point x="467.9" y="251.0"/>
      <point x="467.9" y="197.0" type="curve" smooth="yes"/>
      <point x="467.9" y="139.0"/>
      <point x="501.4" y="98.0"/>
      <point x="558.8" y="98.0" type="curve" smooth="yes"/>
      <point x="631.6" y="98.0"/>
      <point x="681.1" y="154.7"/>
      <point x="681.1" y="260.0" type="curve" smooth="yes"/>
      <point x="681.1" y="400.3"/>
      <point x="585.8" y="496.0"/>
      <point x="434.0" y="511.0" type="curve"/>
      <point x="448.3" y="485.0" type="line"/>
      <point x="448.3" y="536.0" type="line"/>
      <point x="731.5" y="536.0" type="line"/>
      <point x="685.1999999999999" y="622.0" type="line"/>
      <point x="-36.2" y="622.0" type="line"/>
      <point x="9.399999999999999" y="536.0" type="line"/>
      <point x="336.09999999999997" y="536.0" type="line"/>
      <point x="336.09999999999997" y="447.0" type="line"/>
      <point x="349.09999999999997" y="514.0" type="line"/>
      <point x="226.5" y="480.5"/>
      <point x="87.6" y="415.0"/>
      <point x="-1.2000000000000002" y="351.90000000000003" type="curve"/>
      <point x="70.8" y="179.2" type="line"/>
      <point x="184.9" y="162.1"/>
      <point x="290.5" y="112.5"/>
      <point x="359.0" y="12.900000000000002" type="curve"/>
    </contour>
    <contour>
      <point x="336.09999999999997" y="102.0" type="line"/>
      <point x="356.5" y="109.2" type="line"/>
      <point x="318.29999999999995" y="202.5"/>
      <point x="243.9" y="258.1"/>
      <point x="173.5" y="282.6" type="curve"/>
      <point x="176.4" y="260.6" type="line"/>
      <point x="227.5" y="297.6"/>
      <point x="302.70000000000005" y="330.7"/>
      <point x="356.79999999999995" y="347.40000000000003" type="curve"/>
      <point x="336.09999999999997" y="401.0" type="line"/>
    </contour>
  </outline>
</glyph>
<glyph name="kha-beng" format="2">
  <advance width="601.8"/>
  <unicode hex="0996"/>
  <anchor x="539.5" y="37.0" name="bottom"/>
  <anchor x="545.6" y="100.0" name="bottom.rakaar"/>
  <anchor x="545.6" y="8.2" name="bottom.rvocalic"/>
  <anchor x="524.9" y="6.0" name="bottom.virama"/>
  <anchor x="495.8" y="582.0" name="top"/>
  <anchor x="486.5" y="572.0" name="topright"/>
  <anchor x="285.09999999999997" y="0.0" name="vedic"/>
  <outline>
    <contour>
      <point x="534.6" y="-32.0" type="line"/>
      <point x="545.6" y="-29.0" type="line"/>
      <point x="545.6" y="536.0" type="line"/>
      <point x="638.0" y="536.0" type="line"/>
      <point x="591.4" y="622.0" type="line"/>
      <point x="532.9" y="622.0" type="line"/>
      <point x="522.9" y="686.0" type="line"/>
      <point x="442.40000000000003" y="724.0" type="line"/>
      <point x="433.40000000000003" y="720.0" type="line"/>
      <point x="433.40000000000003" y="99.6" type="line"/>
      <point x="453.79999999999995" y="104.7" type="line"/>
      <point x="413.8" y="202.6"/>
      <point x="337.9" y="254.10000000000002"/>
      <point x="269.59999999999997" y="280.09999999999997" type="curve"/>
      <point x="281.40000000000003" y="246.20000000000002" type="line"/>
      <point x="368.4" y="271.2"/>
      <point x="407.0" y="330.3"/>
      <point x="407.0" y="418.20000000000005" type="curve" smooth="yes"/>
      <point x="407.0" y="533.3"/>
      <point x="328.1" y="601.0"/>
      <point x="267.6" y="637.0" type="curve"/>
      <point x="230.89999999999998" y="572.4"/>
      <point x="184.8" y="508.4"/>
      <point x="115.7" y="508.4" type="curve" smooth="yes"/>
      <point x="106.39999999999999" y="508.4"/>
      <point x="92.5" y="509.4"/>
      <point x="84.5" y="512.4" type="curve"/>
      <point x="137.5" y="472.0" type="line"/>
      <point x="157.1" y="490.0"/>
      <point x="164.1" y="507.0"/>
      <point x="164.1" y="537.0" type="curve" smooth="yes"/>
      <point x="164.1" y="574.0"/>
      <point x="141.2" y="611.0"/>
      <point x="87.39999999999999" y="611.0" type="curve" smooth="yes"/>
      <point x="35.4" y="611.0"/>
      <point x="1.799999999999999" y="575.0"/>
      <point x="1.799999999999999" y="522.0" type="curve" smooth="yes"/>
      <point x="1.799999999999999" y="440.8"/>
      <point x="55.3" y="397.1"/>
      <point x="128.1" y="397.1" type="curve" smooth="yes"/>
      <point x="188.3" y="397.1"/>
      <point x="263.3" y="425.7"/>
      <point x="310.8" y="519.4" type="curve"/>
      <point x="264.9" y="525.9000000000001" type="line"/>
      <point x="284.1" y="510.1"/>
      <point x="302.0" y="486.09999999999997"/>
      <point x="302.0" y="453.9" type="curve" smooth="yes"/>
      <point x="302.0" y="382.7"/>
      <point x="230.60000000000002" y="350.2"/>
      <point x="97.39999999999999" y="350.2" type="curve"/>
      <point x="153.7" y="185.2" type="line"/>
      <point x="278.4" y="169.6"/>
      <point x="389.6" y="111.6"/>
      <point x="456.59999999999997" y="12.6" type="curve"/>
    </contour>
  </outline>
</glyph>
<glyph name="ga-beng" format="2">
  <advance width="609.5"/>
  <unicode hex="0997"/>
  <anchor x="537.0" y="74.6" name="bottom"/>
  <anchor x="553.3000000000001" y="-24.0" name="bottom.rakaar"/>
  <anchor x="553.3000000000001" y="-3.0" name="bottom.rvocalic"/>
  <anchor x="504.9" y="10.0" name="bottom.virama"/>
  <anchor x="506.3" y="582.0" name="top"/>
  <anchor x="497.0" y="572.0" name="topright"/>
  <anchor x="304.6" y="0.0" name="vedic"/>
  <outline>
    <contour>
      <point x="542.3" y="-43.0" type="line"/>
      <point x="553.3000000000001" y="-40.0" type="line"/>
      <point x="553.3000000000001" y="536.0" type="line"/>
      <point x="645.6999999999999" y="536.0" type="line"/>
      <point x="599.1" y="622.0" type="line"/>
      <point x="540.6" y="622.0" type="line"/>
      <point x="530.6" y="686.0" type="line"/>
      <point x="452.9" y="724.0" type="line"/>
      <point x="443.9" y="720.0" type="line"/>
      <point x="443.9" y="598.1" type="line" smooth="yes"/>
      <point x="443.9" y="532.9"/>
      <point x="448.29999999999995" y="467.49999999999994"/>
      <point x="452.8" y="423.7" type="curve"/>
      <point x="466.5" y="417.0" type="line"/>
      <point x="419.0" y="568.6"/>
      <point x="331.29999999999995" y="637.0"/>
      <point x="233.3" y="637.0" type="curve" smooth="yes"/>
      <point x="133.5" y="637.0"/>
      <point x="44.400000000000006" y="563.6"/>
      <point x="-9.999999999999998" y="428.4" type="curve"/>
      <point x="109.6" y="326.2" type="line"/>
      <point x="135.1" y="355.7"/>
      <point x="177.3" y="383.9"/>
      <point x="212.7" y="383.9" type="curve" smooth="yes"/>
      <point x="242.8" y="383.9"/>
      <point x="258.6" y="371.2"/>
      <point x="258.6" y="343.29999999999995" type="curve" smooth="yes"/>
      <point x="258.6" y="302.2"/>
      <point x="211.7" y="269.8"/>
      <point x="117.4" y="241.6" type="curve"/>
      <point x="200.5" y="100.0" type="line"/>
      <point x="341.6" y="156.0"/>
      <point x="379.8" y="242.20000000000002"/>
      <point x="379.8" y="327.0" type="curve" smooth="yes"/>
      <point x="379.8" y="406.0"/>
      <point x="332.5" y="467.3"/>
      <point x="249.89999999999998" y="467.3" type="curve" smooth="yes"/>
      <point x="204.10000000000002" y="467.3"/>
      <point x="170.7" y="452.0"/>
      <point x="142.8" y="429.5" type="curve"/>
      <point x="159.4" y="404.90000000000003" type="line"/>
      <point x="172.29999999999998" y="451.9"/>
      <point x="217.7" y="516.4"/>
      <point x="278.2" y="516.4" type="curve" smooth="yes"/>
      <point x="336.7" y="516.4"/>
      <point x="400.8" y="460.0"/>
      <point x="453.7" y="303.0" type="curve"/>
      <point x="441.1" y="390.2" type="line"/>
      <point x="441.1" y="-1.0" type="line"/>
    </contour>
  </outline>
</glyph>
<glyph name="gha-beng" format="2">
  <advance width="528.8"/>
  <unicode hex="0998"/>
  <anchor x="466.8" y="37.0" name="bottom"/>
  <anchor x="472.59999999999997" y="100.0" name="bottom.rakaar"/>
  <anchor x="472.6" y="8.2" name="bottom.rvocalic"/>
  <anchor x="451.90000000000003" y="6.0" name="bottom.virama"/>
  <anchor x="433.40000000000003" y="592.0" name="top"/>
  <anchor x="434.4" y="572.0" name="topright"/>
  <anchor x="263.9" y="0.0" name="vedic"/>
  <outline>
    <contour>
      <point x="461.59999999999997" y="-32.0" type="line"/>
      <point x="472.6" y="-29.0" type="line"/>
      <point x="472.6" y="536.0" type="line"/>
      <point x="565.0" y="536.0" type="line"/>
      <point x="518.1" y="622.0" type="line"/>
      <point x="-36.2" y="622.0" type="line"/>
      <point x="9.399999999999999" y="536.0" type="line"/>
      <point x="360.4" y="536.0" type="line"/>
      <point x="360.4" y="99.60000000000001" type="line"/>
      <point x="380.79999999999995" y="104.7" type="line"/>
      <point x="335.1" y="213.3"/>
      <point x="249.60000000000002" y="266.6"/>
      <point x="176.8" y="285.7" type="curve"/>
      <point x="185.6" y="256.8" type="line"/>
      <point x="222.7" y="283.9"/>
      <point x="286.2" y="315.79999999999995"/>
      <point x="348.20000000000005" y="343.79999999999995" type="curve"/>
      <point x="287.6" y="464.0" type="line"/>
      <point x="270.5" y="452.5"/>
      <point x="255.79999999999998" y="443.9"/>
      <point x="229.8" y="443.9" type="curve" smooth="yes"/>
      <point x="200.7" y="443.9"/>
      <point x="179.8" y="461.2"/>
      <point x="179.8" y="489.40000000000003" type="curve" smooth="yes"/>
      <point x="179.8" y="516.4"/>
      <point x="196.5" y="536.0"/>
      <point x="227.3" y="547.0" type="curve"/>
      <point x="71.6" y="590.8" type="line"/>
      <point x="37.2" y="571.6"/>
      <point x="16.4" y="540.1999999999999"/>
      <point x="16.4" y="497.9" type="curve" smooth="yes"/>
      <point x="16.4" y="416.4"/>
      <point x="91.2" y="390.59999999999997"/>
      <point x="148.70000000000002" y="388.6" type="curve"/>
      <point x="164.0" y="412.0" type="line"/>
      <point x="118.6" y="392.7"/>
      <point x="67.9" y="368.8"/>
      <point x="24.1" y="339.8" type="curve"/>
      <point x="96.89999999999999" y="179.9" type="line"/>
      <point x="206.8" y="165.8"/>
      <point x="317.2" y="111.0"/>
      <point x="383.29999999999995" y="12.600000000000001" type="curve"/>
    </contour>
  </outline>
</glyph>
<glyph name="nga-beng" format="2">
  <advance width="571.8000000000001"/>
  <unicode hex="0999"/>
  <anchor x="404.0" y="-11.6" name="bottom"/>
  <anchor x="528.2" y="-0.7" name="bottom.rakaar"/>
  <anchor x="425.6" y="-41.9" name="bottom.rvocalic"/>
  <anchor x="396.5" y="0.0" name="bottom.virama"/>
  <anchor x="354.1" y="591.3" name="top"/>
  <anchor x="356.5" y="572.0" name="topright"/>
  <anchor x="285.40000000000003" y="0.0" name="vedic"/>
  <outline>
    <contour>
      <point x="344.4" y="-17.9" type="curve" smooth="yes"/>
      <point x="503.5" y="-17.9"/>
      <point x="563.8" y="104.0"/>
      <point x="563.8" y="252.60000000000002" type="curve" smooth="yes"/>
      <point x="563.8" y="346.5"/>
      <point x="514.6" y="422.59999999999997"/>
      <point x="483.2" y="459.3" type="curve"/>
      <point x="429.0" y="372.3"/>
      <point x="362.0" y="329.3"/>
      <point x="325.09999999999997" y="329.3" type="curve" smooth="yes"/>
      <point x="307.90000000000003" y="329.3"/>
      <point x="294.9" y="339.29999999999995"/>
      <point x="294.9" y="362.29999999999995" type="curve" smooth="yes"/>
      <point x="294.9" y="467.0" type="line" smooth="yes"/>
      <point x="294.9" y="517.0"/>
      <point x="309.5" y="551.4"/>
      <point x="341.9" y="551.4" type="curve" smooth="yes"/>
      <point x="361.20000000000005" y="551.4"/>
      <point x="371.5" y="538.9"/>
      <point x="371.5" y="517.1" type="curve" smooth="yes"/>
      <point x="371.5" y="490.1"/>
      <point x="351.8" y="466.7"/>
      <point x="313.0" y="466.7" type="curve" smooth="yes"/>
      <point x="231.5" y="466.7"/>
      <point x="192.9" y="515.6999999999999"/>
      <point x="144.79999999999998" y="628.0" type="curve"/>
      <point x="88.5" y="605.0" type="line"/>
      <point x="140.3" y="477.70000000000005"/>
      <point x="197.7" y="384.4"/>
      <point x="320.0" y="384.4" type="curve" smooth="yes"/>
      <point x="405.79999999999995" y="384.4"/>
      <point x="459.0" y="442.09999999999997"/>
      <point x="459.0" y="513.0" type="curve" smooth="yes"/>
      <point x="459.0" y="582.0"/>
      <point x="422.2" y="636.0"/>
      <point x="335.9" y="636.0" type="curve" smooth="yes"/>
      <point x="249.6" y="636.0"/>
      <point x="189.8" y="567.0"/>
      <point x="189.8" y="462.7" type="curve" smooth="yes"/>
      <point x="189.8" y="339.0" type="line" smooth="yes"/>
      <point x="189.8" y="285.7"/>
      <point x="212.4" y="250.70000000000002"/>
      <point x="235.0" y="228.7" type="curve" smooth="yes"/>
      <point x="262.9" y="201.70000000000002"/>
      <point x="296.2" y="191.4"/>
      <point x="334.70000000000005" y="191.4" type="curve" smooth="yes"/>
      <point x="403.7" y="191.4"/>
      <point x="489.0" y="247.4"/>
      <point x="514.4" y="308.4" type="curve"/>
      <point x="458.5" y="340.3" type="line"/>
      <point x="474.7" y="313.3"/>
      <point x="488.29999999999995" y="280.70000000000005"/>
      <point x="488.29999999999995" y="252.3" type="curve" smooth="yes"/>
      <point x="488.29999999999995" y="180.3"/>
      <point x="434.7" y="131.5"/>
      <point x="336.59999999999997" y="131.5" type="curve" smooth="yes"/>
      <point x="195.8" y="131.5"/>
      <point x="133.6" y="230.0"/>
      <point x="75.19999999999999" y="495.0" type="curve"/>
      <point x="9.3" y="478.0" type="line"/>
      <point x="63.7" y="151.7"/>
      <point x="152.4" y="-17.9"/>
    </contour>
  </outline>
</glyph>
<glyph name="ca-beng" format="2">
  <advance width="493.90000000000003"/>
  <unicode hex="099A"/>
  <anchor x="342.2" y="-10.0" name="bottom"/>
  <anchor x="428.0" y="0.0" name="bottom.rakaar"/>
  <anchor x="363.6" y="-19.0" name="bottom.rvocalic"/>
  <anchor x="278.8" y="20.0" name="bottom.virama"/>
  <anchor x="130.60000000000002" y="592.0" name="top"/>
  <anchor x="131.6" y="572.0" name="topright"/>
  <anchor x="246.79999999999998" y="0.0" name="vedic"/>
  <outline>
    <contour>
      <point x="224.0" y="-12.0" type="curve" smooth="yes"/>
      <point x="389.3" y="-12.0"/>
      <point x="468.7" y="182.0"/>
      <point x="468.7" y="292.0" type="curve" smooth="yes"/>
      <point x="468.7" y="362.6"/>
      <point x="407.8" y="408.3"/>
      <point x="374.4" y="424.0" type="curve"/>
      <point x="295.9" y="425.0"/>
      <point x="215.5" y="456.0"/>
      <point x="163.1" y="547.0" type="curve"/>
      <point x="160.8" y="458.9" type="line"/>
      <point x="192.20000000000002" y="363.90000000000003"/>
      <point x="266.1" y="289.0"/>
      <point x="377.5" y="284.0" type="curve"/>
      <point x="319.40000000000003" y="343.0" type="line"/>
      <point x="310.7" y="192.0"/>
      <point x="246.3" y="111.0"/>
      <point x="201.7" y="111.0" type="curve" smooth="yes"/>
      <point x="181.6" y="111.0"/>
      <point x="168.4" y="122.9"/>
      <point x="168.4" y="146.5" type="curve" smooth="yes"/>
      <point x="168.4" y="536.0" type="line"/>
      <point x="530.0999999999999" y="536.0" type="line"/>
      <point x="485.5" y="622.0" type="line"/>
      <point x="-36.2" y="622.0" type="line"/>
      <point x="11.4" y="536.0" type="line"/>
      <point x="56.2" y="536.0" type="line"/>
      <point x="56.2" y="139.5" type="line" smooth="yes"/>
      <point x="56.2" y="49.5"/>
      <point x="140.5" y="-12.0"/>
    </contour>
  </outline>
</glyph>
<glyph name="cha-beng" format="2">
  <advance width="537.1999999999999"/>
  <unicode hex="099B"/>
  <anchor x="332.8" y="-20.900000000000002" name="bottom"/>
  <anchor x="454.59999999999997" y="-153.6" name="bottom.rakaar"/>
  <anchor x="423.0" y="-35.6" name="bottom.rvocalic"/>
  <anchor x="329.3" y="-23.6" name="bottom.virama"/>
  <anchor x="112.89999999999999" y="592.0" name="top"/>
  <anchor x="113.9" y="572.0" name="topright"/>
  <anchor x="268.1" y="0.0" name="vedic"/>
  <outline>
    <contour>
      <point x="515.7" y="-179.1" type="curve"/>
      <point x="558.0" y="-132.8" type="line"/>
      <point x="463.2" y="-24.7"/>
      <point x="333.5" y="69.7"/>
      <point x="215.20000000000002" y="96.39999999999999" type="curve"/>
      <point x="184.90000000000003" y="53.699999999999996" type="line"/>
      <point x="197.1" y="44.8"/>
      <point x="227.4" y="39.9"/>
      <point x="255.7" y="39.9" type="curve" smooth="yes"/>
      <point x="420.0" y="39.9"/>
      <point x="522.6" y="131.5"/>
      <point x="522.6" y="269.4" type="curve" smooth="yes"/>
      <point x="522.6" y="420.0"/>
      <point x="410.8" y="487.0"/>
      <point x="285.9" y="487.0" type="curve" smooth="yes"/>
      <point x="231.7" y="487.0"/>
      <point x="164.39999999999998" y="503.0"/>
      <point x="141.6" y="538.0" type="curve"/>
      <point x="137.29999999999998" y="486.0" type="line"/>
      <point x="165.8" y="425.0"/>
      <point x="219.10000000000002" y="403.0"/>
      <point x="256.2" y="393.0" type="curve"/>
      <point x="229.2" y="443.0" type="line"/>
      <point x="224.89999999999998" y="366.0"/>
      <point x="199.8" y="302.0"/>
      <point x="168.70000000000002" y="302.0" type="curve" smooth="yes"/>
      <point x="157.10000000000002" y="302.0"/>
      <point x="147.9" y="310.0"/>
      <point x="147.9" y="324.3" type="curve" smooth="yes"/>
      <point x="147.9" y="536.0" type="line"/>
      <point x="573.4" y="536.0" type="line"/>
      <point x="524.8000000000001" y="622.0" type="line"/>
      <point x="-36.2" y="622.0" type="line"/>
      <point x="9.399999999999999" y="536.0" type="line"/>
      <point x="38.5" y="536.0" type="line"/>
      <point x="38.5" y="323.5" type="line" smooth="yes"/>
      <point x="38.5" y="257.5"/>
      <point x="111.80000000000001" y="200.0"/>
      <point x="193.2" y="200.0" type="curve" smooth="yes"/>
      <point x="293.9" y="200.0"/>
      <point x="354.40000000000003" y="273.0"/>
      <point x="366.7" y="428.0" type="curve"/>
      <point x="319.90000000000003" y="401.6" type="line"/>
      <point x="368.5" y="401.6"/>
      <point x="407.6" y="374.1"/>
      <point x="407.6" y="302.7" type="curve" smooth="yes"/>
      <point x="407.6" y="200.5"/>
      <point x="318.79999999999995" y="163.4"/>
      <point x="221.29999999999998" y="163.4" type="curve" smooth="yes"/>
      <point x="162.5" y="163.4"/>
      <point x="109.5" y="175.9"/>
      <point x="66.0" y="205.9" type="curve"/>
      <point x="103.5" y="20.7" type="line"/>
      <point x="218.9" y="-6.100000000000001"/>
      <point x="356.2" y="-44.400000000000006"/>
    </contour>
  </outline>
</glyph>
<glyph name="ja-beng" format="2">
  <advance width="786.2"/>
  <unicode hex="099C"/>
  <anchor x="707.1999999999999" y="35.7" name="bottom"/>
  <anchor x="718.2" y="47.0" name="bottom.rakaar"/>
  <anchor x="719.9" y="-61.0" name="bottom.rvocalic"/>
  <anchor x="704.6" y="-48.0" name="bottom.virama"/>
  <anchor x="423.59999999999997" y="591.3" name="top"/>
  <anchor x="424.6" y="572.0" name="topright"/>
  <anchor x="393.09999999999997" y="0.0" name="vedic"/>
  <outline>
    <contour>
      <point x="343.7" y="-55.8" type="curve" smooth="yes"/>
      <point x="488.1" y="-55.8"/>
      <point x="548.1" y="45.5"/>
      <point x="548.1" y="184.6" type="curve" smooth="yes"/>
      <point x="548.1" y="294.0"/>
      <point x="489.5" y="374.0"/>
      <point x="454.5" y="410.7" type="curve"/>
      <point x="399.3" y="348.7"/>
      <point x="360.20000000000005" y="317.70000000000005"/>
      <point x="331.9" y="317.70000000000005" type="curve" smooth="yes"/>
      <point x="309.2" y="317.70000000000005"/>
      <point x="291.40000000000003" y="332.7"/>
      <point x="291.40000000000003" y="360.40000000000003" type="curve" smooth="yes"/>
      <point x="291.40000000000003" y="414.1"/>
      <point x="389.2" y="492.7"/>
      <point x="487.6" y="536.0" type="curve"/>
      <point x="822.4" y="536.0" type="line"/>
      <point x="777.5" y="622.0" type="line"/>
      <point x="-36.2" y="622.0" type="line"/>
      <point x="9.7" y="536.0" type="line"/>
      <point x="342.9" y="536.0" type="line"/>
      <point x="305.2" y="580.0" type="line"/>
      <point x="272.40000000000003" y="560.3"/>
      <point x="174.2" y="479.0"/>
      <point x="174.2" y="366.40000000000003" type="curve" smooth="yes"/>
      <point x="174.2" y="253.8"/>
      <point x="256.90000000000003" y="176.8"/>
      <point x="340.5" y="176.8" type="curve" smooth="yes"/>
      <point x="396.5" y="176.8"/>
      <point x="458.2" y="212.9"/>
      <point x="505.7" y="283.1" type="curve"/>
      <point x="445.7" y="296.09999999999997" type="line"/>
      <point x="463.9" y="270.09999999999997"/>
      <point x="478.1" y="240.7"/>
      <point x="478.1" y="207.2" type="curve" smooth="yes"/>
      <point x="478.1" y="141.20000000000002"/>
      <point x="421.70000000000005" y="99.4"/>
      <point x="343.79999999999995" y="99.4" type="curve" smooth="yes"/>
      <point x="203.2" y="99.4"/>
      <point x="122.19999999999999" y="216.5"/>
      <point x="79.19999999999999" y="476.6" type="curve"/>
      <point x="11.7" y="462.7" type="line"/>
      <point x="54.5" y="109.7"/>
      <point x="154.0" y="-55.8"/>
    </contour>
    <contour>
      <point x="661.6999999999999" y="-97.7" type="curve"/>
      <point x="719.9" y="-75.0" type="line"/>
      <point x="695.1" y="6.6"/>
      <point x="690.4" y="53.2"/>
      <point x="690.4" y="118.4" type="curve" smooth="yes"/>
      <point x="690.4" y="211.29999999999998"/>
      <point x="721.8" y="300.40000000000003"/>
      <point x="773.8" y="368.7" type="curve"/>
      <point x="694.9" y="472.0" type="line"/>
      <point x="578.5" y="453.7"/>
      <point x="506.2" y="500.9"/>
      <point x="477.79999999999995" y="577.6" type="curve"/>
      <point x="422.1" y="539.7" type="line"/>
      <point x="456.79999999999995" y="398.1"/>
      <point x="568.2" y="339.2"/>
      <point x="661.0" y="324.5" type="curve"/>
      <point x="634.4" y="390.2" type="line"/>
      <point x="603.1999999999999" y="315.2"/>
      <point x="591.1999999999999" y="252.49999999999997"/>
      <point x="591.1999999999999" y="170.8" type="curve" smooth="yes"/>
      <point x="591.1999999999999" y="57.199999999999996"/>
      <point x="625.0" y="-26.5"/>
    </contour>
  </outline>
</glyph>
<glyph name="jha-beng" format="2">
  <advance width="669.6"/>
  <unicode hex="099D"/>
  <anchor x="439.0" y="37.0" name="bottom"/>
  <anchor x="444.79999999999995" y="99.4" name="bottom.rakaar"/>
  <anchor x="444.8" y="7.6" name="bottom.rvocalic"/>
  <anchor x="426.2" y="27.0" name="bottom.virama"/>
  <anchor x="399.6" y="592.0" name="top"/>
  <anchor x="453.4" y="592.0" name="topleft"/>
  <anchor x="400.59999999999997" y="572.0" name="topright"/>
  <anchor x="334.8" y="0.0" name="vedic"/>
  <outline>
    <contour>
      <point x="433.5" y="-32.0" type="line"/>
      <point x="444.8" y="-29.0" type="line"/>
      <point x="444.8" y="622.0" type="line"/>
      <point x="-36.2" y="622.0" type="line"/>
      <point x="9.399999999999999" y="536.0" type="line"/>
      <point x="332.59999999999997" y="536.0" type="line"/>
      <point x="332.59999999999997" y="446.4" type="line"/>
      <point x="345.59999999999997" y="514.0" type="line"/>
      <point x="223.60000000000002" y="480.8"/>
      <point x="85.0" y="415.3"/>
      <point x="-4.7" y="351.90000000000003" type="curve"/>
      <point x="67.3" y="179.2" type="line"/>
      <point x="180.2" y="162.7"/>
      <point x="288.20000000000005" y="111.6"/>
      <point x="355.5" y="12.900000000000002" type="curve"/>
    </contour>
    <contour>
      <point x="332.59999999999997" y="102.0" type="line"/>
      <point x="353.0" y="109.2" type="line"/>
      <point x="313.0" y="206.1"/>
      <point x="235.3" y="259.29999999999995"/>
      <point x="170.0" y="282.6" type="curve"/>
      <point x="172.9" y="260.6" type="line"/>
      <point x="224.6" y="297.90000000000003"/>
      <point x="299.5" y="330.7"/>
      <point x="353.29999999999995" y="347.4" type="curve"/>
      <point x="332.59999999999997" y="400.7" type="line"/>
    </contour>
    <contour>
      <point x="602.4" y="38.7" type="line"/>
      <point x="613.4" y="41.7" type="line"/>
      <point x="613.4" y="536.0" type="line"/>
      <point x="705.8000000000001" y="536.0" type="line"/>
      <point x="659.2" y="622.0" type="line"/>
      <point x="600.6999999999999" y="622.0" type="line"/>
      <point x="590.7" y="686.0" type="line"/>
      <point x="513.0" y="724.0" type="line"/>
      <point x="504.0" y="720.0" type="line"/>
      <point x="504.0" y="172.4" type="line"/>
      <point x="524.4" y="177.8" type="line"/>
      <point x="496.20000000000005" y="252.4"/>
      <point x="454.5" y="295.1"/>
      <point x="403.4" y="326.7" type="curve"/>
      <point x="389.6" y="207.79999999999998" type="line"/>
      <point x="445.9" y="179.6"/>
      <point x="491.3" y="142.2"/>
      <point x="526.9" y="83.60000000000001" type="curve"/>
    </contour>
  </outline>
</glyph>
<glyph name="nya-beng" format="2">
  <advance width="887.3"/>
  <unicode hex="099E"/>
  <anchor x="569.4" y="28.0" name="bottom"/>
  <anchor x="574.9" y="91.0" name="bottom.rakaar"/>
  <anchor x="574.9000000000001" y="-0.7999999999999998" name="bottom.rvocalic"/>
  <anchor x="554.1999999999999" y="11.0" name="bottom.virama"/>
  <anchor x="453.0" y="591.3" name="top"/>
  <anchor x="453.29999999999995" y="572.0" name="topright"/>
  <anchor x="443.29999999999995" y="0.0" name="vedic"/>
  <outline>
    <contour>
      <point x="716.5" y="16.1" type="curve" smooth="yes"/>
      <point x="810.8000000000001" y="16.1"/>
      <point x="854.9" y="87.8"/>
      <point x="854.9" y="170.10000000000002" type="curve" smooth="yes"/>
      <point x="854.9" y="228.0"/>
      <point x="833.0999999999999" y="290.7"/>
      <point x="780.2" y="332.40000000000003" type="curve"/>
      <point x="803.1999999999999" y="280.40000000000003" type="line"/>
      <point x="829.0" y="308.7"/>
      <point x="854.6" y="360.0"/>
      <point x="854.6" y="433.40000000000003" type="curve" smooth="yes"/>
      <point x="854.6" y="529.4"/>
      <point x="805.1" y="604.6999999999999"/>
      <point x="723.8" y="604.6999999999999" type="curve" smooth="yes"/>
      <point x="605.3" y="604.6999999999999"/>
      <point x="546.1" y="456.40000000000003"/>
      <point x="537.8" y="365.40000000000003" type="curve"/>
      <point x="537.8" y="257.40000000000003" type="line"/>
      <point x="555.4" y="126.1"/>
      <point x="613.6" y="16.1"/>
    </contour>
    <contour>
      <point x="704.5" y="147.70000000000002" type="curve" smooth="yes"/>
      <point x="640.3" y="147.70000000000002"/>
      <point x="579.6999999999999" y="215.1"/>
      <point x="579.6999999999999" y="306.40000000000003" type="curve" smooth="yes"/>
      <point x="579.6999999999999" y="394.40000000000003"/>
      <point x="637.3000000000001" y="486.1"/>
      <point x="714.8" y="486.1" type="curve" smooth="yes"/>
      <point x="738.5" y="486.1"/>
      <point x="757.0" y="470.40000000000003"/>
      <point x="757.0" y="439.40000000000003" type="curve" smooth="yes"/>
      <point x="757.0" y="411.4"/>
      <point x="724.8" y="377.40000000000003"/>
      <point x="692.7" y="362.40000000000003" type="curve"/>
      <point x="752.9" y="354.7" type="line"/>
      <point x="735.0" y="373.40000000000003"/>
      <point x="716.5" y="394.40000000000003"/>
      <point x="679.9" y="394.40000000000003" type="curve" smooth="yes"/>
      <point x="634.4" y="394.40000000000003"/>
      <point x="606.2" y="358.70000000000005"/>
      <point x="606.2" y="307.40000000000003" type="curve" smooth="yes"/>
      <point x="606.2" y="253.10000000000002"/>
      <point x="639.4" y="220.10000000000002"/>
      <point x="684.9" y="220.10000000000002" type="curve" smooth="yes"/>
      <point x="725.0999999999999" y="220.10000000000002"/>
      <point x="755.3" y="237.10000000000002"/>
      <point x="782.1999999999999" y="267.1" type="curve"/>
      <point x="729.3" y="299.40000000000003" type="line"/>
      <point x="745.5" y="280.40000000000003"/>
      <point x="772.0" y="257.7"/>
      <point x="772.0" y="217.4" type="curve" smooth="yes"/>
      <point x="772.0" y="171.4"/>
      <point x="745.5" y="147.70000000000002"/>
    </contour>
    <component base="e-beng"/>
  </outline>
</glyph>
<glyph name="tta-beng" format="2">
  <advance width="515.8"/>
  <unicode hex="099F"/>
  <anchor x="343.40000000000003" y="-10.0" name="bottom"/>
  <anchor x="428.0" y="0.0" name="bottom.rakaar"/>
  <anchor x="357.6" y="-10.0" name="bottom.rvocalic"/>
  <anchor x="278.8" y="20.0" name="bottom.virama"/>
  <anchor x="257.5" y="670.4" name="top"/>
  <anchor x="188.5" y="632.0" name="topright"/>
  <anchor x="257.40000000000003" y="0.0" name="vedic"/>
  <anchor x="225.4" y="-121.0" name="nukta"/>
  <outline>
    <contour>
      <point x="382.2" y="588.0" type="curve"/>
      <point x="449.3" y="588.0" type="line"/>
      <point x="444.2" y="749.6"/>
      <point x="385.4" y="825.4"/>
      <point x="286.40000000000003" y="825.4" type="curve" smooth="yes"/>
      <point x="230.79999999999998" y="825.4"/>
      <point x="196.9" y="815.0"/>
      <point x="143.5" y="815.0" type="curve" smooth="yes"/>
      <point x="75.0" y="815.0"/>
      <point x="47.2" y="842.8"/>
      <point x="47.2" y="895.5999999999999" type="curve" smooth="yes"/>
      <point x="47.2" y="907.9000000000001"/>
      <point x="48.2" y="923.2"/>
      <point x="50.2" y="936.5999999999999" type="curve"/>
      <point x="-5.0" y="943.5999999999999" type="line"/>
      <point x="-11.0" y="917.5999999999999"/>
      <point x="-14.3" y="886.6"/>
      <point x="-14.3" y="858.3" type="curve" smooth="yes"/>
      <point x="-14.3" y="756.0"/>
      <point x="41.400000000000006" y="683.4"/>
      <point x="155.3" y="683.4" type="curve" smooth="yes"/>
      <point x="217.1" y="683.4"/>
      <point x="257.0" y="694.6999999999999"/>
      <point x="297.40000000000003" y="694.6999999999999" type="curve" smooth="yes"/>
      <point x="345.59999999999997" y="694.6999999999999"/>
      <point x="378.3" y="676.7"/>
    </contour>
    <component base="ddha-beng"/>
  </outline>
</glyph>
<glyph name="ttha-beng" format="2">
  <advance width="536.0999999999999"/>
  <unicode hex="09A0"/>
  <anchor x="332.7" y="-50.0" name="bottom"/>
  <anchor x="499.9" y="-24.0" name="bottom.rakaar"/>
  <anchor x="391.09999999999997" y="-57.0" name="bottom.rvocalic"/>
  <anchor x="309.5" y="-20.0" name="bottom.virama"/>
  <anchor x="445.6" y="571.0" name="top"/>
  <anchor x="433.9" y="586.0" name="topleft"/>
  <anchor x="339.0" y="572.0" name="topright"/>
  <anchor x="267.7" y="0.0" name="vedic"/>
  <outline>
    <contour>
      <point x="285.1" y="-54.0" type="curve" smooth="yes"/>
      <point x="414.2" y="-54.0"/>
      <point x="498.5" y="26.0"/>
      <point x="498.5" y="173.4" type="curve" smooth="yes"/>
      <point x="498.5" y="321.59999999999997"/>
      <point x="399.3" y="438.0"/>
      <point x="310.20000000000005" y="536.0" type="curve"/>
      <point x="572.3" y="536.0" type="line"/>
      <point x="525.7" y="622.0" type="line"/>
      <point x="243.9" y="622.0" type="line"/>
      <point x="208.4" y="657.0"/>
      <point x="196.9" y="685.8"/>
      <point x="196.9" y="714.8" type="curve" smooth="yes"/>
      <point x="196.9" y="752.4"/>
      <point x="227.7" y="793.0"/>
      <point x="270.0" y="814.0" type="curve"/>
      <point x="163.7" y="896.0" type="line"/>
      <point x="103.4" y="864.0"/>
      <point x="64.69999999999999" y="809.0"/>
      <point x="64.69999999999999" y="758.0" type="curve" smooth="yes"/>
      <point x="64.69999999999999" y="697.0"/>
      <point x="100.5" y="664.0"/>
      <point x="149.0" y="622.0" type="curve"/>
      <point x="-36.2" y="622.0" type="line"/>
      <point x="9.399999999999999" y="536.0" type="line"/>
      <point x="203.4" y="536.0" type="line"/>
      <point x="210.29999999999998" y="514.9"/>
      <point x="214.2" y="492.79999999999995"/>
      <point x="214.2" y="458.0" type="curve" smooth="yes"/>
      <point x="214.2" y="346.0"/>
      <point x="129.9" y="266.1"/>
      <point x="16.7" y="242.4" type="curve"/>
      <point x="22.2" y="82.4"/>
      <point x="111.4" y="-54.0"/>
    </contour>
    <contour>
      <point x="252.39999999999998" y="57.199999999999996" type="curve" smooth="yes"/>
      <point x="196.4" y="57.199999999999996"/>
      <point x="165.2" y="107.60000000000001"/>
      <point x="164.5" y="156.6" type="curve"/>
      <point x="150.7" y="123.4" type="line"/>
      <point x="247.2" y="154.7"/>
      <point x="304.8" y="228.2"/>
      <point x="304.8" y="345.7" type="curve" smooth="yes"/>
      <point x="304.8" y="412.3"/>
      <point x="287.9" y="478.0"/>
      <point x="245.7" y="537.0" type="curve"/>
      <point x="231.7" y="536.0" type="line"/>
      <point x="319.4" y="438.4"/>
      <point x="356.59999999999997" y="338.59999999999997"/>
      <point x="356.59999999999997" y="219.3" type="curve" smooth="yes"/>
      <point x="356.59999999999997" y="109.9"/>
      <point x="313.59999999999997" y="57.199999999999996"/>
    </contour>
  </outline>
</glyph>
<glyph name="dda-beng" format="2">
  <advance width="583.4000000000001"/>
  <unicode hex="09A1"/>
  <anchor x="433.0" y="-26.0" name="bottom"/>
  <anchor x="530.2" y="-11.0" name="bottom.rakaar"/>
  <anchor x="438.6" y="-29.0" name="bottom.rvocalic"/>
  <anchor x="397.8" y="-11.0" name="bottom.virama"/>
  <anchor x="316.1" y="-142.0" name="nukta"/>
  <anchor x="273.7" y="592.0" name="top"/>
  <anchor x="274.0" y="572.0" name="topright"/>
  <anchor x="291.7" y="0.0" name="vedic"/>
  <outline>
    <contour>
      <point x="338.3" y="-27.0" type="curve" smooth="yes"/>
      <point x="493.9" y="-27.0"/>
      <point x="571.0" y="76.5"/>
      <point x="571.0" y="229.8" type="curve" smooth="yes"/>
      <point x="571.0" y="343.5"/>
      <point x="526.2" y="425.3"/>
      <point x="471.1" y="478.29999999999995" type="curve"/>
      <point x="417.1" y="390.70000000000005"/>
      <point x="371.9" y="354.3"/>
      <point x="341.6" y="354.3" type="curve" smooth="yes"/>
      <point x="328.1" y="354.3"/>
      <point x="310.8" y="360.3"/>
      <point x="310.8" y="386.3" type="curve" smooth="yes"/>
      <point x="310.8" y="536.0" type="line"/>
      <point x="619.6" y="536.0" type="line"/>
      <point x="572.0" y="622.0" type="line"/>
      <point x="-36.2" y="622.0" type="line"/>
      <point x="11.399999999999999" y="536.0" type="line"/>
      <point x="198.6" y="536.0" type="line"/>
      <point x="198.6" y="372.8" type="line" smooth="yes"/>
      <point x="198.6" y="317.5"/>
      <point x="213.7" y="281.3"/>
      <point x="242.0" y="251.9" type="curve" smooth="yes"/>
      <point x="271.3" y="221.5"/>
      <point x="304.1" y="205.9"/>
      <point x="351.09999999999997" y="205.9" type="curve" smooth="yes"/>
      <point x="412.4" y="205.9"/>
      <point x="482.5" y="254.8"/>
      <point x="521.6" y="332.5" type="curve"/>
      <point x="460.2" y="325.6" type="line"/>
      <point x="478.7" y="304.6"/>
      <point x="491.5" y="275.6"/>
      <point x="491.5" y="246.6" type="curve" smooth="yes"/>
      <point x="491.5" y="174.0"/>
      <point x="434.0" y="125.8"/>
      <point x="339.8" y="125.8" type="curve" smooth="yes"/>
      <point x="177.5" y="125.8"/>
      <point x="111.1" y="258.0"/>
      <point x="76.69999999999999" y="475.3" type="curve"/>
      <point x="8.1" y="462.0" type="line"/>
      <point x="43.2" y="146.0"/>
      <point x="132.70000000000002" y="-27.0"/>
    </contour>
  </outline>
</glyph>
<glyph name="ddha-beng" format="2">
  <advance width="515.8"/>
  <unicode hex="09A2"/>
  <anchor x="344.6" y="-10.0" name="bottom"/>
  <anchor x="428.0" y="0.0" name="bottom.rakaar"/>
  <anchor x="357.59999999999997" y="-9.999999999999998" name="bottom.rvocalic"/>
  <anchor x="278.8" y="20.0" name="bottom.virama"/>
  <anchor x="225.4" y="-121.0" name="nukta"/>
  <anchor x="130.60000000000002" y="592.0" name="top"/>
  <anchor x="131.60000000000002" y="572.0" name="topright"/>
  <anchor x="257.40000000000003" y="0.0" name="vedic"/>
  <outline>
    <contour>
      <point x="224.0" y="-12.0" type="curve" smooth="yes"/>
      <point x="377.4" y="-12.0"/>
      <point x="485.8" y="153.0"/>
      <point x="485.8" y="308.0" type="curve" smooth="yes"/>
      <point x="485.8" y="414.0"/>
      <point x="424.20000000000005" y="463.0"/>
      <point x="357.4" y="463.0" type="curve" smooth="yes"/>
      <point x="287.9" y="463.0"/>
      <point x="241.0" y="415.8"/>
      <point x="241.0" y="350.3" type="curve" smooth="yes"/>
      <point x="241.0" y="287.59999999999997"/>
      <point x="276.2" y="244.0"/>
      <point x="338.4" y="244.0" type="curve" smooth="yes"/>
      <point x="356.9" y="244.0"/>
      <point x="382.2" y="257.0"/>
      <point x="402.5" y="282.0" type="curve"/>
      <point x="336.59999999999997" y="322.0" type="line"/>
      <point x="328.1" y="182.0"/>
      <point x="244.1" y="111.3"/>
      <point x="201.10000000000002" y="111.3" type="curve" smooth="yes"/>
      <point x="182.20000000000002" y="111.3"/>
      <point x="168.4" y="122.9"/>
      <point x="168.4" y="146.5" type="curve" smooth="yes"/>
      <point x="168.4" y="536.0" type="line"/>
      <point x="552.0" y="536.0" type="line"/>
      <point x="508.1" y="622.0" type="line"/>
      <point x="-36.2" y="622.0" type="line"/>
      <point x="11.4" y="536.0" type="line"/>
      <point x="56.2" y="536.0" type="line"/>
      <point x="56.2" y="139.8" type="line" smooth="yes"/>
      <point x="56.2" y="49.199999999999996"/>
      <point x="140.5" y="-12.0"/>
    </contour>
  </outline>
</glyph>
<glyph name="nna-beng" format="2">
  <advance width="597.1999999999999"/>
  <unicode hex="09A3"/>
  <anchor x="524.7" y="74.6" name="bottom"/>
  <anchor x="541.0" y="-24.0" name="bottom.rakaar"/>
  <anchor x="541.0" y="-3.0" name="bottom.rvocalic"/>
  <anchor x="492.59999999999997" y="10.0" name="bottom.virama"/>
  <anchor x="494.0" y="582.0" name="top"/>
  <anchor x="484.7" y="572.0" name="topright"/>
  <anchor x="298.59999999999997" y="0.0" name="vedic"/>
  <outline>
    <contour>
      <point x="530.0" y="-43.0" type="line"/>
      <point x="541.0" y="-40.0" type="line"/>
      <point x="541.0" y="536.0" type="line"/>
      <point x="633.4" y="536.0" type="line"/>
      <point x="586.8" y="622.0" type="line"/>
      <point x="528.3" y="622.0" type="line"/>
      <point x="518.3" y="686.0" type="line"/>
      <point x="440.6" y="724.0" type="line"/>
      <point x="431.6" y="720.0" type="line"/>
      <point x="431.6" y="591.1" type="line" smooth="yes"/>
      <point x="431.6" y="522.9"/>
      <point x="436.59999999999997" y="427.8"/>
      <point x="440.8" y="383.7" type="curve"/>
      <point x="451.40000000000003" y="386.7" type="line"/>
      <point x="405.2" y="527.3000000000001"/>
      <point x="327.1" y="631.0"/>
      <point x="209.8" y="631.0" type="curve" smooth="yes"/>
      <point x="116.10000000000001" y="631.0"/>
      <point x="30.0" y="559.7"/>
      <point x="30.0" y="420.40000000000003" type="curve" smooth="yes"/>
      <point x="30.0" y="261.90000000000003"/>
      <point x="139.89999999999998" y="191.8"/>
      <point x="231.79999999999998" y="191.8" type="curve" smooth="yes"/>
      <point x="310.2" y="191.8"/>
      <point x="353.1" y="239.4"/>
      <point x="353.1" y="309.4" type="curve" smooth="yes"/>
      <point x="353.1" y="372.7"/>
      <point x="315.20000000000005" y="423.3"/>
      <point x="250.4" y="423.3" type="curve" smooth="yes"/>
      <point x="197.6" y="423.3"/>
      <point x="161.4" y="384.7"/>
      <point x="161.4" y="328.7" type="curve" smooth="yes"/>
      <point x="161.4" y="304.3"/>
      <point x="166.8" y="284.4"/>
      <point x="177.6" y="272.09999999999997" type="curve"/>
      <point x="224.2" y="316.0" type="line"/>
      <point x="212.3" y="311.6"/>
      <point x="197.3" y="308.5"/>
      <point x="185.0" y="308.5" type="curve" smooth="yes"/>
      <point x="157.5" y="308.5"/>
      <point x="132.4" y="333.6"/>
      <point x="132.4" y="385.5" type="curve" smooth="yes"/>
      <point x="132.4" y="446.7"/>
      <point x="171.9" y="489.59999999999997"/>
      <point x="243.0" y="489.59999999999997" type="curve" smooth="yes"/>
      <point x="325.9" y="489.59999999999997"/>
      <point x="388.5" y="427.3"/>
      <point x="441.4" y="269.3" type="curve"/>
      <point x="428.8" y="350.2" type="line"/>
      <point x="428.8" y="-1.0" type="line"/>
    </contour>
  </outline>
</glyph>
<glyph name="ta-beng" format="2">
  <advance width="599.7"/>
  <unicode hex="09A4"/>
  <anchor x="466.4" y="-15.0" name="bottom"/>
  <anchor x="553.4" y="0.0" name="bottom.rakaar"/>
  <anchor x="475.7" y="-19.0" name="bottom.rvocalic"/>
  <anchor x="387.4" y="0.0" name="bottom.virama"/>
  <anchor x="366.2" y="592.0" name="top"/>
  <anchor x="366.5" y="572.0" name="topright"/>
  <anchor x="299.7" y="0.0" name="vedic"/>
  <outline>
    <contour>
      <point x="360.3" y="-15.0" type="curve" smooth="yes"/>
      <point x="477.5" y="-15.0"/>
      <point x="588.5" y="53.0"/>
      <point x="588.5" y="234.0" type="curve" smooth="yes"/>
      <point x="588.5" y="389.0"/>
      <point x="494.9" y="502.0"/>
      <point x="341.2" y="502.0" type="curve" smooth="yes"/>
      <point x="240.5" y="502.0"/>
      <point x="187.20000000000002" y="441.3"/>
      <point x="187.20000000000002" y="358.0" type="curve" smooth="yes"/>
      <point x="187.20000000000002" y="281.3"/>
      <point x="234.8" y="221.0"/>
      <point x="318.3" y="221.0" type="curve" smooth="yes"/>
      <point x="395.8" y="221.0"/>
      <point x="433.0" y="273.1"/>
      <point x="433.0" y="337.0" type="curve" smooth="yes"/>
      <point x="433.0" y="382.0"/>
      <point x="406.0" y="418.0"/>
      <point x="389.09999999999997" y="435.0" type="curve"/>
      <point x="345.9" y="340.0" type="line"/>
      <point x="357.5" y="348.0"/>
      <point x="381.8" y="360.0"/>
      <point x="408.70000000000005" y="360.0" type="curve" smooth="yes"/>
      <point x="463.3" y="360.0"/>
      <point x="496.6" y="330.59999999999997"/>
      <point x="496.6" y="267.3" type="curve" smooth="yes"/>
      <point x="496.6" y="192.0"/>
      <point x="443.1" y="140.1"/>
      <point x="353.4" y="140.1" type="curve" smooth="yes"/>
      <point x="221.2" y="140.1"/>
      <point x="129.0" y="223.6"/>
      <point x="67.5" y="484.0" type="curve"/>
      <point x="1.1999999999999975" y="468.0" type="line"/>
      <point x="63.6" y="131.7"/>
      <point x="163.39999999999998" y="-15.0"/>
    </contour>
    <contour>
      <point x="9.399999999999999" y="536.0" type="line"/>
      <point x="635.9" y="536.0" type="line"/>
      <point x="588.3" y="622.0" type="line"/>
      <point x="-36.2" y="622.0" type="line"/>
    </contour>
  </outline>
</glyph>
<glyph name="tha-beng" format="2">
  <advance width="562.5"/>
  <unicode hex="09A5"/>
  <anchor x="500.79999999999995" y="37.0" name="bottom"/>
  <anchor x="506.29999999999995" y="100.0" name="bottom.rakaar"/>
  <anchor x="506.29999999999995" y="8.2" name="bottom.rvocalic"/>
  <anchor x="485.6" y="20.0" name="bottom.virama"/>
  <anchor x="456.5" y="582.0" name="top"/>
  <anchor x="447.2" y="572.0" name="topright"/>
  <anchor x="280.90000000000003" y="0.0" name="vedic"/>
  <outline>
    <contour>
      <point x="495.29999999999995" y="-32.0" type="line"/>
      <point x="506.29999999999995" y="-29.0" type="line"/>
      <point x="506.29999999999995" y="536.0" type="line"/>
      <point x="598.7" y="536.0" type="line"/>
      <point x="552.1" y="622.0" type="line"/>
      <point x="493.6" y="622.0" type="line"/>
      <point x="483.6" y="686.0" type="line"/>
      <point x="403.1" y="724.0" type="line"/>
      <point x="394.1" y="720.0" type="line"/>
      <point x="394.1" y="99.6" type="line"/>
      <point x="414.5" y="104.7" type="line"/>
      <point x="369.70000000000005" y="215.5"/>
      <point x="271.3" y="260.40000000000003"/>
      <point x="196.70000000000002" y="285.5" type="curve"/>
      <point x="217.8" y="245.0" type="line"/>
      <point x="321.9" y="264.6"/>
      <point x="365.9" y="334.0"/>
      <point x="365.9" y="427.7" type="curve" smooth="yes"/>
      <point x="365.9" y="552.4"/>
      <point x="277.5" y="627.8"/>
      <point x="168.89999999999998" y="627.8" type="curve" smooth="yes"/>
      <point x="75.39999999999999" y="627.8"/>
      <point x="9.000000000000004" y="568.7"/>
      <point x="9.000000000000004" y="491.70000000000005" type="curve" smooth="yes"/>
      <point x="9.000000000000004" y="420.5"/>
      <point x="54.4" y="386.59999999999997"/>
      <point x="104.3" y="386.59999999999997" type="curve" smooth="yes"/>
      <point x="158.20000000000002" y="386.59999999999997"/>
      <point x="191.5" y="418.9"/>
      <point x="191.5" y="467.5" type="curve" smooth="yes"/>
      <point x="191.5" y="505.20000000000005"/>
      <point x="178.6" y="524.4000000000001"/>
      <point x="153.8" y="535.5999999999999" type="curve"/>
      <point x="157.1" y="489.0" type="line"/>
      <point x="168.20000000000002" y="510.0"/>
      <point x="183.9" y="524.9"/>
      <point x="209.6" y="524.9" type="curve" smooth="yes"/>
      <point x="243.3" y="524.9"/>
      <point x="259.9" y="497.7"/>
      <point x="259.9" y="461.6" type="curve" smooth="yes"/>
      <point x="259.9" y="380.7"/>
      <point x="182.0" y="349.3"/>
      <point x="55.4" y="349.6" type="curve"/>
      <point x="112.6" y="183.1" type="line"/>
      <point x="237.9" y="167.5"/>
      <point x="350.9" y="112.2"/>
      <point x="417.0" y="12.6" type="curve"/>
    </contour>
  </outline>
</glyph>
<glyph name="da-beng" format="2">
  <advance width="520.8"/>
  <unicode hex="09A6"/>
  <anchor x="446.90000000000003" y="52.2" name="bottom"/>
  <anchor x="460.3" y="50.0" name="bottom.rakaar"/>
  <anchor x="462.0" y="-58.0" name="bottom.rvocalic"/>
  <anchor x="446.7" y="-45.0" name="bottom.virama"/>
  <anchor x="126.10000000000001" y="592.0" name="top"/>
  <anchor x="126.39999999999999" y="572.0" name="topright"/>
  <anchor x="259.90000000000003" y="0.0" name="vedic"/>
  <outline>
    <contour>
      <point x="404.1" y="-95.0" type="curve"/>
      <point x="462.0" y="-72.0" type="line"/>
      <point x="438.70000000000005" y="9.9"/>
      <point x="433.4" y="54.99999999999999"/>
      <point x="433.4" y="119.3" type="curve" smooth="yes"/>
      <point x="433.4" y="212.1"/>
      <point x="460.1" y="308.0"/>
      <point x="500.9" y="383.0" type="curve"/>
      <point x="369.1" y="492.9" type="line"/>
      <point x="286.3" y="442.9"/>
      <point x="195.0" y="367.2"/>
      <point x="139.0" y="297.9" type="curve"/>
      <point x="162.5" y="246.0" type="line"/>
      <point x="162.5" y="536.0" type="line"/>
      <point x="557.0" y="536.0" type="line"/>
      <point x="511.40000000000003" y="622.0" type="line"/>
      <point x="-36.2" y="622.0" type="line"/>
      <point x="10.399999999999999" y="536.0" type="line"/>
      <point x="50.3" y="536.0" type="line"/>
      <point x="50.3" y="192.1" type="line"/>
      <point x="162.8" y="104.1" type="line"/>
      <point x="243.0" y="198.10000000000002"/>
      <point x="328.8" y="285.1"/>
      <point x="417.7" y="350.1" type="curve"/>
      <point x="375.5" y="386.0" type="line"/>
      <point x="347.0" y="314.6"/>
      <point x="335.29999999999995" y="249.79999999999998"/>
      <point x="335.29999999999995" y="169.6" type="curve" smooth="yes"/>
      <point x="335.29999999999995" y="60.2"/>
      <point x="369.5" y="-27.1"/>
    </contour>
  </outline>
</glyph>
<glyph name="dha-beng" format="2">
  <advance width="518.6"/>
  <unicode hex="09A7"/>
  <anchor x="456.6" y="37.0" name="bottom"/>
  <anchor x="462.4" y="100.0" name="bottom.rakaar"/>
  <anchor x="462.40000000000003" y="8.2" name="bottom.rvocalic"/>
  <anchor x="441.7" y="20.0" name="bottom.virama"/>
  <anchor x="423.20000000000005" y="592.0" name="top"/>
  <anchor x="424.2" y="572.0" name="topright"/>
  <anchor x="259.3" y="0.0" name="vedic"/>
  <outline>
    <contour>
      <point x="451.4" y="-32.0" type="line"/>
      <point x="462.40000000000003" y="-29.0" type="line"/>
      <point x="462.40000000000003" y="536.0" type="line"/>
      <point x="554.8000000000001" y="536.0" type="line"/>
      <point x="508.2" y="622.0" type="line"/>
      <point x="350.2" y="622.0" type="line"/>
      <point x="350.2" y="424.4" type="line"/>
      <point x="362.79999999999995" y="488.3" type="line"/>
      <point x="241.5" y="449.3"/>
      <point x="101.69999999999999" y="391.7"/>
      <point x="13.1" y="334.1" type="curve"/>
      <point x="87.3" y="162.4" type="line"/>
      <point x="198.7" y="147.1"/>
      <point x="304.0" y="108.9"/>
      <point x="373.4" y="12.600000000000001" type="curve"/>
    </contour>
    <contour>
      <point x="350.2" y="102.9" type="line"/>
      <point x="370.59999999999997" y="108.0" type="line"/>
      <point x="336.6" y="194.7"/>
      <point x="256.8" y="244.6"/>
      <point x="184.6" y="268.2" type="curve"/>
      <point x="188.7" y="245.3" type="line"/>
      <point x="238.8" y="276.6"/>
      <point x="314.90000000000003" y="310.59999999999997"/>
      <point x="370.9" y="327.3" type="curve"/>
      <point x="350.2" y="376.6" type="line"/>
    </contour>
    <contour>
      <point x="204.9" y="391.0" type="curve"/>
      <point x="239.8" y="428.0" type="line"/>
      <point x="184.0" y="433.3"/>
      <point x="151.7" y="468.9"/>
      <point x="151.7" y="501.9" type="curve" smooth="yes"/>
      <point x="151.7" y="534.2"/>
      <point x="167.2" y="552.0"/>
      <point x="197.7" y="552.0" type="curve" smooth="yes"/>
      <point x="204.29999999999998" y="552.0"/>
      <point x="212.6" y="551.0"/>
      <point x="221.89999999999998" y="548.0" type="curve"/>
      <point x="177.6" y="590.0" type="line"/>
      <point x="169.7" y="576.0"/>
      <point x="167.39999999999998" y="560.6999999999999"/>
      <point x="167.39999999999998" y="540.0" type="curve" smooth="yes"/>
      <point x="167.39999999999998" y="498.0"/>
      <point x="199.0" y="474.0"/>
      <point x="234.5" y="474.0" type="curve" smooth="yes"/>
      <point x="273.7" y="474.0"/>
      <point x="305.3" y="504.0"/>
      <point x="305.3" y="549.0" type="curve" smooth="yes"/>
      <point x="305.3" y="601.0"/>
      <point x="268.7" y="647.0"/>
      <point x="191.3" y="647.0" type="curve" smooth="yes"/>
      <point x="106.60000000000001" y="647.0"/>
      <point x="54.9" y="596.0"/>
      <point x="54.9" y="521.0" type="curve" smooth="yes"/>
      <point x="54.9" y="418.0"/>
      <point x="152.2" y="391.0"/>
    </contour>
  </outline>
</glyph>
<glyph name="na-beng" format="2">
  <advance width="548.0"/>
  <unicode hex="09A8"/>
  <anchor x="466.6" y="81.3" name="bottom"/>
  <anchor x="484.1" y="100.0" name="bottom.rakaar"/>
  <anchor x="479.9" y="1.0" name="bottom.rvocalic"/>
  <anchor x="458.5" y="20.0" name="bottom.virama"/>
  <anchor x="442.1" y="592.0" name="top"/>
  <anchor x="443.8" y="572.0" name="topright"/>
  <anchor x="273.5" y="0.0" name="vedic"/>
  <outline>
    <contour>
      <point x="468.9" y="-36.0" type="line"/>
      <point x="479.9" y="-33.0" type="line"/>
      <point x="479.9" y="536.0" type="line"/>
      <point x="584.2" y="536.0" type="line"/>
      <point x="538.6" y="622.0" type="line"/>
      <point x="-36.2" y="622.0" type="line"/>
      <point x="9.399999999999999" y="536.0" type="line"/>
      <point x="367.70000000000005" y="536.0" type="line"/>
      <point x="367.70000000000005" y="384.0" type="line" smooth="yes"/>
      <point x="367.70000000000005" y="328.29999999999995"/>
      <point x="373.6" y="248.0"/>
      <point x="380.3" y="193.2" type="curve"/>
      <point x="394.2" y="202.9" type="line"/>
      <point x="368.1" y="317.40000000000003"/>
      <point x="295.09999999999997" y="450.1"/>
      <point x="158.8" y="450.1" type="curve" smooth="yes"/>
      <point x="79.2" y="450.1"/>
      <point x="18.0" y="398.0"/>
      <point x="18.0" y="305.2" type="curve" smooth="yes"/>
      <point x="18.0" y="222.20000000000002"/>
      <point x="71.9" y="162.20000000000002"/>
      <point x="151.3" y="162.20000000000002" type="curve" smooth="yes"/>
      <point x="229.79999999999998" y="162.20000000000002"/>
      <point x="268.7" y="220.9"/>
      <point x="268.7" y="280.1" type="curve" smooth="yes"/>
      <point x="268.7" y="308.4"/>
      <point x="257.4" y="334.1"/>
      <point x="231.79999999999998" y="352.1" type="curve"/>
      <point x="196.2" y="252.3" type="line"/>
      <point x="206.5" y="261.1"/>
      <point x="227.3" y="269.1"/>
      <point x="248.8" y="269.1" type="curve" smooth="yes"/>
      <point x="330.8" y="269.1"/>
      <point x="373.6" y="109.6"/>
      <point x="393.29999999999995" y="18.6" type="curve"/>
    </contour>
  </outline>
</glyph>
<glyph name="pa-beng" format="2">
  <advance width="644.1999999999999"/>
  <unicode hex="09AA"/>
  <anchor x="571.7" y="74.6" name="bottom"/>
  <anchor x="588.0" y="-24.0" name="bottom.rakaar"/>
  <anchor x="588.0" y="-3.0" name="bottom.rvocalic"/>
  <anchor x="539.6" y="10.0" name="bottom.virama"/>
  <anchor x="541.0" y="582.0" name="top"/>
  <anchor x="531.6999999999999" y="572.0" name="topright"/>
  <anchor x="322.1" y="0.0" name="vedic"/>
  <outline>
    <contour>
      <point x="577.0" y="-43.0" type="line"/>
      <point x="588.0" y="-40.0" type="line"/>
      <point x="588.0" y="536.0" type="line"/>
      <point x="680.4" y="536.0" type="line"/>
      <point x="633.8" y="622.0" type="line"/>
      <point x="575.3" y="622.0" type="line"/>
      <point x="565.3000000000001" y="686.0" type="line"/>
      <point x="487.6" y="724.0" type="line"/>
      <point x="478.6" y="720.0" type="line"/>
      <point x="478.6" y="512.1" type="line" smooth="yes"/>
      <point x="478.6" y="465.4"/>
      <point x="482.90000000000003" y="418.9"/>
      <point x="486.8" y="378.3" type="curve"/>
      <point x="493.3" y="393.0" type="line"/>
      <point x="435.8" y="559.0"/>
      <point x="345.90000000000003" y="632.0"/>
      <point x="244.6" y="632.0" type="curve" smooth="yes"/>
      <point x="132.5" y="632.0"/>
      <point x="40.8" y="539.9"/>
      <point x="-2.3000000000000007" y="400.29999999999995" type="curve"/>
      <point x="111.8" y="307.7" type="line"/>
      <point x="126.10000000000001" y="326.6"/>
      <point x="145.20000000000002" y="336.0"/>
      <point x="162.6" y="336.0" type="curve" smooth="yes"/>
      <point x="183.4" y="336.0"/>
      <point x="195.4" y="322.9"/>
      <point x="195.4" y="299.6" type="curve" smooth="yes"/>
      <point x="195.4" y="269.79999999999995"/>
      <point x="174.5" y="241.29999999999998"/>
      <point x="147.1" y="215.5" type="curve"/>
      <point x="255.2" y="117.8" type="line"/>
      <point x="460.0" y="377.90000000000003" type="line"/>
      <point x="368.5" y="483.7" type="line"/>
      <point x="231.79999999999998" y="298.0" type="line"/>
      <point x="241.70000000000002" y="288.20000000000005" type="line"/>
      <point x="253.1" y="309.4"/>
      <point x="261.7" y="331.2"/>
      <point x="261.7" y="361.79999999999995" type="curve" smooth="yes"/>
      <point x="261.7" y="400.3"/>
      <point x="235.20000000000002" y="426.1"/>
      <point x="199.0" y="426.1" type="curve" smooth="yes"/>
      <point x="175.7" y="426.1"/>
      <point x="150.3" y="416.59999999999997"/>
      <point x="135.4" y="397.59999999999997" type="curve"/>
      <point x="165.7" y="372.59999999999997" type="line"/>
      <point x="175.3" y="443.59999999999997"/>
      <point x="217.2" y="508.9"/>
      <point x="278.7" y="508.9" type="curve" smooth="yes"/>
      <point x="350.40000000000003" y="508.9"/>
      <point x="430.4" y="410.9"/>
      <point x="482.6" y="250.29999999999998" type="curve"/>
      <point x="475.8" y="338.3" type="line"/>
      <point x="475.8" y="-1.0" type="line"/>
    </contour>
  </outline>
</glyph>
<glyph name="pha-beng" format="2">
  <advance width="694.6999999999999"/>
  <unicode hex="09AB"/>
  <anchor x="472.59999999999997" y="37.0" name="bottom"/>
  <anchor x="478.4" y="100.0" name="bottom.rakaar"/>
  <anchor x="478.4" y="8.2" name="bottom.rvocalic"/>
  <anchor x="457.7" y="20.0" name="bottom.virama"/>
  <anchor x="439.2" y="592.0" name="top"/>
  <anchor x="440.2" y="572.0" name="topright"/>
  <anchor x="347.0" y="0.0" name="vedic"/>
  <outline>
    <contour>
      <point x="467.4" y="-32.0" type="line"/>
      <point x="478.4" y="-29.0" type="line"/>
      <point x="478.4" y="389.6" type="line"/>
      <point x="464.3" y="365.0" type="line"/>
      <point x="482.6" y="372.2"/>
      <point x="496.0" y="373.9"/>
      <point x="515.3" y="373.9" type="curve" smooth="yes"/>
      <point x="583.7" y="373.9"/>
      <point x="626.3" y="331.0"/>
      <point x="626.3" y="286.0" type="curve" smooth="yes"/>
      <point x="626.3" y="272.3"/>
      <point x="624.3000000000001" y="262.0"/>
      <point x="617.7" y="250.0" type="curve"/>
      <point x="638.8" y="246.0" type="line"/>
      <point x="637.5" y="289.0"/>
      <point x="612.5999999999999" y="313.0"/>
      <point x="570.5" y="313.0" type="curve" smooth="yes"/>
      <point x="530.7" y="313.0"/>
      <point x="495.4" y="285.0"/>
      <point x="495.4" y="233.0" type="curve" smooth="yes"/>
      <point x="495.4" y="181.0"/>
      <point x="526.3" y="143.0"/>
      <point x="579.1" y="143.0" type="curve" smooth="yes"/>
      <point x="640.8000000000001" y="143.0"/>
      <point x="685.3" y="193.9"/>
      <point x="685.3" y="288.20000000000005" type="curve" smooth="yes"/>
      <point x="685.3" y="427.90000000000003"/>
      <point x="571.5999999999999" y="512.0"/>
      <point x="436.1" y="512.0" type="curve" smooth="yes"/>
      <point x="407.5" y="512.0"/>
      <point x="391.5" y="511.0"/>
      <point x="366.2" y="508.0" type="curve"/>
      <point x="366.2" y="80.0" type="line"/>
      <point x="386.6" y="108.60000000000001" type="line"/>
      <point x="341.2" y="207.9"/>
      <point x="263.0" y="255.0"/>
      <point x="189.6" y="280.1" type="curve"/>
      <point x="189.2" y="233.1" type="line"/>
      <point x="234.2" y="272.6"/>
      <point x="289.3" y="305.79999999999995"/>
      <point x="353.7" y="342.9" type="curve"/>
      <point x="299.6" y="440.40000000000003"/>
      <point x="246.8" y="499.0"/>
      <point x="141.39999999999998" y="564.0" type="curve"/>
      <point x="127.30000000000001" y="536.0" type="line"/>
      <point x="730.9" y="536.0" type="line"/>
      <point x="685.3" y="622.0" type="line"/>
      <point x="-36.2" y="622.0" type="line"/>
      <point x="51.5" y="441.0" type="line"/>
      <point x="117.1" y="433.3"/>
      <point x="189.29999999999998" y="415.0"/>
      <point x="211.5" y="390.0" type="curve"/>
      <point x="219.6" y="425.7" type="line"/>
      <point x="178.89999999999998" y="409.7"/>
      <point x="77.8" y="355.40000000000003"/>
      <point x="41.2" y="326.20000000000005" type="curve"/>
      <point x="109.3" y="174.70000000000002" type="line"/>
      <point x="217.5" y="158.5"/>
      <point x="323.0" y="108.0"/>
      <point x="389.1" y="12.900000000000002" type="curve"/>
    </contour>
  </outline>
</glyph>
<glyph name="ba-beng" format="2">
  <advance width="501.0"/>
  <unicode hex="09AC"/>
  <anchor x="439.3" y="37.0" name="bottom"/>
  <anchor x="444.79999999999995" y="100.0" name="bottom.rakaar"/>
  <anchor x="444.8" y="8.2" name="bottom.rvocalic"/>
  <anchor x="424.1" y="20.0" name="bottom.virama"/>
  <anchor x="203.2" y="23.0" name="nukta"/>
  <anchor x="405.6" y="592.0" name="top"/>
  <anchor x="406.59999999999997" y="572.0" name="topright"/>
  <anchor x="250.0" y="0.0" name="vedic"/>
  <outline>
    <contour>
      <point x="433.79999999999995" y="-32.0" type="line"/>
      <point x="444.8" y="-29.0" type="line"/>
      <point x="444.8" y="536.0" type="line"/>
      <point x="537.2" y="536.0" type="line"/>
      <point x="490.59999999999997" y="622.0" type="line"/>
      <point x="-36.2" y="622.0" type="line"/>
      <point x="9.399999999999999" y="536.0" type="line"/>
      <point x="332.59999999999997" y="536.0" type="line"/>
      <point x="332.59999999999997" y="447.0" type="line"/>
      <point x="345.59999999999997" y="514.0" type="line"/>
      <point x="223.0" y="480.5"/>
      <point x="84.1" y="415.0"/>
      <point x="-4.7" y="351.90000000000003" type="curve"/>
      <point x="67.3" y="179.2" type="line"/>
      <point x="181.4" y="162.1"/>
      <point x="287.0" y="112.5"/>
      <point x="355.5" y="12.900000000000002" type="curve"/>
    </contour>
    <contour>
      <point x="332.59999999999997" y="102.0" type="line"/>
      <point x="353.0" y="109.2" type="line"/>
      <point x="314.79999999999995" y="202.5"/>
      <point x="240.4" y="258.1"/>
      <point x="170.0" y="282.6" type="curve"/>
      <point x="172.9" y="260.6" type="line"/>
      <point x="224.0" y="297.6"/>
      <point x="299.20000000000005" y="330.7"/>
      <point x="353.29999999999995" y="347.40000000000003" type="curve"/>
      <point x="332.59999999999997" y="401.0" type="line"/>
    </contour>
  </outline>
</glyph>
<glyph name="bha-beng" format="2">
  <advance width="610.4"/>
  <unicode hex="09AD"/>
  <anchor x="445.4" y="-18.0" name="bottom"/>
  <anchor x="544.0" y="-3.0" name="bottom.rakaar"/>
  <anchor x="472.4" y="-20.0" name="bottom.rvocalic"/>
  <anchor x="410.9" y="-3.0" name="bottom.virama"/>
  <anchor x="358.79999999999995" y="592.0" name="top"/>
  <anchor x="359.79999999999995" y="572.0" name="topright"/>
  <anchor x="305.2" y="0.0" name="vedic"/>
  <outline>
    <contour>
      <point x="364.2" y="-19.0" type="curve" smooth="yes"/>
      <point x="492.6" y="-19.0"/>
      <point x="598.3" y="58.0"/>
      <point x="598.3" y="248.0" type="curve" smooth="yes"/>
      <point x="598.3" y="377.0"/>
      <point x="539.5" y="453.0"/>
      <point x="487.7" y="495.0" type="curve"/>
      <point x="438.6" y="401.6"/>
      <point x="382.09999999999997" y="351.5"/>
      <point x="312.79999999999995" y="347.7" type="curve"/>
      <point x="338.1" y="317.0" type="line"/>
      <point x="357.7" y="336.0"/>
      <point x="370.1" y="360.4"/>
      <point x="370.1" y="392.0" type="curve" smooth="yes"/>
      <point x="370.1" y="450.4"/>
      <point x="329.6" y="486.0"/>
      <point x="274.9" y="486.0" type="curve" smooth="yes"/>
      <point x="211.2" y="486.0"/>
      <point x="172.2" y="436.3"/>
      <point x="172.2" y="372.0" type="curve" smooth="yes"/>
      <point x="172.2" y="287.70000000000005"/>
      <point x="236.9" y="217.9"/>
      <point x="334.09999999999997" y="217.9" type="curve" smooth="yes"/>
      <point x="409.8" y="217.9"/>
      <point x="489.2" y="259.5"/>
      <point x="543.9" y="342.7" type="curve"/>
      <point x="499.70000000000005" y="343.0" type="line"/>
      <point x="513.1" y="327.0"/>
      <point x="522.4" y="300.5"/>
      <point x="522.4" y="268.8" type="curve" smooth="yes"/>
      <point x="522.4" y="182.0"/>
      <point x="456.0" y="134.8"/>
      <point x="358.8" y="134.8" type="curve" smooth="yes"/>
      <point x="222.4" y="134.8"/>
      <point x="134.8" y="224.0"/>
      <point x="68.3" y="484.0" type="curve"/>
      <point x="1.1999999999999957" y="468.0" type="line"/>
      <point x="70.19999999999999" y="135.4"/>
      <point x="158.0" y="-19.0"/>
    </contour>
    <contour>
      <point x="9.399999999999999" y="536.0" type="line"/>
      <point x="646.6" y="536.0" type="line"/>
      <point x="599.0" y="622.0" type="line"/>
      <point x="-36.2" y="622.0" type="line"/>
    </contour>
  </outline>
</glyph>
<glyph name="ma-beng" format="2">
  <advance width="554.1999999999999"/>
  <unicode hex="09AE"/>
  <anchor x="474.0" y="72.0" name="bottom"/>
  <anchor x="490.3" y="100.0" name="bottom.rakaar"/>
  <anchor x="486.1" y="4.000000000000001" name="bottom.rvocalic"/>
  <anchor x="464.7" y="20.0" name="bottom.virama"/>
  <anchor x="448.3" y="592.0" name="top"/>
  <anchor x="450.0" y="572.0" name="topright"/>
  <anchor x="276.59999999999997" y="0.0" name="vedic"/>
  <outline>
    <contour>
      <point x="475.1" y="-34.8" type="line"/>
      <point x="486.1" y="-31.8" type="line"/>
      <point x="486.1" y="536.0" type="line"/>
      <point x="590.4" y="536.0" type="line"/>
      <point x="544.5" y="622.0" type="line"/>
      <point x="-36.2" y="622.0" type="line"/>
      <point x="9.399999999999999" y="536.0" type="line"/>
      <point x="31.900000000000002" y="536.0" type="line"/>
      <point x="11.300000000000002" y="577.0" type="line"/>
      <point x="8.700000000000001" y="566.0"/>
      <point x="8.1" y="542.0"/>
      <point x="8.1" y="535.0" type="curve" smooth="yes"/>
      <point x="8.1" y="484.5"/>
      <point x="43.300000000000004" y="453.8"/>
      <point x="121.9" y="428.0" type="curve" smooth="yes"/>
      <point x="162.6" y="414.70000000000005"/>
      <point x="195.7" y="394.0"/>
      <point x="195.7" y="358.0" type="curve" smooth="yes"/>
      <point x="195.7" y="321.7"/>
      <point x="175.9" y="300.0"/>
      <point x="159.3" y="285.70000000000005" type="curve"/>
      <point x="271.4" y="319.0" type="line"/>
      <point x="248.79999999999998" y="327.0"/>
      <point x="227.6" y="336.0"/>
      <point x="194.70000000000002" y="336.0" type="curve" smooth="yes"/>
      <point x="114.6" y="336.70000000000005"/>
      <point x="73.10000000000001" y="290.90000000000003"/>
      <point x="73.10000000000001" y="221.9" type="curve" smooth="yes"/>
      <point x="73.10000000000001" y="149.0"/>
      <point x="124.39999999999999" y="104.8"/>
      <point x="189.10000000000002" y="104.1" type="curve" smooth="yes"/>
      <point x="259.5" y="103.39999999999999"/>
      <point x="292.8" y="148.0"/>
      <point x="310.40000000000003" y="212.1" type="curve"/>
      <point x="266.9" y="194.6" type="line"/>
      <point x="345.4" y="177.9"/>
      <point x="377.2" y="86.4"/>
      <point x="396.8" y="16.799999999999997" type="curve"/>
    </contour>
    <contour>
      <point x="388.3" y="132.4" type="curve"/>
      <point x="401.0" y="143.0" type="line"/>
      <point x="380.90000000000003" y="227.1"/>
      <point x="338.5" y="284.0"/>
      <point x="290.70000000000005" y="311.0" type="curve"/>
      <point x="312.3" y="240.1" type="line"/>
      <point x="321.0" y="270.1"/>
      <point x="323.1" y="289.40000000000003"/>
      <point x="323.1" y="313.09999999999997" type="curve" smooth="yes"/>
      <point x="323.1" y="380.9"/>
      <point x="297.0" y="423.6"/>
      <point x="250.60000000000002" y="452.0" type="curve" smooth="yes"/>
      <point x="212.9" y="475.5"/>
      <point x="187.1" y="494.5"/>
      <point x="186.39999999999998" y="526.0" type="curve" smooth="yes"/>
      <point x="186.39999999999998" y="541.3"/>
      <point x="190.70000000000002" y="556.0"/>
      <point x="199.0" y="565.0" type="curve"/>
      <point x="110.60000000000001" y="536.0" type="line"/>
      <point x="373.90000000000003" y="536.0" type="line"/>
      <point x="373.90000000000003" y="340.5" type="line" smooth="yes"/>
      <point x="373.90000000000003" y="278.4"/>
      <point x="380.40000000000003" y="191.7"/>
    </contour>
  </outline>
</glyph>
<glyph name="ya-beng" format="2">
  <advance width="551.4"/>
  <unicode hex="09AF"/>
  <anchor x="476.79999999999995" y="37.0" name="bottom"/>
  <anchor x="482.6" y="100.0" name="bottom.rakaar"/>
  <anchor x="482.59999999999997" y="8.2" name="bottom.rvocalic"/>
  <anchor x="461.9" y="20.0" name="bottom.virama"/>
  <anchor x="241.0" y="27.9" name="nukta"/>
  <anchor x="443.4" y="592.0" name="top"/>
  <anchor x="444.4" y="572.0" name="topright"/>
  <anchor x="275.7" y="0.0" name="vedic"/>
  <outline>
    <contour>
      <point x="471.6" y="-32.0" type="line"/>
      <point x="482.59999999999997" y="-29.0" type="line"/>
      <point x="482.59999999999997" y="536.0" type="line"/>
      <point x="587.5999999999999" y="536.0" type="line"/>
      <point x="540.0" y="622.0" type="line"/>
      <point x="-36.2" y="622.0" type="line"/>
      <point x="51.5" y="441.0" type="line"/>
      <point x="118.3" y="433.0"/>
      <point x="189.29999999999998" y="415.0"/>
      <point x="211.5" y="390.0" type="curve"/>
      <point x="219.6" y="425.7" type="line"/>
      <point x="178.89999999999998" y="409.7"/>
      <point x="77.2" y="354.8"/>
      <point x="41.2" y="326.20000000000005" type="curve"/>
      <point x="109.3" y="174.70000000000002" type="line"/>
      <point x="217.5" y="158.20000000000002"/>
      <point x="327.2" y="108.0"/>
      <point x="393.3" y="12.900000000000002" type="curve"/>
    </contour>
    <contour>
      <point x="370.4" y="80.0" type="line"/>
      <point x="390.8" y="108.60000000000001" type="line"/>
      <point x="346.0" y="207.60000000000002"/>
      <point x="263.0" y="255.0"/>
      <point x="189.6" y="280.1" type="curve"/>
      <point x="189.2" y="233.1" type="line"/>
      <point x="233.29999999999998" y="271.7"/>
      <point x="289.6" y="306.09999999999997"/>
      <point x="353.7" y="342.59999999999997" type="curve"/>
      <point x="297.8" y="442.2"/>
      <point x="246.8" y="499.0"/>
      <point x="141.39999999999998" y="564.0" type="curve"/>
      <point x="133.6" y="536.0" type="line"/>
      <point x="370.4" y="536.0" type="line"/>
    </contour>
  </outline>
</glyph>
<glyph name="la-beng" format="2">
  <advance width="652.1"/>
  <unicode hex="09B2"/>
  <anchor x="579.5999999999999" y="74.6" name="bottom"/>
  <anchor x="595.9" y="-24.0" name="bottom.rakaar"/>
  <anchor x="595.9" y="-3.0" name="bottom.rvocalic"/>
  <anchor x="547.5" y="10.0" name="bottom.virama"/>
  <anchor x="560.2" y="591.3" name="top"/>
  <anchor x="561.9" y="572.0" name="topright"/>
  <anchor x="325.9" y="0.0" name="vedic"/>
  <outline>
    <contour>
      <point x="584.9" y="-43.0" type="line"/>
      <point x="595.9" y="-40.0" type="line"/>
      <point x="595.9" y="536.0" type="line"/>
      <point x="688.3000000000001" y="536.0" type="line"/>
      <point x="641.4" y="622.0" type="line"/>
      <point x="-36.2" y="622.0" type="line"/>
      <point x="9.7" y="536.0" type="line"/>
      <point x="483.7" y="536.0" type="line"/>
      <point x="483.7" y="457.0" type="line" smooth="yes"/>
      <point x="483.7" y="391.8"/>
      <point x="488.9" y="349.5"/>
      <point x="497.5" y="294.7" type="curve"/>
      <point x="507.4" y="299.2" type="line"/>
      <point x="479.29999999999995" y="402.7"/>
      <point x="440.79999999999995" y="483.8"/>
      <point x="371.59999999999997" y="483.8" type="curve" smooth="yes"/>
      <point x="325.5" y="483.8"/>
      <point x="287.29999999999995" y="426.0"/>
      <point x="286.1" y="340.7" type="curve"/>
      <point x="316.0" y="336.7" type="line"/>
      <point x="299.70000000000005" y="426.0"/>
      <point x="240.7" y="494.3"/>
      <point x="157.3" y="494.3" type="curve" smooth="yes"/>
      <point x="68.4" y="494.3"/>
      <point x="3.0" y="425.40000000000003"/>
      <point x="3.0" y="300.8" type="curve" smooth="yes"/>
      <point x="3.0" y="166.7"/>
      <point x="81.0" y="71.4"/>
      <point x="194.0" y="71.4" type="curve" smooth="yes"/>
      <point x="263.59999999999997" y="71.4"/>
      <point x="302.8" y="111.4"/>
      <point x="302.8" y="175.7" type="curve" smooth="yes"/>
      <point x="302.8" y="236.0"/>
      <point x="268.90000000000003" y="277.0"/>
      <point x="211.3" y="277.0" type="curve" smooth="yes"/>
      <point x="163.7" y="277.0"/>
      <point x="130.5" y="241.0"/>
      <point x="130.5" y="187.7" type="curve" smooth="yes"/>
      <point x="130.5" y="166.70000000000002"/>
      <point x="136.8" y="146.7"/>
      <point x="153.0" y="134.0" type="curve"/>
      <point x="196.2" y="177.60000000000002" type="line"/>
      <point x="185.6" y="171.4"/>
      <point x="173.70000000000002" y="167.60000000000002"/>
      <point x="157.4" y="167.60000000000002" type="curve" smooth="yes"/>
      <point x="129.1" y="167.60000000000002"/>
      <point x="105.8" y="192.9"/>
      <point x="105.8" y="241.29999999999998" type="curve" smooth="yes"/>
      <point x="105.8" y="300.70000000000005"/>
      <point x="145.7" y="336.29999999999995"/>
      <point x="203.6" y="336.29999999999995" type="curve" smooth="yes"/>
      <point x="263.0" y="336.29999999999995"/>
      <point x="310.40000000000003" y="303.9"/>
      <point x="330.20000000000005" y="240.0" type="curve"/>
      <point x="360.9" y="232.1" type="line"/>
      <point x="360.29999999999995" y="290.0"/>
      <point x="376.5" y="323.8"/>
      <point x="409.0" y="323.8" type="curve" smooth="yes"/>
      <point x="439.79999999999995" y="323.8"/>
      <point x="469.4" y="291.20000000000005"/>
      <point x="489.3" y="215.0" type="curve"/>
      <point x="483.7" y="266.7" type="line"/>
      <point x="483.7" y="-1.0" type="line"/>
    </contour>
  </outline>
</glyph>
<glyph name="sha-beng" format="2">
  <advance width="629.5"/>
  <unicode hex="09B6"/>
  <anchor x="557.0" y="74.6" name="bottom"/>
  <anchor x="573.3" y="-24.0" name="bottom.rakaar"/>
  <anchor x="573.3" y="-3.0" name="bottom.rvocalic"/>
  <anchor x="524.9" y="10.0" name="bottom.virama"/>
  <anchor x="526.3" y="582.0" name="top"/>
  <anchor x="517.0" y="572.0" name="topright"/>
  <anchor x="314.4" y="0.0" name="vedic"/>
  <outline>
    <contour>
      <point x="562.3" y="-43.0" type="line"/>
      <point x="573.3" y="-40.0" type="line"/>
      <point x="573.3" y="536.0" type="line"/>
      <point x="665.7" y="536.0" type="line"/>
      <point x="619.1" y="622.0" type="line"/>
      <point x="560.6" y="622.0" type="line"/>
      <point x="550.6" y="686.0" type="line"/>
      <point x="472.90000000000003" y="724.0" type="line"/>
      <point x="463.90000000000003" y="720.0" type="line"/>
      <point x="463.90000000000003" y="625.1999999999999" type="line" smooth="yes"/>
      <point x="463.90000000000003" y="569.9000000000001"/>
      <point x="468.3" y="474.8"/>
      <point x="472.8" y="436.7" type="curve"/>
      <point x="486.5" y="431.5" type="line"/>
      <point x="438.79999999999995" y="565.8"/>
      <point x="386.8" y="632.0"/>
      <point x="315.7" y="632.0" type="curve" smooth="yes"/>
      <point x="260.4" y="632.0"/>
      <point x="218.2" y="587.0"/>
      <point x="191.8" y="546.0" type="curve"/>
      <point x="157.2" y="593.6"/>
      <point x="119.9" y="622.0"/>
      <point x="69.39999999999999" y="622.0" type="curve" smooth="yes"/>
      <point x="-36.2" y="622.0" type="line"/>
      <point x="10.7" y="536.0" type="line"/>
      <point x="67.4" y="536.0" type="line" smooth="yes"/>
      <point x="100.4" y="536.0"/>
      <point x="138.3" y="516.4"/>
      <point x="155.39999999999998" y="475.7" type="curve"/>
      <point x="177.7" y="511.0" type="line"/>
      <point x="40.9" y="454.7"/>
      <point x="11.8" y="382.3"/>
      <point x="11.8" y="322.6" type="curve" smooth="yes"/>
      <point x="11.8" y="247.0"/>
      <point x="64.0" y="220.0"/>
      <point x="106.8" y="220.0" type="curve" smooth="yes"/>
      <point x="161.20000000000002" y="220.0"/>
      <point x="199.3" y="257.9"/>
      <point x="214.6" y="311.3" type="curve"/>
      <point x="230.9" y="251.6"/>
      <point x="269.0" y="222.0"/>
      <point x="315.40000000000003" y="222.0" type="curve" smooth="yes"/>
      <point x="366.8" y="222.0"/>
      <point x="403.70000000000005" y="259.3"/>
      <point x="403.70000000000005" y="324.6" type="curve" smooth="yes"/>
      <point x="403.70000000000005" y="396.9"/>
      <point x="351.1" y="446.7"/>
      <point x="293.20000000000005" y="476.7" type="curve"/>
      <point x="301.0" y="440.2" type="line"/>
      <point x="311.2" y="468.9"/>
      <point x="326.1" y="501.5"/>
      <point x="355.6" y="501.5" type="curve" smooth="yes"/>
      <point x="382.7" y="501.5"/>
      <point x="431.7" y="464.2"/>
      <point x="470.9" y="336.6" type="curve"/>
      <point x="461.1" y="403.2" type="line"/>
      <point x="461.1" y="-1.0" type="line"/>
    </contour>
  </outline>
</glyph>
<glyph name="ssa-beng" format="2">
  <advance width="552.3000000000001"/>
  <unicode hex="09B7"/>
  <anchor x="477.7" y="37.0" name="bottom"/>
  <anchor x="483.5" y="100.0" name="bottom.rakaar"/>
  <anchor x="483.5" y="8.2" name="bottom.rvocalic"/>
  <anchor x="462.79999999999995" y="6.0" name="bottom.virama"/>
  <anchor x="444.29999999999995" y="592.0" name="top"/>
  <anchor x="445.3" y="572.0" name="topright"/>
  <anchor x="276.0" y="0.0" name="vedic"/>
  <outline>
    <contour>
      <point x="472.5" y="-32.0" type="line"/>
      <point x="483.5" y="-29.0" type="line"/>
      <point x="483.5" y="536.0" type="line"/>
      <point x="588.5" y="536.0" type="line"/>
      <point x="541.2" y="622.0" type="line"/>
      <point x="-36.2" y="622.0" type="line"/>
      <point x="51.5" y="441.0" type="line"/>
      <point x="183.4" y="431.6"/>
      <point x="309.5" y="362.3"/>
      <point x="401.3" y="265.0" type="curve"/>
      <point x="439.70000000000005" y="304.0" type="line"/>
      <point x="389.59999999999997" y="376.0"/>
      <point x="239.1" y="514.0"/>
      <point x="113.9" y="575.0" type="curve"/>
      <point x="108.2" y="536.0" type="line"/>
      <point x="371.3" y="536.0" type="line"/>
      <point x="371.3" y="80.0" type="line"/>
      <point x="391.7" y="104.69999999999999" type="line"/>
      <point x="346.59999999999997" y="204.9"/>
      <point x="263.59999999999997" y="255.3"/>
      <point x="189.89999999999998" y="280.40000000000003" type="curve"/>
      <point x="199.89999999999998" y="229.6" type="line"/>
      <point x="240.7" y="267.0"/>
      <point x="289.1" y="300.9"/>
      <point x="350.5" y="341.79999999999995" type="curve"/>
      <point x="210.5" y="421.0" type="line"/>
      <point x="162.29999999999998" y="393.8"/>
      <point x="89.5" y="347.9"/>
      <point x="44.2" y="307.0" type="curve"/>
      <point x="111.6" y="174.70000000000002" type="line"/>
      <point x="218.70000000000002" y="158.5"/>
      <point x="328.4" y="107.69999999999999"/>
      <point x="394.5" y="12.600000000000001" type="curve"/>
    </contour>
  </outline>
</glyph>
<glyph name="sa-beng" format="2">
  <advance width="620.2"/>
  <unicode hex="09B8"/>
  <anchor x="547.4" y="74.6" name="bottom"/>
  <anchor x="563.7" y="-24.0" name="bottom.rakaar"/>
  <anchor x="563.7" y="-3.0000000000000004" name="bottom.rvocalic"/>
  <anchor x="515.3" y="10.0" name="bottom.virama"/>
  <anchor x="528.3000000000001" y="591.3" name="top"/>
  <anchor x="530.0" y="572.0" name="topright"/>
  <anchor x="309.6" y="0.0" name="vedic"/>
  <outline>
    <contour>
      <point x="553.0" y="-43.0" type="line"/>
      <point x="564.0" y="-40.0" type="line"/>
      <point x="564.0" y="536.0" type="line"/>
      <point x="656.4000000000001" y="536.0" type="line"/>
      <point x="609.8000000000001" y="622.0" type="line"/>
      <point x="-36.2" y="622.0" type="line"/>
      <point x="81.89999999999999" y="418.0" type="line"/>
      <point x="91.8" y="420.0"/>
      <point x="112.80000000000001" y="423.0"/>
      <point x="136.0" y="423.0" type="curve" smooth="yes"/>
      <point x="194.1" y="423.0"/>
      <point x="254.6" y="403.4"/>
      <point x="264.3" y="286.4" type="curve"/>
      <point x="305.5" y="339.0" type="line"/>
      <point x="289.90000000000003" y="487.0"/>
      <point x="258.8" y="549.0"/>
      <point x="79.9" y="572.0" type="curve"/>
      <point x="109.3" y="536.0" type="line"/>
      <point x="452.4" y="536.0" type="line"/>
      <point x="452.4" y="457.90000000000003" type="line" smooth="yes"/>
      <point x="452.4" y="391.5"/>
      <point x="458.2" y="322.9"/>
      <point x="464.9" y="261.5" type="curve"/>
      <point x="480.5" y="262.5" type="line"/>
      <point x="437.0" y="398.2"/>
      <point x="401.8" y="444.6"/>
      <point x="356.4" y="444.6" type="curve" smooth="yes"/>
      <point x="315.5" y="444.6"/>
      <point x="287.3" y="395.6"/>
      <point x="257.5" y="333.70000000000005" type="curve" smooth="yes"/>
      <point x="232.2" y="280.6"/>
      <point x="210.0" y="232.4"/>
      <point x="174.5" y="232.4" type="curve" smooth="yes"/>
      <point x="145.0" y="232.4"/>
      <point x="126.39999999999999" y="252.9"/>
      <point x="96.5" y="309.5" type="curve"/>
      <point x="39.2" y="277.5" type="line"/>
      <point x="79.0" y="175.5"/>
      <point x="129.7" y="75.3"/>
      <point x="217.5" y="75.3" type="curve" smooth="yes"/>
      <point x="275.09999999999997" y="75.3"/>
      <point x="303.70000000000005" y="129.9"/>
      <point x="335.8" y="192.6" type="curve" smooth="yes"/>
      <point x="362.7" y="243.5"/>
      <point x="379.5" y="278.3"/>
      <point x="404.90000000000003" y="278.3" type="curve" smooth="yes"/>
      <point x="433.9" y="278.3"/>
      <point x="448.20000000000005" y="235.8"/>
      <point x="462.29999999999995" y="176.1" type="curve"/>
      <point x="451.79999999999995" y="253.6" type="line"/>
      <point x="451.79999999999995" y="-1.0" type="line"/>
    </contour>
  </outline>
</glyph>
<glyph name="ha-beng" format="2">
  <advance width="489.7"/>
  <unicode hex="09B9"/>
  <anchor x="299.2" y="32.0" name="bottom"/>
  <anchor x="421.0" y="-100.0" name="bottom.rakaar"/>
  <anchor x="389.4" y="18.0" name="bottom.rvocalic"/>
  <anchor x="295.7" y="30.0" name="bottom.virama"/>
  <anchor x="247.6" y="592.0" name="top"/>
  <anchor x="251.4" y="572.0" name="topright"/>
  <anchor x="244.5" y="0.0" name="vedic"/>
  <outline>
    <contour>
      <point x="483.6" y="-127.0" type="curve"/>
      <point x="525.9" y="-81.0" type="line"/>
      <point x="427.2" y="28.0"/>
      <point x="304.7" y="121.5"/>
      <point x="186.4" y="148.5" type="curve"/>
      <point x="146.5" y="108.5" type="line"/>
      <point x="162.0" y="97.5"/>
      <point x="189.3" y="92.6"/>
      <point x="218.5" y="92.6" type="curve" smooth="yes"/>
      <point x="391.5" y="92.6"/>
      <point x="465.2" y="173.8"/>
      <point x="465.2" y="287.6" type="curve" smooth="yes"/>
      <point x="465.2" y="429.3"/>
      <point x="354.59999999999997" y="494.0"/>
      <point x="198.29999999999998" y="494.0" type="curve" smooth="yes"/>
      <point x="107.7" y="494.0"/>
      <point x="48.0" y="446.4"/>
      <point x="48.0" y="373.40000000000003" type="curve" smooth="yes"/>
      <point x="48.0" y="301.70000000000005"/>
      <point x="99.39999999999999" y="262.0"/>
      <point x="162.8" y="262.0" type="curve" smooth="yes"/>
      <point x="226.3" y="262.0"/>
      <point x="273.90000000000003" y="306.0"/>
      <point x="273.90000000000003" y="384.0" type="curve" smooth="yes"/>
      <point x="273.90000000000003" y="462.3"/>
      <point x="219.2" y="529.0"/>
      <point x="190.8" y="543.0" type="curve"/>
      <point x="16.9" y="543.0" type="line"/>
      <point x="89.69999999999999" y="529.0"/>
      <point x="138.5" y="503.3"/>
      <point x="187.5" y="457.0" type="curve"/>
      <point x="189.6" y="359.0" type="line"/>
      <point x="204.5" y="378.0"/>
      <point x="237.0" y="402.9"/>
      <point x="268.2" y="402.9" type="curve" smooth="yes"/>
      <point x="313.0" y="402.9"/>
      <point x="346.79999999999995" y="378.5"/>
      <point x="346.79999999999995" y="324.8" type="curve" smooth="yes"/>
      <point x="346.79999999999995" y="252.0"/>
      <point x="285.4" y="215.5"/>
      <point x="191.6" y="215.5" type="curve" smooth="yes"/>
      <point x="130.70000000000002" y="215.5"/>
      <point x="81.3" y="229.8"/>
      <point x="37.8" y="259.5" type="curve"/>
      <point x="74.39999999999999" y="73.7" type="line"/>
      <point x="189.2" y="45.7"/>
      <point x="320.2" y="8.3"/>
    </contour>
    <contour>
      <point x="9.399999999999999" y="536.0" type="line"/>
      <point x="523.1" y="536.0" type="line"/>
      <point x="474.5" y="622.0" type="line"/>
      <point x="-36.2" y="622.0" type="line"/>
    </contour>
  </outline>
</glyph>
<glyph name="nukta-beng" format="2">
  <unicode hex="09BC"/>
  <anchor x="0.0" y="-137.0" name="_nukta"/>
  <outline>
    <contour>
      <point x="0.0" y="-216.5" type="curve" smooth="yes"/>
      <point x="44.300000000000004" y="-216.5"/>
      <point x="74.89999999999999" y="-185.9"/>
      <point x="74.89999999999999" y="-137.0" type="curve" smooth="yes"/>
      <point x="74.89999999999999" y="-87.7"/>
      <point x="44.6" y="-56.5"/>
      <point x="0.0" y="-56.5" type="curve" smooth="yes"/>
      <point x="-45.6" y="-56.5"/>
      <point x="-76.6" y="-87.7"/>
      <point x="-76.6" y="-137.0" type="curve" smooth="yes"/>
      <point x="-76.6" y="-185.3"/>
      <point x="-45.300000000000004" y="-216.5"/>
    </contour>
  </outline>
</glyph>
<glyph name="avagraha-beng" format="2">
  <advance width="527.0"/>
  <unicode hex="09BD"/>
  <anchor x="224.0" y="592.0" name="top"/>
  <anchor x="225.0" y="572.0" name="topright"/>
  <outline>
    <contour>
      <point x="492.70000000000005" y="-127.0" type="curve"/>
      <point x="535.0" y="-81.0" type="line"/>
      <point x="436.29999999999995" y="28.0"/>
      <point x="313.8" y="121.5"/>
      <point x="195.5" y="148.5" type="curve"/>
      <point x="155.6" y="108.5" type="line"/>
      <point x="171.1" y="97.5"/>
      <point x="198.4" y="92.6"/>
      <point x="227.60000000000002" y="92.6" type="curve" smooth="yes"/>
      <point x="400.6" y="92.6"/>
      <point x="474.29999999999995" y="173.8"/>
      <point x="474.29999999999995" y="287.6" type="curve" smooth="yes"/>
      <point x="474.29999999999995" y="426.6"/>
      <point x="363.7" y="494.0"/>
      <point x="207.39999999999998" y="494.0" type="curve" smooth="yes"/>
      <point x="116.8" y="494.0"/>
      <point x="57.099999999999994" y="446.4"/>
      <point x="57.099999999999994" y="373.40000000000003" type="curve" smooth="yes"/>
      <point x="57.099999999999994" y="301.70000000000005"/>
      <point x="108.5" y="262.0"/>
      <point x="171.9" y="262.0" type="curve" smooth="yes"/>
      <point x="235.4" y="262.0"/>
      <point x="283.0" y="306.0"/>
      <point x="283.0" y="384.0" type="curve" smooth="yes"/>
      <point x="283.0" y="464.0"/>
      <point x="231.1" y="556.7"/>
      <point x="132.0" y="622.0" type="curve"/>
      <point x="-39.0" y="622.0" type="line"/>
      <point x="8.0" y="536.0" type="line"/>
      <point x="134.79999999999998" y="536.0" type="line"/>
      <point x="70.1" y="542.3" type="line"/>
      <point x="121.19999999999999" y="529.0"/>
      <point x="157.39999999999998" y="501.2"/>
      <point x="196.60000000000002" y="457.0" type="curve"/>
      <point x="198.7" y="359.0" type="line"/>
      <point x="213.6" y="378.0"/>
      <point x="246.1" y="402.9"/>
      <point x="277.3" y="402.9" type="curve" smooth="yes"/>
      <point x="322.1" y="402.9"/>
      <point x="355.9" y="375.8"/>
      <point x="355.9" y="324.8" type="curve" smooth="yes"/>
      <point x="355.9" y="252.0"/>
      <point x="294.5" y="215.5"/>
      <point x="200.7" y="215.5" type="curve" smooth="yes"/>
      <point x="139.8" y="215.5"/>
      <point x="90.39999999999999" y="229.8"/>
      <point x="46.9" y="259.5" type="curve"/>
      <point x="83.5" y="73.7" type="line"/>
      <point x="198.29999999999998" y="45.7"/>
      <point x="329.3" y="8.3"/>
    </contour>
  </outline>
</glyph>
<glyph name="iMatra-beng" format="2">
  <advance width="224.6"/>
  <unicode hex="09BF"/>
  <anchor x="643.7" y="592.0" name="top"/>
  <anchor x="617.7" y="593.0" name="topright"/>
  <outline>
    <contour>
      <point x="157.4" y="-43.0" type="line"/>
      <point x="168.4" y="-40.0" type="line"/>
      <point x="168.4" y="536.0" type="line"/>
      <point x="261.09999999999997" y="536.0" type="line"/>
      <point x="214.20000000000002" y="622.0" type="line"/>
      <point x="162.29999999999998" y="622.0" type="line"/>
      <point x="152.60000000000002" y="639.0"/>
      <point x="134.79999999999998" y="665.9"/>
      <point x="125.2" y="690.0" type="curve"/>
      <point x="157.4" y="750.0"/>
      <point x="228.6" y="801.7"/>
      <point x="312.7" y="801.7" type="curve" smooth="yes"/>
      <point x="404.9" y="801.7"/>
      <point x="486.1" y="749.9"/>
      <point x="579.8" y="664.0" type="curve"/>
      <point x="629.4" y="710.0" type="line"/>
      <point x="558.3000000000001" y="799.5"/>
      <point x="430.5" y="925.0"/>
      <point x="275.4" y="925.0" type="curve" smooth="yes"/>
      <point x="134.39999999999998" y="925.0"/>
      <point x="24.700000000000003" y="829.0"/>
      <point x="-24.599999999999998" y="715.9" type="curve"/>
      <point x="3.6000000000000014" y="680.0"/>
      <point x="33.1" y="651.0"/>
      <point x="58.3" y="622.0" type="curve"/>
      <point x="-36.2" y="622.0" type="line"/>
      <point x="10.4" y="536.0" type="line"/>
      <point x="56.2" y="536.0" type="line"/>
      <point x="56.2" y="-1.0" type="line"/>
    </contour>
  </outline>
</glyph>
<glyph name="uMatra-beng" format="2">
  <unicode hex="09C1"/>
  <anchor x="0.0" y="0.0" name="_bottom"/>
  <outline>
    <contour>
      <point x="149.2" y="-308.3" type="curve"/>
      <point x="199.1" y="-279.0" type="line"/>
      <point x="147.10000000000002" y="-157.2"/>
      <point x="2.9000000000000012" y="-30.0"/>
      <point x="-144.0" y="-30.0" type="curve" smooth="yes"/>
      <point x="-233.9" y="-30.0"/>
      <point x="-284.5" y="-79.8"/>
      <point x="-284.5" y="-156.8" type="curve" smooth="yes"/>
      <point x="-284.5" y="-234.79999999999998"/>
      <point x="-233.79999999999998" y="-291.3"/>
      <point x="-151.79999999999998" y="-291.3" type="curve" smooth="yes"/>
      <point x="-48.9" y="-291.3"/>
      <point x="11.899999999999999" y="-204.3"/>
      <point x="11.899999999999999" y="-118.3" type="curve" smooth="yes"/>
      <point x="11.899999999999999" y="-51.699999999999996"/>
      <point x="-2.4" y="-1.3"/>
      <point x="-16.3" y="40.7" type="curve"/>
      <point x="-98.2" y="15.7" type="line"/>
      <point x="-90.6" y="-11.7"/>
      <point x="-83.0" y="-43.4"/>
      <point x="-83.0" y="-79.0" type="curve" smooth="yes"/>
      <point x="-83.0" y="-172.3"/>
      <point x="-123.39999999999999" y="-195.0"/>
      <point x="-157.3" y="-195.0" type="curve" smooth="yes"/>
      <point x="-180.7" y="-195.0"/>
      <point x="-196.29999999999998" y="-183.0"/>
      <point x="-196.29999999999998" y="-161.3" type="curve" smooth="yes"/>
      <point x="-196.29999999999998" y="-139.29999999999998"/>
      <point x="-181.7" y="-124.19999999999999"/>
      <point x="-147.3" y="-124.19999999999999" type="curve" smooth="yes"/>
      <point x="-29.799999999999997" y="-124.19999999999999"/>
      <point x="74.9" y="-189.3"/>
    </contour>
  </outline>
</glyph>
<glyph name="uuMatra-beng" format="2">
  <unicode hex="09C2"/>
  <anchor x="0.0" y="0.0" name="_bottom"/>
  <outline>
    <contour>
      <point x="157.39999999999998" y="-317.3" type="curve"/>
      <point x="194.0" y="-275.0" type="line"/>
      <point x="144.1" y="-216.7"/>
      <point x="62.0" y="-170.0"/>
      <point x="12.2" y="-148.3" type="curve"/>
      <point x="-35.3" y="-190.6"/>
      <point x="-84.2" y="-206.7"/>
      <point x="-125.60000000000001" y="-206.7" type="curve" smooth="yes"/>
      <point x="-164.0" y="-206.7"/>
      <point x="-182.4" y="-191.20000000000002"/>
      <point x="-182.4" y="-165.9" type="curve" smooth="yes"/>
      <point x="-182.4" y="-142.5"/>
      <point x="-167.1" y="-125.5"/>
      <point x="-126.2" y="-125.5" type="curve" smooth="yes"/>
      <point x="-95.8" y="-125.5"/>
      <point x="-70.19999999999999" y="-131.2"/>
      <point x="-42.0" y="-140.3" type="curve"/>
      <point x="11.899999999999999" y="-114.3" type="line"/>
      <point x="10.6" y="-49.0"/>
      <point x="-2.4" y="-1.3"/>
      <point x="-16.3" y="40.7" type="curve"/>
      <point x="-98.2" y="15.7" type="line"/>
      <point x="-90.3" y="-10.3"/>
      <point x="-83.0" y="-48.0"/>
      <point x="-83.0" y="-78.3" type="curve"/>
      <point x="-47.4" y="-48.7" type="line"/>
      <point x="-74.9" y="-37.7"/>
      <point x="-103.7" y="-30.0"/>
      <point x="-143.2" y="-30.0" type="curve" smooth="yes"/>
      <point x="-220.9" y="-30.0"/>
      <point x="-273.59999999999997" y="-80.4"/>
      <point x="-273.59999999999997" y="-158.0" type="curve" smooth="yes"/>
      <point x="-273.59999999999997" y="-236.4"/>
      <point x="-227.20000000000002" y="-300.2"/>
      <point x="-118.7" y="-301.6" type="curve" smooth="yes"/>
      <point x="-50.400000000000006" y="-302.3"/>
      <point x="9.0" y="-281.8"/>
      <point x="59.1" y="-222.6" type="curve"/>
      <point x="-4.1" y="-222.3" type="line"/>
      <point x="48.7" y="-233.3"/>
      <point x="115.4" y="-283.3"/>
    </contour>
  </outline>
</glyph>
<glyph name="rVocalicMatra-beng" format="2">
  <unicode hex="09C3"/>
  <anchor x="0.0" y="0.0" name="_bottom.rvocalic"/>
  <outline>
    <contour>
      <point x="14.8" y="-302.90000000000003" type="curve"/>
      <point x="47.9" y="-252.4" type="line"/>
      <point x="15.5" y="-207.7"/>
      <point x="-57.6" y="-140.0"/>
      <point x="-146.10000000000002" y="-89.3" type="curve"/>
      <point x="-133.8" y="-124.3" type="line"/>
      <point x="-100.3" y="-93.5"/>
      <point x="-40.199999999999996" y="-60.9"/>
      <point x="0.0" y="-39.300000000000004" type="curve"/>
      <point x="0.0" y="-11.0" type="line"/>
      <point x="-68.60000000000001" y="53.599999999999994" type="line"/>
      <point x="-132.29999999999998" y="22.299999999999997"/>
      <point x="-228.3" y="-30.7"/>
      <point x="-294.59999999999997" y="-83.0" type="curve"/>
      <point x="-228.4" y="-169.60000000000002" type="line"/>
      <point x="-122.1" y="-200.9"/>
      <point x="-46.099999999999994" y="-247.5"/>
    </contour>
  </outline>
</glyph>
<glyph name="rrVocalicMatra-beng" format="2">
  <unicode hex="09C4"/>
  <anchor x="0.0" y="0.0" name="_bottom.rvocalic"/>
  <outline>
    <contour>
      <point x="16.3" y="-283.79999999999995" type="curve"/>
      <point x="47.300000000000004" y="-233.3" type="line"/>
      <point x="13.100000000000001" y="-193.0"/>
      <point x="-54.6" y="-136.5"/>
      <point x="-146.10000000000002" y="-92.10000000000001" type="curve"/>
      <point x="-133.8" y="-124.3" type="line"/>
      <point x="-100.3" y="-93.5"/>
      <point x="-40.199999999999996" y="-60.9"/>
      <point x="0.0" y="-39.300000000000004" type="curve"/>
      <point x="0.0" y="-11.0" type="line"/>
      <point x="-68.60000000000001" y="53.599999999999994" type="line"/>
      <point x="-132.29999999999998" y="22.299999999999997"/>
      <point x="-228.3" y="-30.7"/>
      <point x="-294.59999999999997" y="-83.0" type="curve"/>
      <point x="-227.5" y="-169.0" type="line"/>
      <point x="-118.19999999999999" y="-198.8"/>
      <point x="-44.3" y="-234.2"/>
    </contour>
    <contour>
      <point x="13.7" y="-450.0" type="curve"/>
      <point x="43.4" y="-408.0" type="line"/>
      <point x="19.0" y="-373.0"/>
      <point x="-51.0" y="-308.70000000000005"/>
      <point x="-141.1" y="-263.0" type="curve"/>
      <point x="-131.2" y="-290.0" type="line"/>
      <point x="-99.5" y="-262.0"/>
      <point x="-70.5" y="-240.0"/>
      <point x="-28.4" y="-217.0" type="curve"/>
      <point x="-139.20000000000002" y="-171.0" type="line"/>
      <point x="-195.0" y="-199.0"/>
      <point x="-233.0" y="-225.7"/>
      <point x="-281.0" y="-260.0" type="curve"/>
      <point x="-217.3" y="-333.0" type="line"/>
      <point x="-115.5" y="-362.0"/>
      <point x="-46.1" y="-399.0"/>
    </contour>
  </outline>
</glyph>
<glyph name="eMatra-beng" format="2">
  <advance width="390.6"/>
  <unicode hex="09C7"/>
  <outline>
    <contour>
      <point x="265.4" y="-34.3" type="curve" smooth="yes"/>
      <point x="342.2" y="-34.3"/>
      <point x="386.70000000000005" y="7.7"/>
      <point x="386.70000000000005" y="83.3" type="curve" smooth="yes"/>
      <point x="386.70000000000005" y="140.29999999999998"/>
      <point x="352.8" y="189.3"/>
      <point x="287.70000000000005" y="189.3" type="curve" smooth="yes"/>
      <point x="231.89999999999998" y="189.3"/>
      <point x="194.39999999999998" y="147.3"/>
      <point x="194.39999999999998" y="93.0" type="curve" smooth="yes"/>
      <point x="194.39999999999998" y="52.7"/>
      <point x="208.0" y="26.7"/>
      <point x="226.6" y="8.0" type="curve"/>
      <point x="270.6" y="28.1" type="line"/>
      <point x="188.4" y="43.1"/>
      <point x="154.9" y="115.1"/>
      <point x="154.9" y="239.6" type="curve" smooth="yes"/>
      <point x="154.9" y="424.5"/>
      <point x="281.2" y="536.0"/>
      <point x="390.8" y="536.0" type="curve" smooth="yes"/>
      <point x="426.8" y="536.0" type="line"/>
      <point x="382.2" y="622.0" type="line"/>
      <point x="-36.2" y="622.0" type="line"/>
      <point x="7.7" y="536.0" type="line"/>
      <point x="214.2" y="536.0" type="line"/>
      <point x="156.1" y="572.8" type="line"/>
      <point x="86.5" y="529.0"/>
      <point x="26.5" y="430.8"/>
      <point x="26.5" y="286.8" type="curve" smooth="yes"/>
      <point x="26.5" y="75.30000000000001"/>
      <point x="142.3" y="-34.3"/>
    </contour>
  </outline>
</glyph>
<glyph name="taKhanda-beng" format="2">
  <advance width="506.0"/>
  <unicode hex="09CE"/>
  <anchor x="255.5" y="592.0" name="top"/>
  <anchor x="260.0" y="572.0" name="topright"/>
  <outline>
    <contour>
      <point x="478.7" y="-95.0" type="line"/>
      <point x="501.6" y="-62.0"/>
      <point x="521.6" y="-9.0"/>
      <point x="521.6" y="42.0" type="curve" smooth="yes"/>
      <point x="521.6" y="137.0"/>
      <point x="433.7" y="202.5"/>
      <point x="300.8" y="230.5" type="curve" smooth="yes"/>
      <point x="167.2" y="258.5"/>
      <point x="131.5" y="298.4"/>
      <point x="131.5" y="370.7" type="curve" smooth="yes"/>
      <point x="131.5" y="468.3"/>
      <point x="194.9" y="489.8"/>
      <point x="257.4" y="489.8" type="curve" smooth="yes"/>
      <point x="318.8" y="489.8"/>
      <point x="346.70000000000005" y="473.0"/>
      <point x="346.70000000000005" y="443.0" type="curve" smooth="yes"/>
      <point x="346.70000000000005" y="420.1"/>
      <point x="331.8" y="406.0"/>
      <point x="305.8" y="406.0" type="curve" smooth="yes"/>
      <point x="270.1" y="406.0"/>
      <point x="220.70000000000002" y="434.0"/>
      <point x="213.79999999999998" y="503.0" type="curve"/>
      <point x="152.2" y="482.0" type="line"/>
      <point x="167.5" y="362.0"/>
      <point x="206.29999999999998" y="276.0"/>
      <point x="294.20000000000005" y="276.0" type="curve" smooth="yes"/>
      <point x="385.6" y="276.0"/>
      <point x="424.09999999999997" y="360.6"/>
      <point x="424.09999999999997" y="464.9" type="curve" smooth="yes"/>
      <point x="424.09999999999997" y="564.6"/>
      <point x="364.5" y="625.0"/>
      <point x="260.9" y="625.0" type="curve" smooth="yes"/>
      <point x="121.4" y="625.0"/>
      <point x="37.6" y="497.0"/>
      <point x="37.6" y="353.0" type="curve" smooth="yes"/>
      <point x="37.6" y="215.0"/>
      <point x="101.2" y="115.6"/>
      <point x="258.5" y="84.0" type="curve" smooth="yes"/>
      <point x="391.2" y="57.300000000000004"/>
      <point x="435.70000000000005" y="44.0"/>
      <point x="435.70000000000005" y="-9.0" type="curve" smooth="yes"/>
      <point x="435.70000000000005" y="-33.0"/>
      <point x="431.1" y="-55.0"/>
      <point x="422.5" y="-77.0" type="curve"/>
    </contour>
  </outline>
</glyph>
<glyph name="auLength-beng" format="2">
  <advance width="224.6"/>
  <unicode hex="09D7"/>
  <anchor x="341.90000000000003" y="599.0" name="top"/>
  <anchor x="-3.0" y="586.0" name="topright"/>
  <anchor x="-233.29999999999998" y="0.0" name="vedic"/>
  <outline>
    <contour>
      <point x="157.4" y="-43.0" type="line"/>
      <point x="168.4" y="-40.0" type="line"/>
      <point x="168.4" y="536.0" type="line"/>
      <point x="260.79999999999995" y="536.0" type="line"/>
      <point x="213.9" y="622.0" type="line"/>
      <point x="-36.2" y="622.0" type="line"/>
      <point x="10.4" y="536.0" type="line"/>
      <point x="56.2" y="536.0" type="line"/>
      <point x="56.2" y="-1.0" type="line"/>
    </contour>
    <contour>
      <point x="61.2" y="596.0" type="curve"/>
      <point x="166.4" y="596.0" type="line"/>
      <point x="164.1" y="743.0"/>
      <point x="67.4" y="834.3000000000001"/>
      <point x="-46.0" y="834.3000000000001" type="curve" smooth="yes"/>
      <point x="-124.1" y="834.3000000000001"/>
      <point x="-179.4" y="817.1999999999999"/>
      <point x="-257.5" y="817.1999999999999" type="curve" smooth="yes"/>
      <point x="-331.7" y="817.1999999999999"/>
      <point x="-376.90000000000003" y="831.6999999999999"/>
      <point x="-376.90000000000003" y="896.4" type="curve" smooth="yes"/>
      <point x="-376.90000000000003" y="910.4"/>
      <point x="-375.90000000000003" y="926.7"/>
      <point x="-373.6" y="938.7" type="curve"/>
      <point x="-431.5" y="945.0" type="line"/>
      <point x="-436.5" y="920.4000000000001"/>
      <point x="-439.79999999999995" y="889.4000000000001"/>
      <point x="-439.79999999999995" y="857.0" type="curve" smooth="yes"/>
      <point x="-439.79999999999995" y="735.0"/>
      <point x="-357.7" y="681.0"/>
      <point x="-249.29999999999998" y="681.0" type="curve" smooth="yes"/>
      <point x="-155.3" y="681.0"/>
      <point x="-103.3" y="706.0"/>
      <point x="-19.6" y="706.0" type="curve" smooth="yes"/>
      <point x="47.8" y="706.0"/>
      <point x="65.2" y="669.0"/>
      <point x="65.2" y="635.0" type="curve" smooth="yes"/>
      <point x="65.2" y="623.0"/>
      <point x="64.2" y="610.0"/>
    </contour>
  </outline>
</glyph>
<glyph name="llVocalic-beng" format="2">
  <advance width="723.6"/>
  <unicode hex="09E1"/>
  <anchor x="421.8" y="536.0" name="top"/>
  <anchor x="361.3" y="0.0" name="vedic"/>
  <outline>
    <contour>
      <point x="284.1" y="-22.0" type="curve"/>
      <point x="429.2" y="-10.0"/>
      <point x="509.8" y="90.3"/>
      <point x="509.8" y="259.0" type="curve" smooth="yes"/>
      <point x="509.8" y="401.6"/>
      <point x="438.3" y="469.9"/>
      <point x="291.3" y="504.2" type="curve" smooth="yes"/>
      <point x="199.5" y="526.1999999999999"/>
      <point x="144.5" y="538.6999999999999"/>
      <point x="144.5" y="616.0" type="curve" smooth="yes"/>
      <point x="144.5" y="648.0"/>
      <point x="149.79999999999998" y="670.0"/>
      <point x="161.79999999999998" y="699.0" type="curve"/>
      <point x="102.39999999999999" y="718.0" type="line"/>
      <point x="84.5" y="684.8000000000001"/>
      <point x="57.900000000000006" y="629.4"/>
      <point x="57.900000000000006" y="556.4" type="curve" smooth="yes"/>
      <point x="57.900000000000006" y="437.0"/>
      <point x="130.9" y="395.0"/>
      <point x="248.7" y="367.0" type="curve" smooth="yes"/>
      <point x="360.9" y="340.0"/>
      <point x="428.20000000000005" y="331.0"/>
      <point x="428.20000000000005" y="225.0" type="curve" smooth="yes"/>
      <point x="428.20000000000005" y="146.7"/>
      <point x="392.5" y="106.0"/>
      <point x="337.1" y="104.0" type="curve"/>
      <point x="399.09999999999997" y="69.0" type="line"/>
      <point x="399.4" y="218.0"/>
      <point x="324.5" y="333.0"/>
      <point x="196.2" y="333.0" type="curve" smooth="yes"/>
      <point x="75.1" y="333.0"/>
      <point x="25.9" y="241.1"/>
      <point x="25.9" y="148.5" type="curve" smooth="yes"/>
      <point x="25.9" y="39.4"/>
      <point x="80.0" y="-15.0"/>
      <point x="150.7" y="-15.0" type="curve" smooth="yes"/>
      <point x="210.29999999999998" y="-15.0"/>
      <point x="236.9" y="23.5"/>
      <point x="236.9" y="77.7" type="curve" smooth="yes"/>
      <point x="236.9" y="130.7"/>
      <point x="205.4" y="164.0"/>
      <point x="157.89999999999998" y="164.0" type="curve" smooth="yes"/>
      <point x="116.0" y="164.0"/>
      <point x="83.4" y="134.0"/>
      <point x="84.4" y="94.0" type="curve"/>
      <point x="147.2" y="86.0" type="line"/>
      <point x="128.6" y="92.0"/>
      <point x="115.69999999999999" y="109.7"/>
      <point x="115.69999999999999" y="141.0" type="curve" smooth="yes"/>
      <point x="115.69999999999999" y="177.0"/>
      <point x="139.5" y="204.0"/>
      <point x="179.89999999999998" y="204.0" type="curve" smooth="yes"/>
      <point x="261.2" y="204.0"/>
      <point x="288.09999999999997" y="99.3"/>
      <point x="288.09999999999997" y="19.0" type="curve" smooth="yes"/>
      <point x="288.09999999999997" y="5.7"/>
      <point x="287.1" y="-7.3"/>
    </contour>
    <contour>
      <point x="493.29999999999995" y="-248.7" type="line"/>
      <point x="587.2" y="-237.7"/>
      <point x="713.5" y="-169.4"/>
      <point x="713.5" y="43.2" type="curve" smooth="yes"/>
      <point x="713.5" y="203.4"/>
      <point x="634.3" y="273.2"/>
      <point x="467.0" y="318.09999999999997" type="curve"/>
      <point x="461.7" y="172.8" type="line"/>
      <point x="569.6" y="146.6"/>
      <point x="632.1999999999999" y="113.00000000000001"/>
      <point x="632.1999999999999" y="11.0" type="curve" smooth="yes"/>
      <point x="632.1999999999999" y="-68.19999999999999"/>
      <point x="594.7" y="-113.7"/>
      <point x="539.6" y="-116.0" type="curve"/>
      <point x="601.6" y="-151.0" type="line"/>
      <point x="601.9" y="-1.7"/>
      <point x="526.7" y="113.0"/>
      <point x="398.4" y="113.0" type="curve" smooth="yes"/>
      <point x="278.2" y="113.0"/>
      <point x="229.6" y="21.1"/>
      <point x="229.6" y="-71.5" type="curve" smooth="yes"/>
      <point x="229.6" y="-181.2"/>
      <point x="283.7" y="-235.0"/>
      <point x="354.4" y="-235.0" type="curve" smooth="yes"/>
      <point x="413.7" y="-235.0"/>
      <point x="440.6" y="-196.5"/>
      <point x="440.6" y="-142.3" type="curve" smooth="yes"/>
      <point x="440.6" y="-89.6"/>
      <point x="409.09999999999997" y="-56.0"/>
      <point x="361.6" y="-56.0" type="curve" smooth="yes"/>
      <point x="319.7" y="-56.0"/>
      <point x="287.09999999999997" y="-86.3"/>
      <point x="288.1" y="-126.0" type="curve"/>
      <point x="350.9" y="-134.0" type="line"/>
      <point x="332.3" y="-128.0"/>
      <point x="319.4" y="-110.3"/>
      <point x="319.4" y="-79.3" type="curve" smooth="yes"/>
      <point x="319.4" y="-43.0"/>
      <point x="342.9" y="-15.7"/>
      <point x="382.4" y="-15.7" type="curve" smooth="yes"/>
      <point x="463.4" y="-15.7"/>
      <point x="490.59999999999997" y="-120.4"/>
      <point x="490.59999999999997" y="-201.0" type="curve" smooth="yes"/>
      <point x="490.59999999999997" y="-214.3"/>
      <point x="489.6" y="-227.3"/>
      <point x="486.6" y="-241.7" type="curve"/>
    </contour>
  </outline>
</glyph>
